
<?xml version="1.0" encoding="UTF-8" ?>
<!DOCTYPE svg PUBLIC "-//W3C//DTD SVG 1.1//EN" "http://www.w3.org/Graphics/SVG/1.1/DTD/svg11.dtd">
<svg width="1000pt" height="1000pt" viewBox="0 0 1000 1000" version="1.1" xmlns="http://www.w3.org/2000/svg">
<path fill="#000000" d=" M 637.23 44.21 C 639.76 42.23 643.31 41.80 646.31 42.85 C 649.51 44.65 651.31 48.14 652.39 51.52 C 655.41 61.38 654.59 71.82 654.45 81.99 C 672.68 76.03 691.73 71.81 711.01 72.21 C 721.63 72.34 732.89 72.32 742.47 77.55 C 745.94 79.42 748.81 82.30 750.61 85.82 C 743.16 87.94 735.26 86.60 727.81 88.70 C 710.45 92.82 692.46 99.87 681.35 114.55 C 691.53 112.94 701.60 110.09 711.99 110.43 C 727.49 109.89 743.28 115.70 754.12 126.90 C 764.12 136.53 769.90 150.14 770.60 163.94 C 771.06 172.34 769.19 180.66 766.66 188.62 C 764.51 195.34 760.34 201.47 754.64 205.67 C 750.89 207.90 746.44 208.44 742.28 209.55 C 744.37 206.44 747.20 202.98 746.34 198.97 C 744.26 192.40 739.14 187.29 733.65 183.39 C 723.63 176.82 711.21 175.11 699.45 175.43 C 703.56 180.05 708.86 183.39 712.99 187.99 C 723.59 199.62 729.78 214.79 732.32 230.19 C 733.08 239.03 733.19 248.14 730.54 256.70 C 727.37 268.99 720.13 280.71 708.92 287.12 C 704.76 289.71 699.90 290.67 695.20 291.74 C 696.49 286.30 698.88 280.22 696.02 274.86 C 691.93 266.79 683.88 261.82 675.99 258.00 C 680.24 271.36 685.35 284.76 685.72 298.96 C 685.78 304.83 686.13 310.76 685.22 316.59 C 684.33 321.23 682.13 325.45 680.07 329.66 C 684.87 329.81 689.68 329.61 694.49 329.59 C 694.69 334.26 693.49 338.80 692.37 343.29 C 689.58 353.44 686.34 363.45 683.16 373.48 C 679.41 385.98 670.75 396.69 660.10 404.07 C 649.86 411.27 637.77 415.07 625.93 418.73 C 613.28 422.54 600.16 424.31 587.15 426.34 C 589.40 432.13 591.85 437.83 594.64 443.39 C 597.04 448.19 598.42 453.75 602.52 457.49 C 606.64 461.41 608.54 466.92 611.21 471.82 C 618.17 485.11 624.84 498.96 626.73 514.03 C 628.66 526.14 626.99 538.52 624.02 550.32 C 622.68 555.87 619.55 561.08 619.90 566.95 C 620.16 571.48 620.14 576.36 622.62 580.36 C 628.30 588.78 633.17 598.10 641.66 604.14 C 651.23 589.49 668.90 581.72 686.05 581.57 C 698.63 582.31 710.80 586.83 721.34 593.63 C 733.22 601.56 742.06 613.38 747.74 626.38 C 758.29 649.17 760.76 675.20 756.55 699.84 C 753.50 716.64 748.30 733.15 740.23 748.24 C 735.46 757.30 729.60 766.07 721.47 772.45 C 717.90 775.40 712.62 775.89 709.90 779.89 C 704.33 787.53 698.04 794.70 690.76 800.77 C 686.42 804.19 680.93 807.76 675.16 806.07 C 669.68 804.27 666.95 798.76 664.11 794.21 C 659.70 787.15 657.50 779.09 654.93 771.26 C 650.37 756.20 645.52 740.87 645.48 724.98 C 645.50 714.10 652.90 705.35 659.35 697.33 C 662.93 693.39 663.66 687.92 664.78 682.92 C 667.22 671.53 667.90 659.48 664.59 648.18 C 658.53 654.03 650.77 659.24 641.97 658.68 C 635.97 659.03 630.78 655.54 626.39 651.85 C 626.61 663.94 626.66 676.02 626.41 688.11 C 625.78 692.94 630.50 696.25 630.46 700.98 C 630.71 707.98 622.68 713.94 616.16 710.82 C 612.14 708.86 611.81 703.84 612.30 699.94 C 612.58 695.61 618.03 693.59 617.68 689.09 C 617.94 676.06 617.89 663.02 617.54 650.00 C 617.46 646.21 616.83 642.47 616.23 638.74 C 612.02 645.83 607.52 652.83 601.79 658.81 C 599.90 660.94 597.61 662.78 596.19 665.28 C 595.59 667.10 595.77 669.06 595.74 670.95 C 595.92 682.03 596.03 693.37 592.60 704.04 C 591.70 707.28 590.22 710.44 590.07 713.84 C 591.07 717.28 593.53 720.25 593.75 723.93 C 594.02 727.79 594.13 732.26 591.11 735.17 C 586.20 740.54 577.34 737.76 573.06 732.97 C 568.12 726.13 570.17 715.89 576.11 710.32 C 577.95 709.45 580.05 709.55 582.04 709.26 C 586.83 697.38 587.97 684.46 587.30 671.77 C 577.95 677.22 568.45 682.51 558.25 686.21 C 559.88 710.56 563.41 734.75 565.95 759.01 C 569.75 793.53 575.73 827.84 584.14 861.53 C 585.48 867.92 586.57 874.44 586.23 880.99 C 585.99 885.79 583.43 890.16 583.42 894.98 C 585.15 901.87 589.81 907.87 590.45 915.09 C 590.67 917.78 589.78 920.78 587.46 922.37 C 584.38 924.37 580.53 924.37 576.99 924.50 C 553.66 924.73 530.33 924.22 507.00 924.50 C 495.30 924.53 483.59 924.96 471.91 924.38 C 467.99 924.25 463.85 921.95 462.95 917.90 C 462.00 912.84 462.81 907.66 463.49 902.62 C 450.02 902.55 436.04 900.92 424.16 894.10 C 424.24 900.93 425.24 907.81 424.29 914.61 C 423.53 919.47 418.93 922.68 414.32 923.42 C 402.64 925.41 390.77 925.28 379.01 926.39 C 366.67 926.67 354.29 926.97 342.01 925.63 C 328.90 925.34 315.98 922.53 303.63 918.28 C 295.78 914.91 291.79 906.15 291.30 898.02 C 290.91 888.35 291.17 878.65 291.56 868.99 C 293.34 850.95 294.74 832.86 297.40 814.92 C 298.80 805.85 298.51 796.61 300.29 787.60 C 302.48 769.95 306.27 752.53 311.40 735.51 C 316.56 717.11 320.17 698.03 328.91 680.86 C 330.71 677.25 333.70 673.42 338.12 673.39 C 345.07 673.12 351.93 674.77 358.88 674.81 C 351.94 657.31 340.55 641.87 334.88 623.83 C 332.39 628.72 329.93 634.09 324.94 636.92 C 317.19 642.55 307.38 644.49 297.97 644.43 C 281.14 643.48 264.23 639.77 249.37 631.58 C 234.15 623.27 220.15 611.72 211.66 596.39 C 203.00 581.18 200.76 563.20 201.68 545.97 C 202.63 536.47 204.05 526.84 207.99 518.07 C 209.88 513.66 212.69 509.74 214.87 505.48 C 203.84 513.53 199.10 527.36 197.37 540.39 C 196.26 547.89 196.58 555.53 195.08 562.99 C 190.27 558.49 185.12 553.93 182.56 547.69 C 176.51 533.32 175.55 517.35 176.66 501.96 C 178.84 485.95 184.46 469.67 195.87 457.85 C 203.57 449.62 213.89 444.49 224.25 440.41 C 234.17 436.79 244.46 434.15 254.95 432.86 C 274.17 431.17 293.95 433.01 311.97 440.21 C 323.95 445.13 334.58 453.62 341.28 464.78 C 347.52 475.08 351.45 486.92 351.17 499.05 C 357.85 496.38 364.72 493.82 371.97 493.42 C 382.02 492.87 392.10 493.39 402.10 494.52 C 401.00 487.73 399.68 480.82 400.84 473.94 C 403.50 456.90 414.60 442.17 428.32 432.22 C 439.88 423.91 453.03 417.05 467.36 415.42 C 459.52 398.13 448.41 382.62 439.07 366.16 C 433.16 355.04 427.77 343.41 425.64 330.91 C 424.98 325.71 425.20 320.45 425.42 315.23 C 420.86 312.73 416.33 310.06 412.57 306.42 C 404.14 298.37 396.79 289.09 391.34 278.77 C 383.44 263.38 380.45 246.07 378.66 229.03 C 378.21 219.68 378.18 210.31 378.68 200.97 C 380.75 181.49 384.86 162.26 390.36 143.48 C 392.77 136.15 395.58 128.62 400.85 122.82 C 403.85 119.43 408.41 117.04 413.02 117.91 C 419.69 119.08 425.01 123.74 429.65 128.39 C 439.25 137.93 445.47 150.14 451.51 162.10 C 466.85 151.38 482.45 140.99 498.69 131.68 C 519.59 119.79 541.70 110.05 564.64 102.84 C 577.04 99.04 589.35 94.89 601.95 91.81 C 605.57 91.29 607.26 87.85 608.97 85.05 C 614.56 75.45 620.78 66.24 626.88 56.95 C 630.00 52.48 632.78 47.52 637.23 44.21 Z" />
<path fill="#f4d596" d=" M 637.41 56.53 C 638.99 54.23 641.07 52.37 643.25 50.65 C 646.70 60.05 645.82 70.17 645.77 79.98 C 645.75 85.98 645.06 91.95 644.16 97.87 C 634.24 100.30 624.69 104.42 614.43 105.29 C 611.69 105.56 608.95 105.70 606.21 105.87 C 616.06 89.08 626.48 72.63 637.41 56.53 Z" />
<path fill="#111111" d=" M 696.00 81.82 C 702.40 80.90 708.96 80.48 715.32 82.00 C 707.87 86.32 699.24 88.23 692.11 93.16 C 685.10 97.88 677.88 103.01 673.59 110.50 C 671.68 113.50 670.13 117.01 666.98 118.94 C 661.51 122.11 655.38 123.95 649.18 125.01 C 650.43 113.77 652.60 102.66 654.44 91.51 C 667.86 86.70 681.80 83.28 696.00 81.82 Z" />
<path fill="#111111" d=" M 540.99 120.93 C 559.22 113.60 577.93 107.19 597.14 103.00 C 593.56 111.44 588.52 119.13 584.20 127.19 C 581.54 131.46 579.64 136.38 575.95 139.89 C 571.70 142.53 566.52 142.94 562.04 145.08 C 551.31 150.19 541.03 156.32 531.71 163.73 C 527.07 167.05 522.83 170.88 518.25 174.28 C 514.80 176.92 510.30 177.02 506.17 177.46 C 498.18 178.09 490.43 180.38 482.89 183.00 C 472.90 186.71 463.34 192.58 457.09 201.40 C 456.84 198.10 456.49 194.80 455.66 191.59 C 456.78 191.49 457.91 191.39 459.04 191.30 C 458.85 185.31 457.38 179.52 456.25 173.68 C 455.14 169.82 459.11 167.58 461.72 165.68 C 472.09 159.11 482.06 151.91 492.54 145.52 C 508.19 136.40 524.10 127.59 540.99 120.93 Z" />
<path fill="#f4d596" d=" M 631.24 108.28 C 635.39 106.97 639.36 105.16 643.43 103.61 C 642.25 113.45 639.66 123.06 638.33 132.88 C 637.72 135.16 637.90 138.17 635.68 139.59 C 628.46 144.01 620.21 146.35 611.95 147.91 C 601.41 149.92 590.84 152.15 580.08 152.44 C 585.80 141.57 592.18 131.06 598.12 120.30 C 599.73 117.59 600.97 114.54 603.30 112.34 C 612.65 111.44 622.21 111.20 631.24 108.28 Z" />
<path fill="#222222" d=" M 696.03 123.01 C 709.96 121.32 724.60 120.98 737.90 126.12 C 748.97 130.53 756.31 141.13 759.97 152.10 C 765.08 168.07 760.72 185.70 752.17 199.67 C 750.73 193.48 749.72 186.67 745.10 181.90 C 736.00 172.40 722.66 168.27 709.85 167.30 C 703.41 166.71 697.05 168.09 690.91 169.89 C 685.12 171.68 679.01 170.88 673.17 169.82 C 662.87 167.97 652.42 167.07 641.97 166.64 C 642.62 159.03 643.56 151.44 644.92 143.91 C 645.48 141.55 645.86 138.56 648.34 137.41 C 652.28 135.31 656.67 134.30 660.87 132.86 C 672.47 129.20 683.84 124.36 696.03 123.01 Z" />
<path fill="#f4d596" d=" M 402.46 135.75 C 404.26 132.23 406.26 128.20 410.12 126.59 C 413.96 125.89 417.23 128.66 420.00 130.93 C 431.28 140.70 438.36 154.20 444.56 167.53 C 448.76 175.30 452.95 183.15 455.66 191.59 C 456.49 194.80 456.84 198.10 457.09 201.40 C 449.43 209.65 446.10 220.73 443.25 231.35 C 439.05 246.66 440.00 262.91 443.77 278.19 C 446.12 287.29 453.23 293.99 460.18 299.82 C 463.17 302.41 466.91 303.85 470.68 304.87 C 465.92 294.73 466.67 282.59 471.74 272.72 C 480.67 254.68 498.44 242.42 517.26 236.45 C 523.85 234.02 529.61 229.87 535.19 225.69 C 540.89 234.58 550.09 240.65 559.96 244.00 C 583.23 250.52 607.54 252.15 631.60 251.65 C 624.11 263.70 624.68 278.76 627.57 292.14 C 629.54 303.96 633.57 315.60 640.68 325.35 C 643.25 328.69 646.31 331.86 650.26 333.53 C 661.40 337.91 673.85 338.84 685.49 335.94 C 682.80 343.57 681.57 351.61 678.85 359.23 C 676.06 367.13 674.53 375.67 669.65 382.67 C 667.62 385.55 665.24 388.85 661.45 389.29 C 655.58 390.06 648.52 390.55 643.90 386.15 C 640.56 382.29 641.90 376.72 641.51 372.07 C 638.25 374.65 634.61 377.68 634.26 382.16 C 633.43 387.13 637.21 391.45 641.38 393.57 C 646.28 396.16 651.98 395.51 657.32 395.65 C 653.64 398.28 649.92 400.92 645.73 402.68 C 622.48 412.67 597.22 417.38 572.02 418.51 C 564.96 418.39 558.12 420.28 551.23 421.48 C 555.33 423.27 559.29 425.46 563.66 426.57 C 568.60 427.89 573.76 427.36 578.81 427.31 C 581.13 435.10 584.66 442.43 588.28 449.68 C 594.94 463.13 598.86 477.74 601.89 492.38 C 603.88 506.62 603.08 521.22 599.62 535.18 C 594.25 528.99 588.88 522.69 582.20 517.86 C 566.93 506.70 549.54 498.31 531.13 493.89 C 517.93 491.00 504.44 489.86 491.14 487.61 C 493.17 473.12 489.28 458.80 486.39 444.72 C 483.46 432.71 479.78 420.79 474.18 409.73 C 469.40 399.54 463.08 390.21 457.51 380.45 C 453.03 372.63 447.75 365.25 443.84 357.10 C 439.56 348.25 435.78 339.16 432.06 330.06 C 430.12 325.47 428.90 320.63 427.97 315.76 C 430.20 315.69 432.44 315.62 434.67 315.50 C 427.04 307.39 417.93 300.77 410.77 292.20 C 403.31 283.69 397.24 273.81 393.94 262.94 C 387.92 243.98 385.63 223.86 386.68 204.03 C 387.98 189.34 391.23 174.91 394.49 160.55 C 396.47 152.10 398.80 143.65 402.46 135.75 Z" />
<path fill="#f4d596" d=" M 608.03 155.47 C 617.55 154.30 626.97 152.03 635.76 148.15 C 634.41 154.12 635.18 160.89 632.02 166.26 C 607.26 167.16 582.14 169.95 558.75 178.59 C 564.69 170.65 571.39 163.32 577.23 155.30 C 587.48 155.94 597.78 156.13 608.03 155.47 Z" />
<path fill="#222222" d=" M 552.20 160.21 C 557.17 157.20 562.40 154.63 567.91 152.76 C 565.24 159.53 561.33 165.71 558.52 172.42 C 557.13 175.47 555.88 178.95 552.83 180.72 C 549.28 182.89 545.31 184.19 541.48 185.76 C 536.68 181.36 530.48 179.19 524.46 177.09 C 532.96 170.31 542.89 165.73 552.20 160.21 Z" />
<path fill="#111111" d=" M 607.90 176.72 C 617.55 175.41 627.30 176.01 637.00 175.90 C 647.37 175.81 657.66 177.31 668.00 177.84 C 682.01 178.57 696.54 183.26 706.48 193.52 C 715.82 204.77 722.01 218.72 723.81 233.25 C 725.91 250.42 718.85 267.73 707.34 280.29 C 705.17 274.32 703.02 268.11 698.65 263.33 C 689.79 253.29 676.86 247.90 664.03 245.10 C 647.45 241.69 630.46 243.95 613.71 242.56 C 595.13 241.87 575.86 240.59 558.94 232.15 C 551.66 228.63 543.83 224.02 541.03 215.95 C 539.34 210.66 538.44 204.39 541.36 199.37 C 544.32 195.15 549.16 192.85 553.62 190.55 C 570.52 182.17 589.38 179.16 607.90 176.72 Z" />
<path fill="#222222" d=" M 481.98 192.94 C 498.75 185.97 518.53 182.17 535.63 190.23 C 533.81 193.97 531.79 197.68 530.81 201.76 C 529.77 206.36 531.21 211.06 530.74 215.70 C 530.59 217.23 529.16 218.18 528.14 219.15 C 515.24 229.08 498.77 232.87 486.00 243.03 C 475.86 251.02 466.31 261.12 462.98 273.94 C 460.89 281.37 462.50 289.07 463.53 296.53 C 458.28 292.36 454.93 286.37 453.05 280.01 C 448.07 262.85 447.31 244.29 451.97 226.97 C 453.29 221.86 455.62 217.03 458.78 212.80 C 464.91 204.61 472.38 196.96 481.98 192.94 Z" />
<path fill="#9a875f" d=" M 405.78 207.76 C 406.60 202.02 407.85 196.34 409.85 190.88 C 408.94 201.00 408.40 211.15 408.59 221.32 C 408.45 219.89 408.34 218.46 408.25 217.04 C 408.06 213.87 407.97 210.69 407.88 207.51 C 407.36 207.58 406.31 207.70 405.78 207.76 Z" />
<path fill="#6a5d42" d=" M 405.78 207.76 C 406.31 207.70 407.36 207.58 407.88 207.51 C 407.97 210.69 408.06 213.87 408.25 217.04 C 407.50 216.39 406.76 215.75 406.03 215.11 C 405.76 218.20 405.47 221.29 405.28 224.38 C 404.97 218.83 405.27 213.28 405.78 207.76 Z" />
<path fill="#0b0a07" d=" M 406.03 215.11 C 406.76 215.75 407.50 216.39 408.25 217.04 C 408.34 218.46 408.45 219.89 408.59 221.32 C 410.81 236.78 413.82 252.21 418.63 267.09 C 418.99 269.22 419.22 271.36 419.54 273.50 C 413.01 265.07 409.76 254.69 407.11 244.51 C 405.31 237.97 404.92 231.13 405.28 224.38 C 405.47 221.29 405.76 218.20 406.03 215.11 Z" />
<path fill="#d0d0d0" d=" M 641.89 252.47 C 650.04 251.93 658.19 252.85 666.13 254.68 C 668.27 263.52 672.05 271.84 674.34 280.65 C 668.36 279.71 662.26 279.83 656.35 281.14 C 652.11 271.30 647.38 261.68 641.89 252.47 Z" />
<path fill="#93805a" d=" M 418.63 267.09 C 421.68 271.57 423.94 276.53 425.81 281.61 C 423.30 279.34 419.88 277.20 419.54 273.50 C 419.22 271.36 418.99 269.22 418.63 267.09 Z" />
<path fill="#ffffff" d=" M 656.35 281.14 C 662.26 279.83 668.36 279.71 674.34 280.65 C 677.68 293.06 678.13 306.11 676.63 318.84 C 676.15 322.15 675.60 325.67 673.58 328.44 C 671.49 329.93 668.75 329.69 666.34 330.15 C 666.63 324.10 667.15 318.00 666.32 311.98 C 664.42 301.29 660.44 291.14 656.35 281.14 Z" />
<path fill="#000000" d=" M 563.61 283.89 C 568.43 283.47 574.13 282.33 578.12 285.84 C 583.06 290.09 585.43 296.44 587.36 302.49 C 590.56 312.87 591.86 324.04 589.91 334.79 C 586.62 350.92 572.52 363.09 557.06 367.25 C 548.71 369.70 539.53 368.27 532.00 364.05 C 521.38 357.54 513.71 347.29 507.02 337.00 C 500.73 327.55 498.54 316.11 497.65 304.98 C 497.34 301.76 498.13 297.86 501.25 296.25 C 507.77 292.74 515.14 291.13 522.39 289.91 C 536.15 288.08 549.88 285.93 563.61 283.89 Z" />
<path fill="#3a68af" d=" M 641.41 306.13 C 641.97 298.25 644.16 290.49 647.97 283.56 C 655.78 298.44 657.76 315.29 662.89 331.10 C 659.66 331.24 656.39 331.61 653.19 331.09 C 650.10 328.11 648.99 323.73 646.81 320.13 C 644.54 315.70 640.94 311.42 641.41 306.13 Z" />
<path fill="#d0d0d0" d=" M 546.80 294.74 C 554.90 294.09 562.89 291.95 571.05 292.29 C 573.14 292.21 574.37 294.12 575.41 295.65 C 579.60 302.69 580.84 310.94 582.27 318.88 C 573.35 315.90 564.16 313.83 554.78 313.03 C 555.24 316.04 555.70 319.06 556.24 322.06 C 553.05 312.97 549.71 303.92 546.80 294.74 Z" />
<path fill="#ffffff" d=" M 554.78 313.03 C 564.16 313.83 573.35 315.90 582.27 318.88 C 582.40 325.29 582.78 332.04 580.02 338.02 C 574.57 349.20 563.90 357.91 551.43 359.75 C 553.94 355.43 556.82 351.17 557.86 346.21 C 559.41 338.16 558.02 329.95 556.24 322.06 C 555.70 319.06 555.24 316.04 554.78 313.03 Z" />
<path fill="#3a68af" d=" M 534.65 320.58 C 538.02 318.50 541.95 317.65 545.77 316.77 C 549.67 327.61 550.92 339.41 548.83 350.77 C 548.11 354.09 546.37 357.05 544.75 359.99 C 540.10 358.41 535.29 356.79 531.59 353.42 C 525.53 348.03 520.18 341.82 515.85 334.96 C 521.64 329.59 527.91 324.72 534.65 320.58 Z" />
<path fill="#12100b" d=" M 661.53 343.17 C 664.99 345.35 668.51 347.44 671.97 349.62 C 669.43 350.87 666.26 352.66 663.67 350.45 C 660.99 349.03 661.74 345.66 661.53 343.17 Z" />
<path fill="#42133b" d=" M 429.84 441.83 C 441.54 432.15 455.76 425.59 470.74 423.01 C 474.98 432.31 477.23 442.32 479.57 452.23 C 474.14 454.39 468.50 457.43 466.06 463.06 C 461.91 471.08 464.60 481.01 470.68 487.26 C 476.42 494.10 485.75 495.56 494.09 496.82 C 513.70 499.34 533.90 501.32 551.97 509.99 C 564.76 516.12 577.52 523.25 587.25 533.76 C 593.04 539.80 595.12 548.07 597.90 555.71 C 602.29 548.84 606.18 541.54 608.54 533.71 C 612.02 519.73 611.63 505.17 610.45 490.92 C 620.19 508.00 621.18 529.10 615.94 547.79 C 612.59 559.03 608.45 570.31 601.60 579.94 C 595.38 570.27 585.60 563.73 575.62 558.43 C 556.02 548.76 534.10 545.83 512.82 542.06 C 495.06 538.55 477.24 535.18 459.76 530.41 C 445.79 526.67 432.00 520.66 421.44 510.57 C 411.76 500.19 406.43 484.99 410.01 470.95 C 413.06 459.32 420.76 449.46 429.84 441.83 Z" />
<path fill="#222222" d=" M 210.04 457.05 C 226.93 446.29 247.10 441.21 267.00 440.76 C 283.14 440.85 299.74 443.26 314.23 450.74 C 325.45 456.98 335.49 467.04 338.51 479.87 C 333.56 476.65 328.83 473.02 323.43 470.57 C 315.50 466.92 306.76 464.91 298.02 465.00 C 290.40 465.33 282.76 466.37 275.41 468.46 C 263.66 472.34 252.63 478.33 242.77 485.80 C 238.78 488.71 235.59 492.71 231.19 495.06 C 226.78 495.87 222.26 493.54 217.84 494.86 C 209.04 497.28 202.41 504.26 197.93 511.93 C 193.08 519.65 191.26 528.68 188.53 537.25 C 184.28 528.10 184.87 517.82 184.87 508.00 C 184.87 497.89 187.72 488.00 191.84 478.85 C 195.80 470.12 201.78 462.11 210.04 457.05 Z" />
<path fill="#3f1238" d=" M 472.87 459.32 C 474.35 458.41 475.84 457.50 477.33 456.59 C 480.92 459.74 482.15 464.35 482.35 468.97 C 478.84 466.10 475.77 462.78 472.87 459.32 Z" />
<path fill="#3c1135" d=" M 471.31 460.61 C 474.87 465.08 478.70 469.34 482.08 473.94 C 483.96 476.36 484.33 479.47 484.88 482.39 C 478.72 477.37 474.34 470.65 468.96 464.88 C 469.74 463.45 470.52 462.03 471.31 460.61 Z" />
<path fill="#111111" d=" M 274.59 472.51 C 286.45 468.38 299.49 467.47 311.77 470.14 C 323.02 473.26 334.44 479.04 340.58 489.43 C 342.60 493.06 344.76 497.18 344.20 501.46 C 342.70 504.61 339.35 506.29 336.75 508.44 C 334.17 503.05 331.97 497.40 328.45 492.54 C 323.03 485.05 312.83 481.76 303.96 483.96 C 292.33 486.84 282.08 494.91 276.75 505.66 C 269.70 520.02 267.33 536.18 267.13 552.02 C 267.76 565.06 273.69 577.32 281.28 587.73 C 287.72 596.63 296.61 603.34 305.82 609.16 C 312.09 613.37 319.21 616.05 325.73 619.83 C 323.67 623.84 321.55 628.13 317.59 630.61 C 310.48 635.63 301.31 635.63 292.97 635.09 C 272.93 633.56 253.34 625.99 237.73 613.27 C 223.03 601.87 212.89 584.47 211.13 565.86 C 209.45 548.15 210.33 528.82 220.63 513.63 C 225.26 507.65 229.81 501.52 235.33 496.33 C 247.03 486.39 259.92 477.41 274.59 472.51 Z" />
<path fill="#371031" d=" M 470.33 478.36 C 467.17 476.08 467.73 471.72 467.42 468.30 C 472.78 473.41 477.96 478.90 481.32 485.58 C 477.50 483.43 473.83 480.99 470.33 478.36 Z" />
<path fill="#222222" d=" M 302.93 487.83 C 310.44 485.64 319.35 487.32 324.66 493.33 C 328.36 497.11 330.05 502.26 330.73 507.40 C 327.26 502.95 324.59 497.22 319.09 494.96 C 313.73 492.73 307.58 494.73 303.43 498.46 C 295.84 505.21 291.28 514.96 289.81 524.93 C 288.41 534.17 289.38 543.63 291.39 552.71 C 293.06 560.49 296.74 567.60 299.13 575.15 C 291.88 571.31 285.81 565.69 280.20 559.79 C 276.53 555.85 273.17 551.25 272.33 545.80 C 270.27 533.47 273.98 521.09 278.70 509.81 C 283.05 499.43 292.04 490.92 302.93 487.83 Z" />
<path fill="#f4d596" d=" M 342.18 516.14 C 349.58 507.99 360.43 503.45 371.22 502.08 C 383.31 501.05 395.50 502.18 407.45 504.11 C 407.36 510.80 405.94 517.38 405.47 524.04 C 404.20 542.01 402.04 559.95 402.61 577.99 C 402.21 589.03 403.52 600.00 403.87 611.01 C 404.68 621.36 405.94 631.70 408.42 641.79 C 410.26 650.15 413.30 658.18 415.74 666.38 C 409.03 663.06 404.11 657.22 399.41 651.58 C 386.75 633.26 384.49 610.55 378.78 589.60 C 374.42 598.37 374.85 608.76 376.79 618.13 C 380.01 631.39 384.30 644.67 391.92 656.13 C 393.65 658.96 396.44 661.49 396.57 665.01 C 396.84 683.34 397.95 701.65 398.75 719.97 C 401.19 754.31 403.20 788.70 407.59 822.86 C 410.25 846.23 412.39 869.66 415.18 893.02 C 415.69 899.32 417.12 905.62 416.40 911.96 C 416.14 914.87 412.82 914.97 410.61 915.38 C 401.44 916.52 392.20 916.90 382.99 917.57 C 357.98 917.70 332.16 919.27 308.16 910.87 C 304.81 909.76 302.27 906.96 301.16 903.65 C 297.95 894.81 298.85 885.24 299.59 876.06 C 300.96 853.36 303.90 830.80 306.55 808.22 C 307.91 796.31 310.77 784.66 312.80 772.86 C 314.01 765.63 315.63 758.48 317.16 751.31 C 318.43 745.50 318.98 739.54 320.59 733.79 C 324.91 717.77 328.46 701.37 335.50 686.25 C 336.66 684.22 338.12 681.11 340.96 681.77 C 347.90 682.70 354.89 683.07 361.89 682.83 C 364.85 692.13 369.08 700.95 372.58 710.05 C 375.10 695.84 371.28 681.47 365.41 668.57 C 358.21 651.44 347.11 636.09 341.81 618.14 C 334.95 595.48 330.67 571.70 331.90 547.96 C 333.41 536.96 334.36 524.78 342.18 516.14 Z" />
<path fill="#ffffff" d=" M 312.45 502.97 C 315.62 501.51 318.75 504.14 320.08 506.88 C 324.76 515.47 323.78 525.59 323.29 534.99 C 322.19 547.65 323.09 560.37 324.05 573.01 C 325.24 585.59 327.96 597.96 330.48 610.32 C 310.04 604.69 292.72 590.51 281.07 573.04 C 291.21 580.16 301.59 587.47 313.55 591.15 C 314.15 588.68 314.86 586.00 313.57 583.62 C 308.55 573.42 302.66 563.43 299.94 552.28 C 297.33 540.76 296.04 528.24 300.66 517.03 C 303.09 511.41 306.60 505.52 312.45 502.97 Z" />
<path fill="#42133b" d=" M 414.86 516.86 C 424.16 526.39 436.69 531.59 448.98 536.08 C 469.32 542.56 490.41 546.25 511.30 550.49 C 530.60 553.86 550.31 556.62 568.45 564.41 C 570.74 565.56 573.68 566.59 574.51 569.31 C 576.19 574.76 576.69 580.49 578.16 586.00 C 581.08 597.19 582.23 608.72 583.87 620.15 C 585.41 631.13 585.82 642.22 586.76 653.26 C 586.88 655.67 587.13 658.16 586.56 660.55 C 584.58 663.63 581.13 665.32 578.10 667.18 C 571.21 670.89 564.63 675.19 557.41 678.25 C 556.78 668.17 556.39 658.07 555.58 648.00 C 555.18 641.73 553.22 635.65 549.99 630.27 C 548.00 635.25 546.70 640.57 546.99 645.97 C 548.23 669.79 549.89 693.60 552.87 717.27 C 553.67 729.91 555.96 742.38 557.03 755.00 C 558.46 771.62 561.20 788.09 563.66 804.58 C 566.30 817.31 568.00 830.23 571.06 842.89 C 573.73 856.18 578.91 869.43 577.34 883.19 C 577.18 886.91 574.46 890.15 570.65 890.37 C 554.49 892.18 538.21 893.29 521.94 893.36 C 508.97 893.74 495.99 894.30 483.01 894.34 C 477.87 894.17 472.55 894.22 467.68 892.38 C 463.61 890.75 462.38 885.99 462.09 882.05 C 461.30 866.99 462.50 851.88 464.88 837.00 C 467.64 814.18 472.32 791.66 477.33 769.24 C 480.28 756.84 482.26 744.24 484.59 731.72 C 487.96 707.28 489.68 682.62 490.15 657.96 C 490.53 648.47 491.93 638.14 486.70 629.63 C 484.78 634.28 482.94 639.05 482.45 644.10 C 481.31 658.44 481.69 672.88 480.25 687.20 C 473.28 687.23 466.30 686.93 459.43 685.71 C 452.61 684.52 445.57 684.20 438.99 681.90 C 433.38 679.91 429.84 674.75 427.13 669.75 C 420.43 656.99 416.99 642.81 414.39 628.72 C 410.97 603.33 410.42 577.59 411.67 552.02 C 412.77 540.30 412.72 528.47 414.86 516.86 Z" />
<path fill="#787878" d=" M 195.08 562.99 C 196.58 555.53 196.26 547.89 197.37 540.39 C 198.10 549.29 196.49 558.46 199.51 567.08 C 198.14 565.74 195.45 564.96 195.08 562.99 Z" />
<path fill="#42133b" d=" M 585.09 574.62 C 592.46 578.88 595.07 587.30 598.98 594.33 C 602.57 591.25 606.19 588.20 609.49 584.81 C 610.08 592.39 610.84 599.99 612.57 607.42 C 613.97 613.63 615.01 620.35 612.47 626.43 C 608.42 636.27 602.84 645.61 595.29 653.19 C 594.67 644.74 594.20 636.27 593.13 627.86 C 591.57 615.62 590.69 603.26 587.89 591.21 C 586.60 585.75 585.52 580.22 585.09 574.62 Z" />
<path fill="#42133b" d=" M 672.34 592.24 C 686.39 587.81 701.62 591.79 713.97 599.08 C 725.17 605.31 733.35 615.80 738.80 627.23 C 742.69 635.50 746.11 644.12 747.78 653.15 C 751.17 672.92 750.32 693.46 744.83 712.78 C 740.44 729.08 733.99 745.15 723.57 758.57 C 720.09 762.56 715.93 767.51 710.13 767.25 C 705.54 765.78 703.26 760.98 700.78 757.21 C 692.90 743.14 685.93 728.58 679.07 713.99 C 676.53 708.09 673.75 702.27 671.78 696.16 C 670.18 691.61 672.50 687.08 673.46 682.68 C 677.16 665.64 675.25 647.29 667.29 631.70 C 665.87 628.70 662.96 626.95 660.20 625.38 C 660.02 630.28 661.21 635.32 660.11 640.15 C 656.92 645.11 651.37 648.37 645.73 649.82 C 639.21 651.54 632.41 647.34 629.65 641.48 C 627.65 637.11 626.51 632.42 625.29 627.80 C 622.99 619.24 624.60 610.35 625.43 601.71 C 628.97 606.21 633.73 609.96 636.04 615.30 C 636.77 621.20 635.62 627.30 637.34 633.13 C 639.17 625.64 640.91 617.84 645.56 611.51 C 652.30 602.64 661.33 595.01 672.34 592.24 Z" />
<path fill="#ffffff" d=" M 405.38 670.67 C 409.76 672.98 414.30 674.95 418.78 677.06 C 422.97 679.04 425.64 682.96 429.05 685.93 C 432.01 688.54 435.81 689.83 439.45 691.19 C 439.02 696.82 437.78 702.35 437.07 707.95 C 435.73 724.66 433.49 741.28 432.04 757.99 C 430.31 778.65 425.13 798.80 422.16 819.28 C 420.65 828.21 419.33 837.18 418.56 846.21 C 416.40 823.78 413.19 801.46 411.48 778.98 C 409.83 758.88 408.55 738.74 407.13 718.62 C 406.09 710.78 406.87 702.84 405.89 695.00 C 405.25 686.91 405.30 678.78 405.38 670.67 Z" />
<path fill="#c3ab78" d=" M 445.58 692.26 C 456.75 694.70 468.23 695.18 479.63 694.88 C 479.65 707.31 477.83 719.63 475.94 731.88 C 473.02 751.95 468.05 771.64 463.80 791.45 C 460.22 809.99 457.23 828.66 455.05 847.42 C 453.45 857.20 453.23 867.15 453.43 877.04 C 453.57 882.76 454.93 888.36 456.64 893.80 C 447.59 893.48 438.41 891.86 430.33 887.62 C 427.80 886.33 425.37 884.10 425.39 881.05 C 424.93 873.70 425.39 866.32 425.64 858.97 C 427.81 834.54 431.95 810.34 436.54 786.26 C 440.24 767.35 441.26 748.06 443.52 728.95 C 444.74 716.75 445.79 704.53 445.58 692.26 Z" />
<path fill="#f4d596" d=" M 654.63 720.32 C 656.67 713.80 661.46 708.65 665.07 702.98 C 672.75 721.16 681.41 738.91 690.61 756.36 C 693.96 762.89 698.22 768.94 703.32 774.22 C 697.75 782.20 691.25 789.65 683.49 795.56 C 681.23 797.39 677.22 798.82 675.51 795.54 C 668.87 785.38 664.68 773.79 661.00 762.29 C 656.98 748.71 652.69 734.63 654.63 720.32 Z" />
<path fill="#f4d596" d=" M 533.00 901.65 C 547.09 901.57 561.10 899.92 575.08 898.32 C 577.78 903.90 580.45 909.53 582.08 915.54 C 568.44 917.13 554.68 916.04 541.00 916.29 C 522.33 916.33 503.67 916.22 485.01 916.48 C 480.32 916.61 475.66 916.05 471.05 915.26 C 471.26 910.95 471.32 906.64 471.19 902.33 C 480.12 902.65 489.06 902.47 497.99 902.48 C 509.67 902.29 521.36 902.65 533.00 901.65 Z" />
<path fill="#cfb57f" d=" M 475.20 903.55 C 484.11 901.73 493.27 902.71 502.24 903.46 C 493.25 904.12 484.17 904.79 475.20 903.55 Z" />
</svg>
