<?xml version="1.0" standalone="no"?>
<!DOCTYPE svg PUBLIC "-//W3C//DTD SVG 1.1//EN" "http://www.w3.org/Graphics/SVG/1.1/DTD/svg11.dtd">
<svg width="374px" height="650px" version="1.1" xmlns="http://www.w3.org/2000/svg" xmlns:xlink="http://www.w3.org/1999/xlink" xml:space="preserve" style="fill-rule:evenodd;clip-rule:evenodd;stroke-linejoin:round;stroke-miterlimit:1.41421;">
    <g>
        <g>
            <path d="M362.745,168.017C361.208,159.893 357.056,152.6 354.324,144.839C352.409,139.399 350.445,133.914 347.817,128.802C340.895,115.336 334.261,101.732 327.497,88.191C324.78,82.751 322.177,77.19 318.29,72.277C313.661,66.427 309.043,60.593 304.314,54.826C297.735,46.804 290.552,39.614 282.765,32.873C274.814,25.99 265.737,21.431 255.737,18.296C250.363,16.611 244.864,15.488 239.489,13.85C233.911,12.15 228.188,10.929 222.385,10.306C208.017,8.764 194.436,12.116 181.788,18.464C170.08,24.34 158.931,31.335 147.57,37.895C145.569,39.051 143.582,40.223 141.729,41.672C133.621,48.011 125.349,54.142 117.225,60.461C108.39,67.332 101.162,75.819 93.938,84.268C89.439,89.53 85.305,95.102 80.936,100.477C80.254,101.316 79.3766,103.536 78.2366,102.903C75.0349,102.371 72.721,101.865 69.987,101.002C63.275,98.883 56.347,97.427 49.69,95.163C47.006,94.25 44.937,94.855 43.382,96.346C41.602,98.053 40.949,100.436 42.378,103.099C44.55,107.145 46.364,111.31 49.808,114.611C52.829,117.507 56.096,120.291 58.366,124.082C54.392,125.725 50.996,127.713 47.623,129.81C38.086,135.741 29.358,143.237 17.631,145C15.308,145.349 13.164,147.277 12.57,149.926C11.632,154.112 14.313,157.282 18.888,157.484C23.354,157.681 27.708,158.758 32.119,159.163C38.466,159.746 44.757,161.675 51.293,159.774C53.693,159.076 56.506,158.654 59.443,159.724C58.185,161.946 57.085,164.151 55.75,166.199C47.966,178.152 43.448,191.545 38.754,204.843C36.995,209.827 40.813,214.303 45.705,213.461C47.668,213.123 48.811,211.845 49.859,210.225C52.42,206.265 54.646,202.04 58.368,198.279C58.89,203.632 57.426,208.25 57.023,212.957C56.557,218.403 55.459,223.799 55.526,229.288C55.566,232.587 57.455,234.894 60.258,235.453C63.208,236.042 65.687,234.832 67.223,231.896C67.917,230.57 68.383,229.125 69.019,227.572C71.181,230.839 70.342,234.335 70.938,237.565C72.256,244.705 73.155,251.923 74.299,259.097C74.503,260.377 73.761,260.883 72.965,261.478C71.504,262.57 70.201,261.594 68.835,261.193C63.815,259.718 58.933,259.922 54.907,263.55C47.371,270.342 40.82,277.997 36.405,287.225C34.367,291.485 33.156,296.096 35.871,300.495C38.281,304.399 40.994,308.149 45.345,310.297C46.789,311.01 48.487,311.937 48.444,313.831C48.395,316.004 49.686,317.499 50.438,319.296C51.956,322.922 55.441,325.707 54.846,330.322C54.706,331.408 56.248,332.887 57.286,333.911C59.39,335.986 61.545,338.065 64.47,338.859C64.47,339.353 64.568,339.712 64.456,339.984C60.339,349.996 68.512,359.504 77.516,360.451C80.739,360.79 82.99,361.948 84.756,364.814C93.096,378.348 103.404,390.427 113.368,402.748C114.982,404.743 116.643,406.916 119.297,407.843C121.666,408.67 121.942,409.836 120.678,412.229C116.294,420.528 112.389,429.081 108.007,437.381C106.226,440.754 106.371,443.362 108.704,446.368C112.125,450.775 114.78,455.779 119.052,459.519C120.654,460.921 121.122,462.4 119.706,464.253C114.049,471.657 110.974,480.145 108.796,489.131C107.763,493.395 107.944,497.722 107.097,501.927C103.757,518.516 106.248,535.161 106.771,551.747C106.961,557.756 108.6,563.927 110.114,569.876C113.599,583.572 116.781,597.408 123.833,609.903C125.058,612.073 126.078,614.363 127.136,616.623C131.277,625.465 138.45,628.953 148.171,627.092C150.831,626.583 153.432,625.375 156.056,625.536C156.582,627.546 156.946,629.147 157.422,630.714C158.471,634.168 160.329,636.352 164.049,637.899C167.843,639.477 171.659,639.91 175.5,640.744C184.213,642.635 192.719,641.654 201.141,639.115C202.443,638.722 203.591,638.103 204.581,637.164C207.968,633.953 211.453,630.811 214.229,627.048C217.304,622.879 220.568,618.304 220.537,613.177C220.495,606.149 221.238,599.217 221.687,592.259C222.385,581.442 221.425,570.658 221.611,559.86C221.819,547.791 219.251,536.061 217.135,524.297C215.903,517.45 214.177,510.701 212.084,504.012C209.557,495.936 206.736,487.927 205.132,479.54C204.263,474.995 205.377,471.8 207.896,468.055C211.793,462.261 216.531,458.638 223.229,456.388C231.325,453.669 236.932,447.46 240.813,439.798C242.722,436.028 243.858,432 245.121,428.004C246.331,424.174 249.62,421.424 250.222,417.117C250.631,414.189 252,410.964 253.961,408.796C256.324,406.183 257.819,403.233 259.117,400.195C261.904,393.669 264.103,386.616 262.177,379.704C259.601,370.459 256.594,361.25 252.147,352.634C248.611,345.784 245.611,338.715 243.002,331.444C240.913,325.623 238.049,320.097 234.731,314.742C235.733,314.351 236.8,313.912 237.883,313.516C255.108,307.211 271.575,299.278 287.578,290.355C289.158,289.474 290.716,288.565 292.173,287.425C298.537,282.443 305.031,277.627 311.443,272.704C323.042,263.798 334.083,254.247 343.439,242.966C349.402,235.777 355.02,228.385 358.776,219.579C362.505,210.835 364.715,201.895 365.479,192.528C366.158,184.202 364.273,176.092 362.745,168.017ZM142.877,331.487C137.852,336.703 132.933,341.984 128.131,349.02C127.127,344.07 124.263,341.618 121.556,339.103C119.955,337.615 119.206,336.032 119.466,333.885C120.223,327.641 118.902,322.101 114.102,317.65C113.075,316.697 113.013,315.114 113.594,313.932C114.436,312.219 114.134,310.285 114.808,308.663C116.098,305.558 114.954,302.864 113.138,300.865C109.711,297.092 108.191,292.557 106.268,287.195C118.371,292.481 130.426,295.086 142.313,298.057C148.02,299.483 151.353,302.649 154.189,307.19C156.183,310.383 158.083,313.602 159.284,317.552C153.085,321.224 147.922,326.25 142.877,331.487Z" style="fill:white;fill-rule:nonzero;"/>
        </g>
        <g>
            <path d="M203.496,17.537C209.64,15.935 215.834,15.115 222.159,16.34C227.002,17.278 231.989,17.531 236.636,19.396C239.421,21.576 242.777,22.5 246.042,23.576C265.448,29.967 280.475,42.613 294.062,57.261C300.394,64.088 305.911,71.613 311.84,78.786C316.229,84.096 318.531,90.571 320.973,96.931C320.976,103.447 324.337,109.034 325.981,115.093C328.689,125.076 334.285,138.913 332.509,149.375C331.808,153.502 330.548,156.4 330.638,160.549C330.755,165.935 326.6,167.419 323.108,171.327C316.373,178.864 312.105,184.123 302.441,185.925C289.742,188.292 275.849,181.612 267.033,173.085C262.752,168.945 257.84,165.454 254.035,160.793C252.519,159.726 251.241,158.45 250.457,156.74C249.972,155.5 249.552,154.16 248.652,153.198C240.044,144.009 232.847,133.577 222.673,125.736C216.057,120.637 209.882,115.371 201.695,112.712C196.878,111.147 188.413,107.658 183.536,105.589C167.876,98.9425 156.845,94.3679 140.034,94.1589C137.283,94.1247 134.513,94.1818 131.723,94.332C125.415,94.671 119.114,95.029 112.823,95.584C109.423,95.884 106.622,94.75 104.224,92.416C100.804,89.088 100.741,86.524 103.998,83.031C106.493,80.354 109.325,78.006 111.656,75.171C115.965,69.819 121.322,65.673 127.023,61.947C138.929,54.166 149.691,44.508 163.424,39.72C170.074,32.701 179.699,30.387 187.186,24.694C192.052,20.993 198.469,20.852 203.496,17.537Z" style="fill:rgb(66,19,59);fill-rule:nonzero;"/>
            <path d="M110.578,540.524C110.201,532.089 109.229,523.626 109.628,515.228C109.97,508.046 111.107,500.806 113.234,493.819C114.482,489.718 115.406,485.515 116.737,481.444C118.802,475.128 121.736,469.253 126.422,464.402C132.187,468.002 138.25,471.026 144.482,473.722C146.485,475.273 148.426,476.928 150.943,477.646C152.313,478.29 153.469,479.195 154.37,480.418C155.166,482.102 155.319,483.808 154.522,485.54C155.785,494.691 155.368,503.899 155.318,513.082C155.279,520.26 156.147,527.312 156.989,534.416C158.565,547.708 161.916,560.711 163.184,574.033C163.53,577.668 163.331,581.357 163.346,585.021C163.376,592.508 163.382,599.995 163.397,607.481C159.735,605.54 161.331,602.135 161.088,599.24C161.299,595.772 161.128,592.304 161.229,588.264C152.596,593.629 143.859,595.556 134.534,591.692C126.443,588.339 120.637,582.938 118.419,574.084C117.335,569.758 115.745,565.581 114.965,561.138C114.236,556.982 115.264,553.678 118.035,550.641C122.219,546.055 122.109,545.764 116.138,543.615C114.112,542.888 111.98,542.367 110.578,540.524Z" style="fill:rgb(58,104,175);fill-rule:nonzero;"/>
            <path d="M169.408,588.601C168.139,586.847 168.475,584.772 168.456,582.852C168.37,574.253 166.755,565.835 165.817,557.334C164.696,547.181 162.363,537.117 163.589,526.729C165.245,512.702 164.386,498.581 164.522,484.499C165.179,483.438 164.337,482.174 164.971,481.105C165.336,480.167 165.825,479.308 166.553,478.597C172.049,475.314 178.536,475.351 184.409,473.298C186.252,472.654 188.234,472.351 190.121,471.791C193.31,470.703 195.75,468.022 198.366,468.667C198.022,476.786 201.095,484.265 202.903,491.958C204.374,498.218 206.894,504.23 208.4,510.483C210.18,517.873 211.512,525.376 212.452,532.942C212.932,536.808 213.827,540.623 214.534,544.462C212.827,549.585 214.494,554.745 215.414,559.536C219.386,580.223 196.583,597.341 179.003,590.103C177.012,589.283 174.611,588.985 173.134,587.509C170.81,585.19 170.373,587.359 169.408,588.601Z" style="fill:rgb(58,104,175);fill-rule:nonzero;"/>
            <path d="M82.381,264.38C81.427,261.205 79.6782,258.032 79.1189,254.66C77.9609,247.68 75.674,227.159 75.433,222.5L75.47,222.561C75.169,217.55 73.817,212.692 73.305,207.716C73.397,206.191 73.887,204.741 74.781,203.552C81.331,194.842 87.19,185.582 96.51,179.255C105.558,173.113 114.124,166.285 122.661,159.436C138.465,149.496 155.327,142.436 174.009,140.047C181.494,139.09 188.877,138.11 196.047,141.423C197.647,142.234 199.358,142.727 201.072,143.208C211.344,148.092 219.235,155.529 226.106,164.618C236.61,178.512 243.124,194.171 248.613,210.425C249.092,211.845 249.476,213.294 249.208,214.826C248.269,217.768 248.523,221.13 246.27,223.646C244.054,222.862 243.817,220.91 243.308,219.208C241.925,214.58 240.395,209.977 239.358,205.269C235.149,186.159 223.697,171.838 209.392,159.354C206.005,156.398 202.548,153.522 199.144,150.586C196.927,149.292 194.435,148.93 191.847,147.966C183.753,148.947 175.595,149.232 167.509,150.24C164.21,150.651 160.95,151.378 157.889,152.813C140.692,160.878 124.142,170.08 107.707,179.626C95.153,186.918 91.792,197.363 93.073,210.223C93.965,219.179 93.421,228.184 94.734,237.112C95.208,240.335 96.299,243.064 97.65,245.965C103.028,257.522 113.85,262.669 123.721,269.074C130.79,273.661 138.362,276.459 146.471,278.814C165.698,284.398 185.228,284.538 204.897,284.162C208.893,284.086 212.892,284.159 216.886,284.127C218.587,284.241 220.14,283.771 221.663,283.027C231.789,278.084 241.522,272.373 251.737,267.606C255.297,265.945 257.213,261.744 261.563,261.353C262.917,264.547 259.989,266.334 259.129,268.805C248.807,280.833 235.235,287.686 220.656,292.944C217.179,294.365 213.48,294.905 209.847,295.732C204.938,296.216 200.074,297.178 195.11,297.023C188.99,297.037 182.873,297.123 176.758,296.914C167.188,296.994 157.72,295.63 148.213,294.887C140.602,294.003 132.783,291.043 125.445,289.059C121.328,288.761 88.7835,276.476 86.822,271.053C84.564,269.349 82.824,267.294 82.381,264.38Z" style="fill:rgb(244,213,150);fill-rule:nonzero;"/>
            <path d="M122.716,160.605C116.306,166.533 109.316,171.744 102.124,176.641C94.274,181.987 87.22,188.049 81.838,195.949C79.434,199.478 76.074,202.332 74.442,206.41C73.609,207.366 71.5366,211.167 71.1066,212.006C69.1376,215.845 66.66,219.321 64.701,223.165C64.195,224.159 63.948,225.695 62.523,225.476C60.873,225.223 61.706,223.626 61.492,222.599C60.958,220.038 62.299,217.749 62.532,215.29C63.962,200.204 67.401,185.639 73.98,171.872C72.763,170.732 72.272,172.093 71.763,172.728C64.063,182.317 55.87,191.51 48.635,201.473C48.156,202.133 47.608,202.756 47.016,203.315C46.829,203.492 46.214,203.547 46.104,203.41C45.827,203.066 45.453,202.423 45.596,202.173C48.734,196.678 49.467,190.279 52.359,184.661C58.037,173.63 63.749,162.628 71.001,151.081C61.736,153.713 53.138,154.775 44.56,154.67C35.96,154.565 27.443,152.772 18.277,151.194C19.902,150.527 20.886,149.92 21.945,149.722C28.779,148.446 34.622,145.118 40.271,141.259C48.339,135.748 56.581,130.508 65.548,126.532C66.333,126.184 67.003,125.763 67.458,125.089C61.15,116.904 51.572,111.38 47.556,100.461C53.428,102.118 58.796,103.586 64.135,105.153C69.252,106.656 74.513,107.256 79.769,107.97C80.977,108.134 81.651,107.751 82.385,107.1C83.367,106.228 84.308,105.309 85.266,104.41C85.696,104.161 87.096,104.066 87.14,104.284C87.946,108.314 90.256,106.207 92.448,106.206C96.417,106.205 100.274,105.409 104.15,104.686C106.38,104.27 108.709,103.651 110.672,105.541C110.558,107.28 109.149,107.553 107.9,107.86C99.57,109.911 91.257,112.087 82.575,111.86C74.794,111.075 66.999,110.311 58.612,107.017C63.631,111.28 67.842,114.758 72.787,117.341C75.196,118.599 78.69,119.346 77.454,123.683C77.11,124.891 79.171,124.612 79.961,125.299C80.563,125.822 82.4028,126.172 82.2678,127.192C82.1378,128.175 80.357,128.305 79.582,128.531C77.983,128.998 76.362,129.475 74.7,129.565C68.092,129.925 61.869,131.497 56.278,135.398C61.358,134.949 66.402,135.351 71.402,136.304C72.829,136.576 74.75,136.494 74.771,138.511C74.792,140.436 72.863,140.544 71.496,141C69.071,141.807 66.532,141.315 63.995,141.601C63.784,141.766 63.917,141.596 64.388,141.648C66.65,141.896 73.2958,139.883 73.1658,143.132C73.0308,146.51 66.188,144.723 64.373,145.576C69.585,146.139 74.36,143.115 79.493,141.554C83.073,140.465 84.5347,137.194 85.5397,140.825C85.8277,141.865 85.436,146.954 87.353,145.735C89.187,144.569 91.548,143.999 92.942,142.506C95.947,139.288 99.861,139.683 103.532,139.012C104.658,138.806 105.98,138.578 106.677,139.836C107.469,141.266 106.609,142.502 105.653,143.393C102.227,146.588 99.295,150.194 96.396,153.852C93.776,157.157 92.214,161.038 90.179,164.661C89.693,165.526 89.368,166.522 90.421,167.727C94.425,166.132 97.434,163.02 100.519,160.121C103.327,157.483 106.204,154.986 109.522,153.028C110.946,152.188 112.773,150.884 114.034,152.426C115.532,154.258 113.228,155.224 112.163,156.285C106.688,161.742 100.174,166.125 95.164,172.532C103.245,167.541 110.1,161.29 118.583,157.568C120.244,156.839 121.776,155.709 123.734,155.92C126.299,158.109 122.951,159.019 122.716,160.605Z" style="fill:rgb(17,17,17);fill-rule:nonzero;"/>
            <path d="M198.366,468.669C198.134,468.765 192.868,472.165 191.012,472.509C190.853,472.538 190.685,472.514 190.521,472.515C187.051,472.414 184.453,470.473 181.895,468.447C180.696,467.512 178.673,467.675 178.221,465.731C179.06,464.104 178.658,462.579 177.818,461.081C174.444,451.322 175.998,441.267 176.349,431.365C176.554,425.564 177.012,419.751 177.063,413.931C176.329,403.682 178.851,393.674 179.346,383.513C179.395,382.516 179.844,381.613 180.529,380.867C182.599,379.553 182.993,380.57 182.864,382.483C183.432,379.855 180.968,375.836 186.002,375.136C188.11,376.413 187.84,378.574 187.803,380.501C187.728,384.358 188.436,388.119 188.834,391.92C189.198,395.395 191.109,397.356 194.421,398.023C196.539,398.449 198.657,398.929 200.823,399.057C206.633,399.401 210.383,396.793 211.999,391.247C212.554,389.342 212.702,387.295 214.048,385.68C215.823,384.657 216.414,385.974 217.059,387.196C218.715,392.924 215.708,397.375 212.969,401.872C211.804,403.785 209.863,404.225 207.789,403.969C202.958,403.373 198.725,404.322 195.621,408.402C191.179,417.818 190.906,422.461 193.839,430.157C190.619,423.409 191.812,415.801 195.693,408.354C199.777,403.341 204.95,402.96 210.651,404.806C210.749,406.032 209.852,406.724 208.977,407.015C203.653,408.786 203.485,412.969 203.78,417.514C204.329,425.968 209.653,432.891 217.647,435.773C219.795,436.547 223.856,436.529 223.188,439.465C222.398,442.934 218.686,440.955 216.244,440.686C210.825,440.089 207.772,435.822 203.823,432.163C207.05,438.933 211.902,442.152 219.126,442.313C223.999,442.422 226.54,439.087 229.681,436.496C230.191,436.075 230.495,435.321 230.125,434.697C229.645,433.888 228.722,433.884 227.888,433.954C225.579,434.148 223.313,434.984 220.96,434.491C219.304,434.144 217.413,433.684 217.234,431.737C217.034,429.572 219.137,428.821 220.643,428.883C228.248,429.195 232.837,424.532 237.338,419.446C238.823,417.768 240.303,415.714 243.072,416.005C244.303,416.419 244.064,417.577 244.329,418.48C242.547,423.091 240.389,427.561 239.093,432.355C237.792,437.166 235.055,440.981 231.148,444.025C228.784,445.867 226.441,447.738 224.148,449.667C221.355,452.016 218.234,453.303 214.529,453.143C211.038,452.992 208.446,454.453 206.835,457.637C204.707,461.841 201.696,465.382 198.366,468.669Z" style="fill:rgb(41,9,36);fill-rule:nonzero;"/>
            <path d="M320.482,96.507C317.764,93.344 316.391,89.41 314.733,85.713C313.776,83.58 312.773,81.537 311.272,79.872C306.861,74.978 303.046,69.617 298.877,64.542C291.142,55.124 282.645,46.485 272.564,39.441C267.72,36.056 263.222,32.17 257.837,29.62C253.541,27.585 249.168,25.711 244.567,24.452C241.397,23.584 238.757,21.711 235.997,20.059C235.987,20.053 236.105,19.763 236.211,19.653C236.322,19.538 236.492,19.481 236.636,19.398C249.102,18.5438 286.923,40.2767 293.144,51.338C294.186,52.225 294.976,53.243 295.801,54.262C301.56,61.371 307.596,68.282 312.938,75.693C318.168,82.948 322.145,91.032 326.456,98.875C328.21,102.066 329.707,105.402 331.533,108.549C342.142,126.829 348.916,146.769 356.542,166.333C358.604,171.623 358.534,177.401 359.388,182.956C361.26,195.129 358.436,206.617 353.444,217.637C347.591,230.558 338.549,241.049 328.391,250.807C316.344,262.38 302.785,272.04 289.777,282.401C288.998,283.021 288.179,283.612 287.313,284.099C267.94,295.008 247.873,304.38 226.732,311.358C226.113,311.562 225.415,311.525 224.754,311.601C223.443,312.27 223.084,314.075 221.464,314.377C218.401,314.881 215.203,314.87 212.683,317.216C211.854,317.988 210.517,318.493 209.577,317.367C208.445,316.012 209.49,314.902 210.425,313.954C211.939,312.42 213.995,311.685 216.063,310.605C212.547,307.952 208.328,309.671 204.944,307.886C203.59,305.564 205.464,305.034 206.952,304.526C208.508,303.994 210.166,304.16 211.776,304.475C218.477,308.353 224.955,306.071 231.803,304.409C245.429,301.102 257.303,293.936 270.003,288.596C284.574,282.469 296.5,272.767 308.581,263.106C316.852,257.893 323.149,250.536 329.777,243.535C335.029,239.416 338.872,234.184 341.846,228.26C344.207,224.63 346.611,221.038 349.106,217.501C353.349,211.484 352.517,204.124 354.19,197.422C357.673,183.466 352.129,170.904 348.737,157.937C344.753,142.711 336.132,129.767 328.871,116.144C326.71,109.328 322.179,103.522 320.482,96.507Z" style="fill:rgb(26,6,21);fill-rule:nonzero;"/>
            <path d="M210.506,619.512C208.552,623.701 206.378,627.635 202.768,630.804C199.446,633.72 195.713,635.149 191.524,635.425C184.04,635.918 176.612,635.284 169.303,633.514C162.553,631.88 160.05,625.901 163.555,619.81C163.72,619.523 163.815,619.164 164.046,618.949C168.592,614.714 169.605,609.32 169.197,603.442C169.175,603.131 169.367,602.806 169.459,602.487C176.073,601.111 182.261,601.215 188.723,604.368C195.824,607.833 202.942,606.18 208.976,600.793C210.385,599.535 210.739,598.174 210.039,596.422C208.758,596.964 208.632,598.278 207.948,599.166C206.987,600.413 205.949,601.598 204.236,600.889C202.56,600.196 201.996,598.487 201.526,596.915C200.935,594.939 202.655,594.853 203.858,594.491C205.213,594.083 206.135,593.16 206.979,592.124C208.681,590.034 210.813,589.619 213.236,590.56C215.786,591.551 216.733,593.692 216.431,596.171C215.451,604.193 214.348,612.207 210.506,619.512Z" style="fill:rgb(12,38,106);fill-rule:nonzero;"/>
            <path d="M110.538,105.518C107.916,105.411 105.376,105.611 102.82,106.446C97.518,108.176 81.9021,108.622 82.0781,107.638C82.3361,106.192 85.833,104.741 85.268,104.411C92.76,94.024 100.581,83.922 110.249,75.41C111.009,74.966 111.756,74.883 112.476,75.494C110.245,78.853 106.98,81.241 104.307,84.186C101.718,87.039 102.545,89.568 104.335,90.925C106.508,92.5725 113.12,93.67 117.347,94.071C121.452,94.4604 125.571,93.2811 129.694,93.331C137.06,93.4202 151.188,92.2222 161.542,94.606C173.011,97.2465 196.46,108.007 198.505,109.174C208.303,114.766 207.372,113.616 207.682,113.719C212.601,115.365 221.273,123.193 221.883,123.692C226.59,127.542 232.015,130.872 235.645,135.577C239.124,140.086 243.026,144.246 246.418,148.822C248.256,151.303 255.257,157.575 255.506,161.102C254.525,161.699 249.607,156.704 248.698,156.306C248.272,156.07 247.884,155.777 247.532,155.441C240.717,147.455 232.976,140.394 225.464,133.085C219.696,127.472 212.855,123.523 206.445,118.895C203.446,116.729 200.169,115.152 196.66,114.015C190.586,108.88 183.168,106.451 175.85,103.971C161.725,99.185 147.078,98.345 132.299,98.831C130.461,98.891 128.877,99.008 127.407,100.589C125.046,103.128 121.364,103.056 118.355,104.367C116.536,105.262 114.598,105.781 112.618,106.169C111.834,106.243 111.118,106.096 110.538,105.518Z" style="fill:rgb(36,7,32);fill-rule:nonzero;"/>
            <path d="M130.507,402.326C130.167,402.359 129.827,402.392 129.486,402.425C124.113,404.26 121.304,400.646 118.038,397.395C112.438,391.82 108.442,384.861 102.424,379.679C97.626,374.524 94.172,368.436 90.486,362.508C90.137,359.879 87.235,357.625 90.486,354.269C83.895,355.087 78.632,354.126 73.431,352.661C67.833,348.023 67.829,343.002 73.421,338.738C74.068,338.245 74.722,337.76 75.372,337.271C75.816,337.075 76.236,337.118 76.635,337.398C76.427,340.173 79.173,340.961 80.303,342.836C81.501,346.678 83.998,348.49 88.128,348.34C90.77,348.244 93.412,348.769 96.095,348.714C99.865,348.636 101.948,350.74 100.324,353.988C96.23,362.175 101.909,366.562 106.409,371.122C111.429,376.21 117.45,380.145 123.811,383.548C126.974,385.24 129.333,384.85 131.931,382.602C138.116,377.248 142.292,370.556 145.797,363.267C146.751,361.282 146.587,357.421 150.742,358.405C152.03,360.436 150.891,362.2 150.141,364.013C145.977,374.081 141.431,383.988 137.406,394.115C136.024,397.594 133.611,400.264 130.507,402.326Z" style="fill:rgb(41,9,36);fill-rule:nonzero;"/>
            <path d="M210.506,619.512C212.049,613.845 214.009,608.301 215.093,602.493C215.529,600.154 215.493,597.872 215.432,595.584C215.385,593.842 215.071,591.97 212.727,591.496C210.554,591.057 208.408,590.66 207.564,593.394C206.624,596.443 204.276,595.805 202.048,595.458C201.936,597.135 203.321,597.483 203.858,598.395C205.425,601.053 205.546,601.08 206.897,598.638C207.613,597.344 208.274,596.035 208.653,594.562C209.069,592.945 210.558,593.41 211.569,593.674C212.631,593.951 212.373,594.895 211.906,595.668C210.807,597.485 212.081,599.145 212.376,601.038C209.384,602.014 206.83,603.371 204.485,605.647C202.121,607.941 198.367,608.154 195.115,607.195C193.468,606.709 191.907,606.516 190.264,606.513C189.082,606.511 188.036,606.403 187.037,605.565C183.535,602.63 179.569,601.713 175.155,603.189C173.145,603.861 171.252,603.577 169.459,602.488C169.442,597.859 169.426,593.231 169.409,588.602C169.491,587.117 169.574,585.633 169.674,583.829C175.594,588.248 182.154,590.264 189.296,590.519C191.143,590.585 192.862,590.269 194.607,589.6C201.041,587.136 206.374,583.301 210.692,577.876C213.35,574.537 213.66,570.512 214.201,566.734C214.873,562.036 214.979,557.172 213.975,552.388C213.42,549.744 212.474,546.968 214.534,544.463C214.9,549.844 215.165,555.238 216.509,560.499C217.196,573.571 217.276,586.645 216.609,599.721C216.087,605.477 214.505,610.985 212.689,616.436C212.279,617.67 211.945,618.993 210.506,619.512Z" style="fill:rgb(24,55,121);fill-rule:nonzero;"/>
            <path d="M110.577,540.524C113.691,541.516 116.78,542.603 119.933,543.452C121.16,543.782 122.039,544.411 122.767,545.309C123.702,546.462 124.039,547.593 122.388,548.555C121.542,549.048 120.814,549.761 120.075,550.421C116.846,553.303 115.115,556.305 116.301,561.172C117.848,567.522 118.886,573.978 122.125,579.746C125.6,585.936 131.09,589.565 137.824,591.478C146.614,593.975 154.34,591.755 161.355,586.259C161.578,586.085 161.964,586.119 162.393,586.031C162.393,590.536 162.393,595.016 162.393,599.497C159.582,598.538 160.296,596.627 161.104,594.663C158.986,596.646 156.316,598.193 159.956,601.485C161.966,603.302 159.719,604.418 158,604.565C154.851,604.834 151.734,605.662 148.599,605.604C142.028,605.482 135.732,606.801 129.477,608.551C125.148,603.355 122.931,597.071 120.88,590.822C119.244,585.838 117.95,580.732 117.233,575.428C116.651,571.122 114.842,566.954 113.888,562.587C112.291,555.278 110.814,548.012 110.577,540.524Z" style="fill:rgb(24,55,121);fill-rule:nonzero;"/>
            <path d="M52.776,275.422C53.104,275.308 53.325,275.087 53.437,274.758C55.235,271.743 57.857,269.537 60.606,267.456C64.024,266.568 67.475,265.316 70.543,268.344C75.237,271.598 79.552,275.334 83.988,278.918C89.321,284.091 94.513,289.407 99.79,294.638C101.074,295.91 105.403,299.925 105.931,302.011C107.521,306.389 109.561,310.247 106.865,314.522C106.67,314.944 106.433,315.345 106.181,315.734C104.412,318.634 101.768,320.905 100.239,323.986C99.871,324.612 99.398,325.143 98.845,325.609C95.83,327.236 93.481,331.153 89.192,328.454C88.172,327.053 87.567,325.266 85.693,324.635C84.211,323.929 82.778,323.165 82.146,321.503C82.102,321.027 82.221,320.593 82.495,320.201C87.84,317.576 92.252,313.995 94.609,308.321C95.695,305.77 98.296,303.641 96.783,300.386C96.295,299.425 95.567,298.653 94.809,297.905C92.519,295.564 90.195,293.259 87.842,290.98C85.291,288.715 83.4,285.725 80.24,284.149C78.99,283.75 77.986,282.967 77.046,282.085C76.147,281.213 75.092,280.549 74.043,279.874C72.825,278.954 71.788,277.833 70.608,276.869C64.718,272.88 63.019,273.13 58.776,278.79C55.9,282.627 53.523,286.794 51.001,290.864C49.151,293.023 50.054,294.803 51.732,296.52C54.285,299.132 56.953,301.634 59.433,304.313C60.6,305.573 62.433,306.669 61.454,308.927C60.042,310.24 58.417,310.68 56.549,310.137C52.709,307.526 49.06,304.652 45.558,301.613C41.333,297.946 40.71,294.274 43.185,289.254C45.696,284.17 49.035,279.656 52.776,275.422Z" style="fill:rgb(233,233,233);fill-rule:nonzero;"/>
            <path d="M128.356,460.793C127.218,459.773 126.772,458.291 125.319,457.344C122.647,455.602 120.324,453.305 118.683,450.46C118.781,449.956 118.779,449.392 118.423,449.056C112.931,443.869 114.044,438.504 117.626,432.768C123.512,423.34 128.021,413.194 132.519,403.055C133.118,401.706 133.683,400.235 135.576,400.263C137.163,401.128 137.576,402.674 137.01,404.101C135.276,408.468 136.824,412.101 139.158,415.648C138.999,419.491 137.506,422.956 135.971,426.378C134.682,429.252 133.727,432.172 133.642,435.34C133.59,435.857 133.481,436.362 133.346,436.861C132.893,443.034 129.69,448.673 129.859,454.964C129.876,456.5 130.268,458.021 130.06,459.568C129.778,460.373 129.285,460.886 128.356,460.793Z" style="fill:rgb(41,9,36);fill-rule:nonzero;"/>
            <path d="M129.479,608.552C129.54,607.511 129.706,606.678 131.061,606.498C136.805,605.734 142.364,604.084 148.331,604.317C152.142,604.466 156.07,603.301 160.045,603.443C159.855,601.915 158.851,600.839 157.877,600.765C155.885,600.615 156.474,599.649 156.208,598.348C155.83,596.503 156.603,596.735 157.745,596.326C159.285,595.775 160.256,594.332 161.014,592.618C162.27,595.054 160.415,597.623 162.395,599.496C162.409,602.198 161.821,604.976 163.399,607.482C164.421,613.333 160.115,616.139 156.374,618.866C152.618,621.604 148.174,623.043 143.331,622.269C139.225,621.613 135.634,619.971 133.764,616.067C132.505,613.444 130.034,611.544 129.479,608.552Z" style="fill:rgb(12,38,106);fill-rule:nonzero;"/>
            <path d="M112.476,75.493C111.734,75.465 110.991,75.437 110.249,75.409C115.329,68.426 122.473,63.75 129.205,58.657C138.198,51.854 146.945,44.718 156.836,39.13C161.163,36.685 167.865,32.1665 185.553,23.97C186.528,23.136 187.754,22.62 189.048,22.184C192.947,20.871 202.506,17.372 203.496,17.538C201.78,20.015 185.577,28.127 184.708,28.344C179.135,29.74 174.908,33.749 169.735,35.904C167.859,37.5074 150.361,47.6436 145.577,50.757C139.491,55.244 132.963,59.128 126.763,63.467C121.655,67.041 116.111,70.148 112.476,75.493Z" style="fill:rgb(29,8,21);fill-rule:nonzero;"/>
            <path d="M135.504,400.502C132.099,404.792 130.571,410.057 128.52,414.96C125.648,421.822 121.562,427.934 117.929,434.317C116.861,436.193 116.509,438.321 115.257,440.037C114.423,441.18 114.661,441.999 115.505,443.085C116.804,444.755 117.811,446.651 118.97,448.432C119.483,449.22 119.675,449.91 118.683,450.46C116.422,447.818 113.469,445.175 112.887,441.969C112.334,438.926 115.139,435.966 116.575,433.03C121.14,423.696 125.864,414.439 130.411,405.096C130.75,404.4 132.498,403.282 130.507,402.326C130.539,401.996 130.44,401.54 130.62,401.354C138.195,393.541 140.075,382.88 144.546,373.521C146.174,370.113 147.635,366.625 149.199,363.186C149.881,361.687 150.799,360.265 150.497,358.498C149.906,357.82 149.68,356.988 149.929,356.172C152.208,348.692 153.998,341.041 157.452,333.966C158.005,332.833 158.79,330.522 160.351,331.089C161.829,331.626 161.378,333.947 161.035,335.218C159.258,341.812 157.624,348.458 155.246,354.866C150.378,367.985 144.754,380.806 139.699,393.853C138.76,396.277 137.892,398.916 135.504,400.502Z" style="fill:rgb(25,7,22);fill-rule:nonzero;"/>
            <path d="M71.45,334.59C68.698,334.689 66.633,333.104 64.476,331.745C59.647,327.251 59.675,327.048 65.5,324.411C64.947,322.51 62.839,322.724 61.702,321.617C59.258,319.252 55.891,317.532 55.96,313.407C57.111,310.475 59.319,309.162 62.409,309.201C63.847,314.221 67.431,316.495 72.357,317.495C74.978,318.027 78.048,318.008 79.781,320.756C77.635,325.693 73.427,323.223 69.977,323.49C69.857,323.499 69.673,323.613 69.65,323.71C69.615,323.855 69.697,324.028 69.731,324.202C68.598,327.168 70.684,327.945 72.781,328.636C75.148,329.417 77.627,329.114 80.059,329.275C81.761,329.388 83.753,328.902 84.774,330.988C83.649,334.355 80.776,334.554 77.916,334.823C75.745,335.026 73.615,334.362 71.45,334.59Z" style="fill:rgb(243,212,150);fill-rule:nonzero;"/>
            <path d="M254.661,375.18C255.869,376.386 255.723,378.09 256.263,379.542C256.609,389.748 252.775,398.816 248.552,407.773C248.146,408.634 247.849,409.665 246.711,409.933C243.906,409.372 244.394,407.055 244.287,405.169C244.13,402.411 245.154,399.901 246.537,397.604C248.441,394.443 248.068,392.723 243.997,392.632C242.47,392.598 240.86,392.064 240.518,390.328C240.206,388.746 241.714,388.078 242.765,387.344C246.278,384.893 247.969,381.455 248.72,377.329C249.096,375.266 248.834,372.918 250.652,371.292C254.181,370.318 252.51,374.723 254.661,375.18Z" style="fill:rgb(41,9,36);fill-rule:nonzero;"/>
            <path d="M128.356,460.793C128.736,460.455 129.116,460.117 129.496,459.779C132.543,458.307 135.53,459.714 138.122,460.683C149.898,465.085 162.082,465.324 174.37,465.063C175.78,465.033 177.361,464.213 178.491,465.804C179.549,467.085 181.734,465.604 182.555,467.464C182.446,470.823 179.789,470.775 177.595,470.893C172.51,471.167 167.411,471.105 162.322,470.906C161.457,470.905 160.588,470.897 159.725,470.871C150.466,469.318 140.831,470.026 131.92,466.275C130.094,465.506 128.119,465.071 126.705,463.537C126.678,462.275 128.091,461.879 128.356,460.793Z" style="fill:rgb(59,102,172);fill-rule:nonzero;"/>
            <path d="M71.45,334.59C73.248,332.32 75.704,333.753 77.83,333.571C80.511,333.341 83.029,333.17 84.499,330.491C85.723,328.325 85.175,325.655 86.483,323.512C88.155,324.323 89.582,325.326 89.569,327.456C90.294,330.451 92.533,329.034 93.732,328.436C95.556,327.527 97.539,326.495 98.584,324.488C99.092,324.387 99.397,324.09 99.474,323.571C101.892,321.366 105.371,314.997 105.939,317.738C107.441,320.771 106.578,323.545 104.824,326.091C103.425,328.123 101.917,330.08 100.645,332.202C99.803,333.608 98.872,334.924 97.271,335.568C91.322,337.653 85.437,339.136 79.206,336.18C77.602,335.419 75.383,335.447 73.407,335.564C72.591,335.57 71.78,335.563 71.45,334.59Z" style="fill:rgb(241,208,146);fill-rule:nonzero;"/>
            <path d="M126.706,463.537C128.631,463.095 130.331,464.126 131.894,464.783C138.125,467.402 144.647,468.299 151.278,468.413C154.123,468.462 156.696,469.848 159.531,469.573C159.027,474.702 153.265,478.02 147.975,476.284C146.709,475.868 145.893,474.596 144.461,474.562C139.255,473.47 134.942,470.321 130.15,468.271C128.533,467.579 127.21,466.135 126.423,464.404C126.447,464.091 126.542,463.803 126.706,463.537Z" style="fill:rgb(25,56,121);fill-rule:nonzero;"/>
            <path d="M254.661,375.18C254.396,375.665 254.276,376.472 253.498,375.581C252.461,374.393 253.069,372.411 251.492,371.5C250.513,371.109 249.856,370.392 249.415,369.455C245.545,359.721 240.875,350.338 236.693,340.739C235.317,337.4 234.2,333.958 233.097,330.53C231.328,325.028 228.385,320.481 223.786,316.959C222.689,316.119 221.159,315.391 221.471,313.524C222.747,313.192 222.795,310.761 224.756,311.6C224.617,312.078 224.259,312.914 224.37,312.981C230.915,316.974 233.881,323.676 236.292,330.27C240.619,342.104 246.322,353.304 251.079,364.923C252.444,368.258 254.242,371.494 254.661,375.18Z" style="fill:rgb(35,12,27);fill-rule:nonzero;"/>
            <path d="M55.0367,272.786C53.8337,276.09 49.316,281.398 47.252,284.132C45.835,286.008 44.701,287.991 43.7,290.062C41.719,294.159 42.643,297.861 46.299,300.938C49.693,303.794 53.111,306.619 56.519,309.458C56.779,310.395 56.429,310.726 55.501,310.486C52.573,308.341 49.659,306.178 46.713,304.059C44.371,302.374 42.694,300.115 41.217,297.707C39.996,295.716 40.121,293.429 41.047,291.506C43.77,285.846 46.516,280.148 51.441,275.945C51.784,275.651 54.5877,272.955 55.0367,272.786Z" style="fill:rgb(166,166,165);fill-rule:nonzero;"/>
            <path d="M102.424,379.678C102.946,378.222 103.614,379.071 104.114,379.635C106.844,382.711 109.754,385.66 112.187,388.959C115.225,393.077 119.003,396.439 122.499,400.096C124.079,401.749 125.534,403.056 127.949,401.56C128.499,401.219 129.195,401.726 129.486,402.425C129.173,402.501 128.833,402.523 128.55,402.661C124.691,404.544 122.273,404.455 119.65,401.399C113.632,394.387 107.525,387.426 102.424,379.678Z" style="fill:rgb(30,13,28);fill-rule:nonzero;"/>
            <path d="M246.479,409.504C248.903,407.318 249.128,404.049 250.368,401.302C252.021,397.641 253.119,393.718 254.316,389.865C255.086,387.387 255.901,384.892 255.528,382.196C255.401,381.279 255.18,380.19 256.261,379.541C257.641,385.249 256.848,390.907 254.714,396.139C251.617,403.735 247.823,411.048 244.326,418.481C243.386,418.091 243.517,417.253 243.491,416.481C243.017,413.527 244.107,411.241 246.479,409.504Z" style="fill:rgb(36,16,31);fill-rule:nonzero;"/>
            <path d="M73.432,352.66C73.773,351.722 74.32,351.423 75.313,351.858C80.646,354.198 86.104,354.094 92.321,352.17C91.533,353.772 90.915,354.761 90.546,355.837C89.99,357.461 88.885,359.139 91,360.648C91.838,361.245 91.454,362.098 90.487,362.508C88.268,360.706 87.988,357.163 85.857,355.893C83.657,354.581 80.4,355.534 77.664,354.736C76.105,354.281 74.543,353.97 73.432,352.66Z" style="fill:rgb(32,14,29);fill-rule:nonzero;"/>
            <path d="M73.408,335.564C75.694,333.513 78.899,333.78 80.725,334.946C84.709,337.489 88.37,336.471 92.313,335.679C94.072,335.326 95.629,334.096 97.546,334.48C97.657,337.773 94.873,337.99 92.869,338.251C89.958,338.631 88.494,339.799 88.503,342.732C87.219,343.412 86.136,342.889 85.08,342.183C82.986,339.222 79.32,339.14 76.496,337.516C76.122,337.434 75.748,337.352 75.374,337.27C74.718,336.702 74.063,336.133 73.408,335.564Z" style="fill:rgb(214,158,102);fill-rule:nonzero;"/>
            <path d="M216.609,599.722C216.566,590.085 216.549,580.448 216.464,570.812C216.442,568.357 216.755,565.88 215.658,563.478C215.241,562.565 215.009,561.138 216.51,560.5C217.826,563.477 217.22,566.673 217.474,569.757C218.248,579.145 217.492,588.543 217.283,597.936C217.268,598.536 216.843,599.127 216.609,599.722Z" style="fill:rgb(50,78,136);fill-rule:nonzero;"/>
            <path d="M82.381,264.38C84.115,266.39 85.407,268.777 87.545,270.444C87.213,271.28 87.2996,271.562 86.6446,272.139C86.3848,272.372 84.1628,269.547 82.9212,267.23C82.1763,265.84 81.7844,264.634 82.381,264.38Z" style="fill:rgb(183,144,99);fill-rule:nonzero;"/>
            <path d="M165.57,481.562C165.305,482.571 166.058,483.944 164.522,484.5C163.55,483.708 164.025,481.724 162.381,481.598C160.454,481.451 158.501,481.53 156.568,481.651C155.859,481.696 155.691,482.452 155.588,483.121C155.451,484.013 155.789,485.138 154.523,485.541C154.561,483.788 154.644,482.025 153.473,480.525C156.65,476.751 162.704,477.27 165.57,481.562Z" style="fill:rgb(15,40,95);fill-rule:nonzero;"/>
            <path d="M86.4353,281.705C84.7883,280.987 80.324,277.891 79.082,276.56C76.632,273.935 73.828,271.761 70.679,270.019C69.976,269.63 69.283,269.005 70.543,268.344C71.799,269.725 73.185,268.352 74.498,268.53L74.481,268.478C77.635,271.469 80.767,274.483 83.796,277.606C83.96,278.055 83.991,278.515 83.894,278.983C83.751,279.168 86.5793,281.52 86.4353,281.705Z" style="fill:rgb(175,172,168);fill-rule:nonzero;"/>
            <path d="M55.501,310.486C56.073,310.374 56.407,310.025 56.519,309.458C58.312,309.934 59.684,308.622 61.297,308.333C62.405,307.283 63.815,307.257 65.21,307.162C65.775,307.109 66.338,307.117 66.902,307.161C69.155,307.717 72.372,306.849 72.343,310.809C68.821,312.42 65.627,311.423 62.542,309.571C59.627,309.462 58.17,311.646 56.463,313.437C56.016,313.256 55.691,312.95 55.506,312.501C55.504,311.829 55.503,311.157 55.501,310.486Z" style="fill:rgb(189,160,127);fill-rule:nonzero;"/>
            <path d="M55.506,312.5C56.026,312.607 56.364,312.899 56.463,313.436C56.382,314.929 57.262,315.934 58.277,316.813C59.815,318.144 60.745,319.885 61.702,321.617C56.91,321.362 55.774,317.632 54.572,314.025C54.361,313.392 54.799,312.77 55.506,312.5Z" style="fill:rgb(175,138,100);fill-rule:nonzero;"/>
            <path d="M74.514,218.552C73.9524,216.038 73.1095,208.37 73.2936,208.086C73.7878,207.323 73.9684,206.935 74.4217,206.439C74.0237,211.87 78.891,232.634 78.301,238.078C80.0444,256.003 79.9434,259.452 79.2027,254.734C78.3286,249.165 76.4801,232.481 74.514,218.552Z" style="fill:rgb(205,170,128);fill-rule:nonzero;"/>
            <path d="M65.5,324.411C64.789,326.08 62.629,325.846 61.696,327.339C61.736,329.326 64.339,329.779 64.475,331.745C62.163,331.041 60.032,329.8 60.472,327.137C60.89,324.614 63.411,324.596 65.5,324.411Z" style="fill:rgb(188,153,112);fill-rule:nonzero;"/>
            <path d="M60.606,267.456C58.658,270.323 56.149,272.64 53.437,274.758C53.313,274.647 53.067,274.461 53.083,274.434C54.923,271.391 56.889,268.476 60.606,267.456Z" style="fill:rgb(175,175,175);fill-rule:nonzero;"/>
            <path d="M342.499,229.499C339.551,235.341 335.814,240.551 330.494,244.495C328.589,243.912 327.768,245.548 327.014,246.574C323.868,250.853 319.401,253.497 315.125,256.298C312.317,258.137 310.293,260.252 309.502,263.504C306.073,267.555 301.573,270.321 297.426,273.501C293.125,276.799 288.638,279.857 284.37,283.195C282.223,284.874 279.65,285.493 277.268,286.492C268.428,290.199 259.974,294.686 251.507,299.114C246.765,301.594 241.631,302.655 236.676,304.275C232.042,305.79 227.225,306.814 222.573,308.375C221.128,308.86 219.582,309.573 218.164,307.872C217.036,306.026 215.215,306.653 212.496,305.507C213.228,299.182 216.193,295.682 222.001,294.578C228.518,293.339 233.593,289.143 239.338,286.329C239.755,286.139 240.193,286 240.635,285.886C244.042,285.766 245.054,282.569 247.159,280.777C251.841,277.416 261.264,264.109 261.821,261.611C261.794,258.55 263.742,256.267 265.393,254.149C272.797,244.648 273.538,233.49 273.906,222.181C274.314,218.46 274,214.727 274.1,211.004C274.02,202.548 271.624,194.674 268.397,186.933C265.049,178.905 261.26,171.193 255.675,164.435C254.605,163.14 253.121,161.585 254.482,159.534C247.933,150.714 263.516,166.981 268.813,172.866C274.27,178.784 285.193,181.433 292.198,182.474C298.445,183.402 305.586,182.61 310.843,179.11C316.726,175.193 324.999,167.318 327.498,158.973C330.15,150.117 328.07,135.71 326.753,125.973C325.573,117.25 321.77,108.915 319.595,100.554C319.207,99.063 318.842,97.561 320.482,96.507C324.285,102.458 327.624,108.628 329.501,115.494C334.335,124.355 337.924,133.816 343.089,142.557C345.881,147.282 347.792,152.813 347.952,158.571C348.023,161.144 348.494,163.57 349.942,165.66C354.003,171.518 353.473,177.587 350.732,183.643C349.569,186.212 349.01,188.161 351.881,189.952C353.719,191.099 353.866,193.16 353.987,195.255C354.638,206.54 351.097,216.407 344.415,225.372C343.574,226.498 341.425,227.362 342.499,229.499Z" style="fill:rgb(36,7,32);fill-rule:nonzero;"/>
            <path d="M250.693,156.414C251.319,157.788 255.758,162.749 256.712,163.782C264.053,171.729 267.834,181.657 271.643,191.374C273.978,197.332 275.856,203.798 275.494,210.499C272.966,210.591 272.762,208.416 272.186,206.853C270.583,202.507 268.894,198.173 267.591,193.738C263.949,181.339 257.539,170.395 250.36,159.818C249.468,158.504 247.906,157.458 248.501,155.496C249.692,155.256 249.691,156.091 250.693,156.414Z" style="fill:rgb(16,5,14);fill-rule:nonzero;"/>
            <path d="M165.57,481.562C161.722,479.064 157.71,478.485 153.473,480.526C152.47,479.819 151.468,479.111 150.465,478.404C149.468,476.521 150.659,475.862 152.126,476.081C156.452,476.728 159.18,475.066 160.551,470.957C160.692,470.534 161.286,470.337 161.763,470.186C162.248,470.286 162.895,470.54 162.898,470.93C162.917,474.204 164.391,475.355 166.513,479.52C166.53,480.354 166.562,481.195 165.57,481.562Z" style="fill:rgb(24,56,122);fill-rule:nonzero;"/>
            <path d="M161.504,470.501C160.315,471.603 160.922,473.532 159.406,474.684C158.865,475.095 160.554,476.913 159.649,478.637C157.528,476.577 154.918,476.268 152.144,476.49C150.845,476.594 150.538,477.339 150.465,478.403C147.802,478.156 145.847,476.801 144.46,474.56C144.493,474.231 144.451,473.87 144.578,473.582C144.731,473.234 144.891,472.502 145.457,473.317C147.69,476.532 151.055,475.255 154.042,475.462C154.828,475.517 155.527,474.885 155.287,474.326C154.469,472.428 155.599,472.529 156.855,472.475C158.419,472.535 158.769,471.737 159.53,469.572C160.178,469.568 160.826,469.564 161.474,469.56C161.832,469.758 161.956,469.963 161.846,470.176C161.734,470.393 161.621,470.501 161.504,470.501Z" style="fill:rgb(15,40,95);fill-rule:nonzero;"/>
            <path d="M161.504,470.501C161.506,470.187 161.496,469.873 161.473,469.56C167.02,469.546 172.566,469.521 178.112,469.524C179.928,469.525 181.786,469.69 182.555,467.464C184.628,470.066 188.197,470.309 190.52,472.516C186.664,475.152 181.887,474.765 177.704,476.423C174.114,477.846 169.98,477.509 166.512,479.521C166.326,479.265 166.189,478.851 165.947,478.776C161.91,477.526 161.931,477.538 162.469,472.982C162.581,472.049 162.759,470.961 161.504,470.501Z" style="fill:rgb(25,56,122);fill-rule:nonzero;"/>
            <path d="M225.674,280.936C226.96,284.87 192.635,287.93 175.018,285.567C168.463,285.661 162.458,283.22 156.142,282.258C150.336,281.374 133.001,276.468 130.32,274.784C122.651,269.968 113.095,265.525 107.226,260.479C102.158,256.122 98.6526,250.172 95.106,244.508C87.9993,233.158 86.1692,196.229 94.504,188.904C94.768,187.83 105.395,179.624 110.298,176.613C123.788,168.328 137.659,160.769 152.056,154.113C159.065,150.873 166.046,148.994 173.749,148.199C179.108,147.646 197.46,146.956 200.76,150.041C205.559,154.526 220.162,167.36 222.066,169.817C226.502,175.54 230.623,181.508 234.828,187.408C237.577,191.265 238.16,195.943 239.452,200.327C241.666,207.84 243.625,215.427 245.982,224.05C246.868,220.133 246.679,217.032 248.43,214.503C249.895,215.088 250.195,216.164 249.825,217.571C250.357,215.478 248.449,212.692 251.457,211.251C254.271,211.432 252.956,214.698 254.794,215.691C256.708,215.387 256.479,213.514 257.159,212.325C258.754,209.535 260.4,209.319 262.486,211.691C271.401,221.827 273.493,235.695 266.408,247.2C262.639,253.321 257.927,259.003 253.721,264.942C253.334,265.488 252.764,266.02 252.141,266.107C245.775,266.998 241.258,271.615 235.725,274.172C234.2,274.877 232.676,275.624 231.76,277.078C230.325,279.355 228.227,280.566 225.674,280.936Z" style="fill:rgb(255,246,208);fill-rule:nonzero;"/>
            <path d="M112.491,105.47C113.699,103.648 116.166,105.024 117.493,103.501C121.894,102.72 126.099,101.417 130.268,99.72C136.143,97.328 142.464,98.507 148.576,98.604C163.463,98.841 177.162,103.899 190.726,109.47C193.169,110.473 194.855,112.139 196.637,113.836C202.972,116.494 208.164,120.481 213.062,125.454C216.756,129.205 222.184,131.331 226.428,134.821C234.15,141.171 241.945,147.43 247.227,156.152C249.209,159.611 251.566,162.843 253.431,166.374C254.07,167.584 254.753,168.954 253.685,170.076C252.425,171.401 251.242,170.066 250.195,169.417C244.824,166.085 241.416,160.9 237.727,155.998C235.94,153.624 234.563,150.948 232.238,148.493C233.287,150.469 234.225,152.087 234.858,153.844C235.46,155.515 235.599,157.212 233.919,158.316C232.383,159.325 230.933,158.506 229.933,157.352C225.157,151.837 219.18,147.424 215.17,141.214C216.38,143.57 218.262,145.514 219.304,147.962C219.682,148.85 220.137,149.887 219.099,150.662C218.347,151.223 217.502,150.928 216.744,150.574C215.079,149.796 213.583,148.733 212.141,147.612C208.716,144.948 198.771,143.15 196.926,142.135C193.949,140.497 183.155,139.363 176.392,139.904C166.98,140.656 157.836,143.253 148.775,145.73C143.1,147.281 138.316,151.37 132.699,153.44C129.961,154.449 127.711,156.761 124.499,156.504C117.535,158.782 111.463,162.664 105.566,166.904C101.497,169.83 97.295,172.572 92.78,174.948C97.791,165.528 106.942,160.207 113.895,152.673C109.92,154.525 103.135,156.946 96.452,164.146C91.183,169.823 86.9713,171.026 86.5968,170.639C86.5968,170.639 94.4403,153.981 95.1572,152.528C99.8529,147.681 96.292,150.456 102.658,144.786C103.774,143.792 104.794,142.686 105.83,141.605C106.169,141.251 106.457,140.823 106.085,139.802C103.926,140.217 101.67,140.802 99.378,141.041C97.661,141.22 96.594,141.618 95.07,142.893C92.434,145.099 88.688,146.039 85.813,148.296C85.262,148.728 84.883,146.691 84.971,145.86C83.215,144.486 82.4853,146.508 79.862,146.066C81.5998,144.329 83.442,144.261 84.113,141.818C74.9983,145.957 63.6705,147.728 61.095,146.235C63.7812,144.397 71.6876,143.544 71.7355,142.931C67.7551,141.835 64.1429,143.265 61.01,142.261C63.3937,141.354 64.4039,141.252 67.9925,140.232C69.4769,139.749 71.852,138.869 74.295,138.84C67.355,136.303 60.191,136.348 52.766,136.555C61.001,128.99 71.18,128.662 81.96,127.218C78.983,126.203 75.029,124.103 75.029,124.103C75.029,124.103 76.963,123.901 77.262,122.793C77.524,121.824 72.502,118.528 70.598,117.575C64.919,114.73 60.771,109.986 55.861,105.943C64.453,107.775 72.855,109.971 81.543,110.529C85.451,111.777 89.657,112.073 93.172,114.578C96.138,116.692 98.677,119.018 98.778,122.925C99.003,131.639 104.901,136.646 111.049,141.242C113.79,143.291 116.485,144.927 116.268,148.847C118.739,148.32 120.372,147.138 122.447,146.18C109.684,143.25 105.496,132.801 101.928,122.516C99.807,116.402 104.017,110.174 110.163,107.185C111.029,106.761 112.098,106.555 112.491,105.47Z" style="fill:rgb(34,34,34);"/>
            <path d="M200.329,143.985C204.218,141.038 208.189,143.325 211.241,145.391C213.638,147.014 216.251,148.423 218.512,150.856C219.209,147.597 216.768,146.205 215.658,144.357C214.462,142.365 212.104,137.284 212.104,137.284C212.104,137.284 214.642,137.905 215.069,138.752C218.83,146.202 226.291,150.432 230.985,157.072C231.412,157.676 232.519,158.559 233.548,157.827C234.636,157.053 234.741,155.938 234.132,154.726C232.672,151.826 231.248,148.908 229.415,145.2C232.592,146.483 234.206,148.332 235.403,150.358C238.011,154.77 241.334,158.644 244.345,162.746C246.616,165.84 249.921,167.864 253.035,170.093C253.982,168.923 253.159,168.108 252.623,167.076C250.741,163.455 247.752,160.478 246.498,156.502C246.873,155.581 247.436,155.035 248.503,155.498L248.501,155.497C256.569,165.171 262.363,176.188 267.058,187.769C269.563,193.948 271.379,200.408 273.441,206.763C273.896,208.164 274.143,209.617 275.494,210.5C275.496,213.773 275.49,217.046 275.507,220.319C275.511,221.142 275.583,221.961 274.704,222.436C274.475,222.405 274.246,222.375 274.016,222.347C270.877,219.961 269.7,216.298 267.991,212.995C266.56,210.23 264.936,207.606 263.002,205.171C262.167,204.102 261.494,202.929 260.827,201.752C260.107,200.352 259.092,199.083 258.876,197.453C258.147,192.042 253.398,188.842 251.558,183.479C251.444,184.833 250.544,185.628 250.421,186.392C250.079,188.118 251.68,189.744 251.807,191.436C252.36,195.25 253.04,199.045 252.982,202.919C252.785,205.836 253.674,208.95 251.429,211.49C251.063,217.191 250.132,218.967 250.132,218.967C250.132,218.967 248.996,215.99 248.429,214.504C246.234,205.627 242.203,197.41 239.212,188.822C236.597,181.314 231.718,175.214 227.365,168.779C225.409,165.888 223.131,163.217 221.117,160.362C215.873,152.925 208.16,148.1 200.329,143.985Z" style="fill:rgb(17,17,17);fill-rule:nonzero;"/>
            <path d="M251.43,211.49C251.491,208.49 251.551,205.49 251.612,202.49C251.768,198.828 253.516,196.828 257.348,197.001C259.245,198.039 263.155,203.202 263.582,204.299C265.88,208.643 268.142,213.005 269.983,217.568C270.865,219.754 272.061,221.644 274.37,222.568L274.704,222.434C275.644,223.954 275.482,225.583 275.241,227.246C275.028,231.753 273.472,241.306 271.235,247.033C269.131,252.42 265.458,257.074 261.821,261.608C261.655,261.617 261.423,261.558 261.332,261.645C252.971,269.667 244.153,273.163 237.605,277.059C232.46,280.12 209.843,287.492 210.026,284.26C211.014,282.274 220.355,282.31 221.801,280.735C224.758,279.541 239.734,271.759 239.28,270.736C241.157,269.297 243.441,268.141 245.521,266.843C246.675,266.123 252.908,264.738 254.098,262.516C256.101,258.775 258.597,255.297 260.905,251.722C261.171,251.31 265.449,246.23 266.889,243.765C268.552,240.919 269.526,238.044 268.629,234.749C268.4,233.906 268.755,233.18 269.022,232.383C270.41,228.24 268.954,224.492 266.606,221.292C264.923,218.998 263.313,216.744 262.564,214.04C262.062,212.228 260.937,211.344 259.188,210.285C258.556,212.09 257.636,213.568 257.608,215.062C257.566,217.304 256.129,218.228 254.585,218.222C252.315,218.213 252.556,216.117 252.488,214.461C252.441,213.386 252.968,212.056 251.43,211.49Z" style="fill:rgb(255,244,201);fill-rule:nonzero;"/>
            <path d="M176.404,295.544C182.766,295.529 189.128,295.513 195.491,295.498C199.061,297.056 202.955,294.95 206.527,296.469C207.767,298.944 205.236,299.9 204.434,301.537C202.91,304.643 200.88,307.476 199.412,310.618C197.791,313.937 196.486,317.453 193.633,320.023C193.166,320.281 192.673,320.453 192.153,320.561C190.798,320.791 189.449,320.738 188.099,320.515C184.013,319.271 178.535,319.913 178.332,313.364C179.17,309.694 178.724,305.856 179.734,302.21C181.282,300.206 181.848,301.777 182.355,303.009C183.171,304.991 182.236,307.262 183.225,309.275C187.445,305.961 186.683,303.395 180.846,301.026C178.279,300.809 177.729,298.4 176.342,296.894C176.125,296.433 176.159,295.983 176.404,295.544Z" style="fill:rgb(244,212,150);fill-rule:nonzero;"/>
            <path d="M123.672,156.972C127.353,154.513 132.195,152.23 136.232,150.461C137.439,149.932 138.755,149.535 139.798,148.772C147.854,142.876 157.616,142.608 166.815,140.526C173.581,138.995 180.437,138.418 187.409,138.341C191.349,138.298 200.901,141.645 203.774,143.702C206.637,145.023 206.039,145.678 203.337,144.984C202.931,144.88 202.545,144.777 202.172,144.675C200.186,144.127 198.575,143.56 196.394,142.566C185.13,138.655 174.069,140.854 162.91,143.356C150.534,146.131 139.447,151.951 128.068,157.142C126.083,158.047 124.48,160.25 122.276,160.743C121.621,160.534 121.591,160.095 122.167,159.355C122.924,158.387 123.298,158.253 123.672,156.972Z" style="fill:rgb(17,15,12);fill-rule:nonzero;"/>
            <path d="M258.383,268.182C259.261,270.969 256.843,272.21 255.688,274.079C253.658,277.362 251.047,279.927 247.502,281.5C245.064,283.022 243.407,285.638 240.498,286.5L240.5,286.499C234.268,288.832 228.622,292.635 221.963,293.91C220.815,293.58 220.234,292.885 220.516,291.643C225.862,289.505 231.233,287.531 236.413,284.878C244.804,280.58 251.788,274.702 258.383,268.182Z" style="fill:rgb(36,13,23);fill-rule:nonzero;"/>
            <path d="M220.516,291.642C220.844,292.259 221.172,292.877 221.5,293.494C219.262,295.192 216.791,296.429 214.179,297.472C208.478,299.749 204.63,303.788 203.008,309.806C202.291,310.942 201.399,311.962 200.129,312.386C198.203,313.03 197.688,312.225 198.457,310.435C200.489,305.721 202.573,301.04 206.5,297.505C206.992,295.374 209.033,295.311 210.514,294.502C213.848,293.549 217.182,292.596 220.516,291.642Z" style="fill:rgb(36,11,23);fill-rule:nonzero;"/>
            <path d="M166.483,295.31C169.716,295.839 176.503,296.189 176.502,296.517C168.234,299.418 160.117,298.591 152.091,295.53C150.493,294.972 148.744,294.765 147.443,293.521C153.772,294.283 160.163,294.275 166.483,295.31Z" style="fill:rgb(171,130,90);fill-rule:nonzero;"/>
            <path d="M210.514,294.503C209.176,295.504 207.838,296.505 206.5,297.506C204.958,295.555 202.812,296.926 200.992,296.504C199.173,296.082 197.025,297.462 195.49,295.497C200.565,296.166 205.467,294.24 210.514,294.503Z" style="fill:rgb(222,172,110);fill-rule:nonzero;"/>
            <g>
                <path d="M95.1618,275.83C99.287,277.929 104.335,281.134 108.46,283.233C105.2,283.62 97.2887,279.964 96.0307,277.416C95.9668,277.302 95.1406,275.992 95.1618,275.83Z" style="fill:rgb(187,149,107);fill-rule:nonzero;"/>
            </g>
            <path d="M96.9306,278.216C98.6768,280.39 106.145,284.044 86.5829,272.154C86.8379,270.997 86.697,270.502 87.545,270.443C89.436,272.325 96.1386,275.116 96.9306,278.216Z" style="fill:rgb(183,144,99);fill-rule:nonzero;"/>
            <path d="M112.491,105.47C112.822,105.501 113.18,105.463 113.476,105.58C113.9,105.748 114.434,106.042 113.655,106.455C112.344,107.149 110.977,107.738 109.682,108.457C103.418,111.935 101.03,119.502 104.262,125.883C106.268,129.843 107.973,134.087 110.676,137.524C113.439,141.037 117.031,144.114 121.973,144.491C123.146,144.581 124.313,144.512 125.271,146.047C121.822,147.79 118.428,149.506 115.115,151.181C114.256,150.303 115.047,149.789 115.076,149.211C115.22,146.346 114.418,144.32 111.453,142.843C106.537,140.395 102.914,136.22 99.695,131.835C97.895,129.383 97.788,126.127 97.698,123.348C97.567,119.324 95.337,117.225 92.492,115.588C90.124,114.225 87.789,112.555 84.8,112.399C83.604,112.337 82.249,111.812 81.547,110.527C89.633,110.92 97.41,109.521 105.136,107.613C106.902,107.177 111.84,105.486 112.491,105.47Z" style="fill:rgb(71,71,71);fill-rule:nonzero;"/>
            <path d="M198.457,310.436C198.894,310.668 198.291,312.284 199.868,311.58C200.773,310.925 201.322,309.817 202.496,309.495C203.07,308.18 204.358,307.953 205.508,307.516C208.94,307.444 212.327,307.5 215.712,308.416C217.337,308.856 218.21,309.773 219.485,311.13C215.97,311.845 213.091,313.197 210.507,315.119C209.874,315.59 209.183,316.363 210.077,317.135C210.641,317.621 211.397,317.233 211.752,316.667C214.123,312.882 217.867,313.442 221.468,313.523C230.418,318.924 234.177,327.63 236.515,337.223C236.787,338.338 237.722,339.248 237.493,340.504C239.829,351.065 244.573,360.548 250.483,369.509C250.818,370.172 251.154,370.836 251.489,371.499C249.456,373.555 250.23,376.434 249.764,378.82C248.825,383.622 246.453,386.805 242.392,389.078C241.854,389.379 241.355,389.749 240.852,390.079C241.816,391.835 243.406,391.472 244.86,391.496C245.851,391.512 246.856,391.399 247.831,391.526C250.294,391.848 250.76,392.915 249.391,395.103C246.924,399.045 244.762,403.057 245.476,407.971C245.581,408.69 245.822,409.201 246.477,409.503C245.481,411.829 244.486,414.155 243.49,416.481C239.706,417.236 237.951,420.571 235.64,423.016C231.834,427.043 228.193,430.751 221.928,429.597C220.536,429.341 219.329,430.898 217.137,430.571C219.445,434.122 222.314,433.883 224.876,433.183C226.522,432.733 228.09,432.504 229.735,432.52C230.67,432.529 231.873,432.179 232.296,433.423C232.677,434.545 232.849,436.027 231.725,436.634C228.258,438.506 226.505,442.844 222.292,443.454C216.848,444.242 211.5,443.326 207.366,439.633C204.378,436.964 202.161,433.385 202.139,428.657C204.417,430.929 206.802,433.106 208.949,435.496C212.449,439.39 217.181,439.741 221.868,440.267C222.207,440.305 222.618,439.703 223.443,439.039C220.294,437.984 217.521,436.927 214.674,436.138C212.17,435.444 210.216,434.085 208.619,432.113C203.455,425.736 201.674,418.413 202.493,410.344C202.586,409.433 202.863,408.833 203.743,408.437C205.986,407.428 207.95,405.788 210.501,405.481C213.918,400.271 216.621,394.738 218.317,388.716C218.77,387.106 219.005,385.547 218.695,383.909C221,371.982 214.681,362.375 209.653,351.282C210.985,361.569 210.914,370.984 214.237,379.91C214.856,381.573 215.926,383.26 214.652,385.1C214.621,387.738 213.645,390.215 213.203,392.781C212.499,396.869 207.227,400.625 202.916,400.444C198.116,400.243 193.151,400.59 189.11,396.899C188.009,395.893 187.575,395.112 187.457,393.697C186.994,388.144 186.092,382.621 186.486,377.017C186.538,376.282 186.151,375.787 185.486,375.5C182.834,374.103 183.339,371.769 183.623,369.443C184.378,363.272 186.353,357.235 185.685,350.91C185.147,346.504 187.463,342.765 188.53,338.73C189.079,337.303 189.656,335.885 190.505,334.601C193.054,329.882 192.674,324.567 193.579,319.514C195.207,316.49 196.832,313.463 198.457,310.436Z" style="fill:rgb(65,19,57);fill-rule:nonzero;"/>
            <path d="M189.527,338.606C189.296,341.619 188.163,344.394 187.058,347.138C186.596,348.286 186.489,349.341 186.535,350.493C186.264,352.346 186.023,354.205 185.792,356.065C184.772,364.283 183.937,372.533 181.455,380.504C180.956,381.354 179.854,393.218 179.237,398.133C178.593,403.258 178.974,408.386 178.327,413.472C176.82,423.307 170.464,429.316 162.117,433.549C157.703,435.788 152.511,434.378 149.698,430.304C146.392,425.517 144.595,420.116 145.417,414.258C145.928,410.615 146.135,406.984 146.28,403.33C147.441,397.953 149.505,392.851 151.335,387.698C157.042,371.632 159.627,354.865 162.821,338.234C163.737,333.464 165.073,328.871 167.303,324.553C167.524,324.067 167.832,323.637 168.21,323.261C169.491,322.507 171.163,322.4 171.786,323.589C174.355,328.498 179.565,328.658 183.75,330.654C185.568,333.38 190.152,334.106 189.527,338.606Z" style="fill:rgb(255,164,5);fill-rule:nonzero;"/>
            <path d="M147.535,403.492C147.407,407.099 147.331,410.653 146.659,414.279C145.596,420.007 147.882,425.317 150.877,430.121C152.762,433.145 158.164,434.189 161.523,432.494C169.343,428.549 174.917,422.592 177.662,414.154C177.75,413.883 178.099,413.697 178.327,413.471C178.91,424.931 177.25,436.338 177.562,447.803C177.698,452.793 177.689,457.717 179.56,462.432C179.516,465.12 177.093,465.19 175.621,465.23C163.393,465.563 151.071,466.441 139.346,461.661C130.765,458.163 130.514,457.696 131.297,448.412C131.394,447.899 131.586,447.408 131.85,446.956C133.501,445.312 134.943,446.933 136.352,447.396C141.557,449.105 146.703,450.991 153.402,449.921C145.39,446.777 138.852,442.679 132.292,438.616C131.978,437.914 131.98,437.216 132.306,436.52C132.439,436.213 132.514,435.892 132.531,435.557C135.639,426.25 140.302,417.585 143.716,408.404C145.001,406.78 144.505,403.758 147.535,403.492Z" style="fill:rgb(234,88,1);fill-rule:nonzero;"/>
            <path d="M214.655,385.103C211.108,376.24 209.669,366.953 208.92,357.497C208.67,354.345 208.517,351.225 208.53,348.058C209.999,348.235 210.169,349.093 210.572,350.086C213.039,356.172 216.243,361.918 218.639,368.063C220.782,373.561 221.26,378.926 219.709,384.546C219.388,388.45 218.937,388.862 216.47,387.509C216.153,386.489 215.473,385.744 214.655,385.103Z" style="fill:rgb(254,254,254);fill-rule:nonzero;"/>
            <path d="M132.433,447.423C132.453,448.754 132.301,450.117 132.539,451.407C132.81,452.88 130.713,454.081 132.156,455.578C133.768,457.251 135.119,459.336 137.236,460.319C142.947,462.971 149.067,464.219 155.325,464.44C161.478,464.657 167.644,464.477 173.805,464.498C175.987,464.506 178.124,464.467 179.561,462.433C181.33,464.23 180.751,465.283 178.492,465.804C167.264,467.073 156.078,466.615 145.041,464.327C139.772,463.235 134.673,461.321 129.497,459.78C129.024,458.387 128.146,457.088 128.502,455.503C130.059,452.929 128.299,448.741 132.433,447.423Z" style="fill:rgb(181,58,4);fill-rule:nonzero;"/>
            <path d="M181.455,380.504C181.634,374.033 183.085,367.731 184.031,361.363C184.577,357.683 184.24,353.777 186.535,350.493C188.152,351.315 187.61,352.866 187.444,354.013C186.68,359.305 185.802,364.584 184.779,369.832C184.381,371.875 184.417,373.715 185.488,375.502C184.343,375.94 184.211,376.703 183.932,377.931C183.47,379.963 183.838,382.05 183.255,384.075C181.706,383.267 183.403,381.001 181.455,380.504Z" style="fill:rgb(57,13,13);fill-rule:nonzero;"/>
            <path d="M216.469,387.509C217.28,387.821 218.232,389.397 218.741,387.19C218.95,386.282 219.379,385.425 219.708,384.545C220.59,385.045 220.676,385.883 220.369,386.666C218.001,392.709 215.533,398.709 212.523,404.473C212.045,405.388 211.333,405.463 210.504,405.483C206.243,404.054 202.045,403.126 198.47,407.029C197.668,407.905 196.813,408.665 195.498,408.499L195.5,408.501C196.152,407.57 197.018,406.72 197.411,405.69C198.145,403.768 199.532,403.426 201.32,403.482C203.456,403.55 205.597,403.506 207.735,403.498C208.709,403.494 209.678,403.583 210.542,402.891C212.703,401.162 213.374,398.547 214.559,396.246C215.723,393.986 217.63,391.826 215.732,389.011C215.304,388.375 215.772,387.794 216.469,387.509Z" style="fill:rgb(28,8,25);fill-rule:nonzero;"/>
            <path d="M195.498,408.5C196.283,412.141 193.863,415.132 193.132,418.44C192.265,422.364 193.283,425.499 194.28,428.882C194.868,430.877 195.734,432.79 196.72,435.383C195.037,434.77 194.173,434.016 193.815,433.046C191.257,426.104 190.451,419.03 192.865,411.88C193.311,410.558 193.768,408.954 195.499,408.502Z" style="fill:rgb(20,3,17);fill-rule:nonzero;"/>
            <path d="M204.472,443.46C207.234,444.928 208.648,448.22 211.8,449.146C214.712,450.001 217.73,449.178 220.724,449.601C218.441,451.498 218.441,451.502 215.029,451.498C212.897,451.495 210.795,451.768 209.141,449.722C207.515,447.712 205.52,446 203.687,444.158C203.949,443.925 204.21,443.693 204.472,443.46Z" style="fill:rgb(25,5,20);fill-rule:nonzero;"/>
            <path d="M342.499,229.499C340.709,229.472 339.563,227.916 340.953,227.136C346.047,224.279 346.762,218.744 349.455,214.467C352.684,209.337 352.639,203.52 352.706,197.618C352.759,192.886 352.423,189.174 346.437,188.82C349.172,184.414 351.278,180.613 351.555,175.999C351.772,172.375 351.156,169.204 348.838,166.314C346.925,163.93 343.462,148.189 343.474,145.454C343.477,144.83 335.029,126.783 330.182,118.837C329.52,117.752 329.498,116.654 329.503,115.494C330.801,116.741 331.765,118.232 332.593,119.81C337.186,128.558 341.778,137.306 346.342,146.069C348.401,150.023 349.172,154.448 350.284,158.67C351.53,163.403 352.993,168.063 354.533,172.678C356.95,179.921 356.914,187.074 355.712,194.532C354.883,199.676 354.371,204.896 353.501,210.053C352.949,213.321 351.899,216.264 349.7,218.95C347.01,222.23 344.873,225.962 342.499,229.499Z" style="fill:rgb(46,12,41);fill-rule:nonzero;"/>
            <path d="M205.509,307.517C204.886,308.757 203.503,308.84 202.497,309.496C202.894,303.173 207.048,299.31 212.11,296.942C215.034,295.574 217.965,293.482 221.501,293.494C227.776,291.002 233.701,287.562 240.501,286.498C235.54,290.326 230.063,293.191 224.255,295.522C222.469,296.239 214.729,300.758 213.606,303.51C213.308,304.241 213.49,305.175 212.497,305.504C210.72,305.503 208.943,305.484 207.166,305.508C206.165,305.522 205.314,305.86 204.928,306.888C204.89,306.991 204.991,307.189 205.086,307.287C205.192,307.398 205.365,307.443 205.509,307.517Z" style="fill:rgb(47,13,37);fill-rule:nonzero;"/>
            <path d="M309.502,263.503C308.7,260.672 309.464,258.231 311.964,256.767C317.766,253.369 323.258,249.599 327.881,244.656C328.602,243.885 329.511,242.628 330.494,244.495C327.575,245.773 326.624,248.857 324.591,250.958C320.009,255.691 315.287,260.228 309.502,263.503Z" style="fill:rgb(44,11,39);fill-rule:nonzero;"/>
            <path d="M248.503,155.497C247.835,155.832 247.166,156.167 246.498,156.501C241.298,148.726 234.532,142.354 227.118,136.907C222.721,133.677 219.031,129.134 213.295,127.787C212.02,127.487 210.225,127.066 211.286,124.759C211.706,123.847 210.44,123.556 209.757,123.169C205.643,120.838 202.374,117.226 197.948,115.358C197.719,115.261 197.644,114.797 197.498,114.504C197.152,114.282 197.038,114.06 197.153,113.838C197.268,113.617 197.384,113.507 197.5,113.507C200.199,113.161 202.512,114.555 204.277,116.047C207.635,118.887 212.586,119.571 214.812,123.916C215.014,124.31 215.981,124.459 216.596,124.467C218.819,124.497 220.625,126.093 221.532,127.384C223.494,130.177 226.21,131.922 228.567,134.164C234.459,139.766 240.097,145.636 245.881,151.353C247.095,152.555 247.8,154.009 248.503,155.497Z" style="fill:rgb(16,5,14);fill-rule:nonzero;"/>
            <path d="M193.825,109.674C198.115,111.141 203.547,116.354 200.776,115.707C200.523,116.436 197.101,115.166 194.732,113.871C190.397,111.501 177.103,105.946 173.408,104.315C161.218,98.936 148.389,99.382 135.585,99.578C131.835,99.635 128.495,101.888 124.794,102.691C122.3,103.494 108.86,107.33 106.501,106.615C103.93,106.052 122.116,102.027 127.029,100.08C126.719,99.463 126.371,98.768 126.048,98.126C125.988,97.704 126.184,97.518 126.627,97.517C133.452,97.512 140.28,97.386 147.103,97.528C160.053,97.799 172.42,101.019 184.406,105.651C187.567,106.873 190.556,108.606 193.825,109.674Z" style="fill:rgb(18,5,16);fill-rule:nonzero;"/>
            <path d="M147.535,403.492C145.893,404.354 143.043,415.103 138.512,415.499C133.861,412.621 134.052,408.438 135.781,404.144C136.381,402.654 136.144,401.675 135.504,400.503C138.177,393.814 140.837,387.12 143.527,380.438C147.687,370.108 152.44,360.01 155.613,349.295C157.189,343.975 158.842,338.679 160.415,333.359C160.537,332.945 160.305,332.426 160.156,331.389C155.368,340.251 153.492,349.578 150.498,358.499C149.675,358.569 148.93,358.608 148.554,359.627C145.427,368.096 141.051,375.79 134.438,382.071C134.318,382.185 134.213,382.318 134.083,382.421C132.156,383.958 130.327,386.525 128.269,386.724C126.371,386.908 124.037,384.853 121.918,383.84C118.166,382.045 114.491,379.89 111.584,377.255C108.816,374.746 104.902,373.235 103.365,369.29C102.54,367.172 99.901,366.601 98.688,364.415C97.152,361.648 96.77,358.895 98.259,356.526C99.685,354.257 99.448,352.232 99.321,349.616C95.031,350.651 90.985,349.653 86.907,349.528C81.635,349.367 80.359,348.245 79.501,342.498C80.923,338.889 83.519,341.661 85.554,341.384C86.524,341.756 87.302,342.739 88.522,342.317C90.207,340.913 92.37,340.458 94.342,339.909C98.898,338.639 101.253,335.864 101.6,331.234C102.999,328.349 104.148,325.256 107.535,323.995C109.697,324.083 111.61,324.679 112.858,326.619C114.064,329.026 113.009,331.475 112.954,333.901C112.913,335.705 112.569,337.513 113.618,339.162C115.719,343.498 120.043,346.1 122.138,350.576C124.844,356.355 126.844,362.261 127.438,367.491C126.459,365.567 126.732,362.525 127.439,359.463C129.457,356.812 131.476,354.161 133.494,351.51C138.391,345.629 143.803,340.186 148.379,334.033C149.41,332.844 150.442,331.654 151.473,330.465C154.651,329.649 156.533,326.883 159.221,325.303C162.245,323.525 165.199,322.6 168.477,324.49C162.769,338.847 161.743,354.267 158.285,369.134C157.17,373.926 155.559,378.607 154.074,383.307C151.943,390.048 149.72,396.764 147.535,403.492Z" style="fill:rgb(65,19,57);fill-rule:nonzero;"/>
            <path d="M85.555,341.382C84.741,343.114 83.566,342.529 82.341,341.918C81.273,341.385 80.192,341.055 79.502,342.496C78.937,342.207 78.395,341.857 77.804,341.639C74.607,340.461 74.603,340.472 76.495,337.517C80.294,336.978 83.565,337.679 85.555,341.382Z" style="fill:rgb(64,21,48);fill-rule:nonzero;"/>
            <path d="M72.646,310.512C71.077,308.459 68.819,308.408 66.543,308.412C66.146,306.642 66.344,304.213 63.247,305.451C62.45,305.693 61.203,306.234 60.879,305.694C58.154,301.145 51.93,299.489 50.887,293.584C51.699,291.416 52.135,289.072 53.786,287.29C55.374,286.886 58.74,290.134 58.109,285.176C61.551,276.028 64.101,274.415 71.826,276.491C72.902,277.309 73.924,278.178 74.56,279.409C74.805,280.53 73.644,281.951 74.631,282.698C75.826,283.604 76.432,281.661 77.521,281.463C78.484,282.118 79.448,282.773 80.411,283.428C81.696,284.225 81.725,286.105 83.358,286.668C86.437,287.729 86.888,290.151 86.401,292.975C87.106,294.458 88.678,294.783 89.883,295.595C90.875,297.058 91.274,298.839 92.392,300.237C93.287,301.618 94.156,303.008 94.351,304.695C94.399,306.39 93.871,307.969 93.373,309.554C91.945,312.466 89.513,314.047 86.371,314.287C84.385,314.438 82.991,315.36 81.684,316.66C77.612,316.171 74.632,314.071 72.646,310.512Z" style="fill:rgb(172,213,230);fill-rule:nonzero;"/>
            <path d="M86.483,323.512C86.484,323.985 86.321,324.541 86.512,324.917C87.841,327.525 87.16,329.352 84.499,330.491C81.535,330.491 78.569,330.538 75.606,330.478C71.822,330.401 68.654,329.106 66.636,325.834C66.838,323.839 69.212,325.109 69.558,323.568C73.927,322.812 78.442,322.981 82.694,321.49C83.989,322.103 84.713,323.788 86.483,323.512Z" style="fill:rgb(254,242,200);fill-rule:nonzero;"/>
            <path d="M54.537,287.528C53.604,287.839 53.487,288.574 53.464,289.43C53.42,291.061 53.009,292.55 51.518,293.504C50.448,292.743 49.835,291.819 50.437,290.463C53.02,284.582 56.415,279.232 60.973,274.682C63.697,271.963 64.093,271.917 67.417,273.481C69.033,274.242 70.836,274.789 71.827,276.491C69.618,276.485 67.461,277.045 65.269,277.24C63.095,277.433 60.347,277.975 60.867,281.69C61.061,283.074 59.789,284.589 58.455,285.569C57.377,286.68 56.057,287.305 54.537,287.528Z" style="fill:rgb(119,160,179);fill-rule:nonzero;"/>
            <path d="M81.339,316.539C82.097,314.592 81.767,311.976 85.674,313.253C88.222,314.086 90.676,311.649 92.505,309.51C93.359,308.706 94.157,307.735 95.537,308.485C95.742,309.861 95.427,311.028 94.391,312.047C92.061,314.34 89.729,316.638 87.521,319.046C86.112,320.583 84.386,320.583 82.577,320.542C82.047,320.882 81.565,320.824 81.129,320.368C80.382,319.047 80.305,317.762 81.339,316.539Z" style="fill:rgb(145,164,181);fill-rule:nonzero;"/>
            <path d="M50.437,290.464C50.826,291.467 51.724,292.29 51.518,293.505C51.395,296.328 54.905,296.782 55.281,299.28C59.347,297.395 59.044,301.161 59.368,302.928C59.964,306.18 61.914,304.396 63.387,304.497C64.111,305.809 65.772,306.634 65.465,308.484C64.076,308.433 62.687,308.383 61.298,308.332C58.165,304.071 54.088,300.703 50.398,296.978C48.821,295.386 48.267,293.755 48.575,291.68C48.734,290.604 49.635,290.594 50.437,290.464Z" style="fill:rgb(170,185,179);fill-rule:nonzero;"/>
            <path d="M102.57,294.496C104.267,295.462 103.05,297.2 103.621,298.464C103.296,299.345 102.786,299.317 102.211,298.721C95.998,292.291 89.37,286.267 83.462,279.538L83.532,279.481C86.212,278.113 87.279,280.482 88.819,281.756C90.495,283.599 92.269,285.347 94.087,287.05C96.917,289.53 98.883,292.992 102.57,294.496Z" style="fill:rgb(178,171,160);fill-rule:nonzero;"/>
            <path d="M107.505,324.518C105.088,326.296 103.885,328.943 102.522,331.475C101.514,332.281 100.52,332.378 99.544,331.421C100.902,329.584 102.188,327.688 103.635,325.924C105.706,323.4 105.667,320.465 105.54,317.48C105.417,316.803 104.867,316.146 105.442,315.435C105.495,315.164 105.537,314.891 105.566,314.617C106.7,313.901 106.947,314.923 107.395,315.551C107.444,317.9 107.494,320.249 107.543,322.598C108.108,323.249 108.025,323.888 107.505,324.518Z" style="fill:rgb(170,138,106);fill-rule:nonzero;"/>
            <path d="M93.646,304.302C92.878,303.02 92.11,301.738 91.342,300.456C91.065,298.981 92.269,298.502 93.126,297.783C93.933,297.309 94.744,296.833 95.693,297.448C96.309,298.108 96.925,298.769 97.54,299.429C97.553,302.102 98.843,305.795 93.646,304.302Z" style="fill:rgb(224,117,125);fill-rule:nonzero;"/>
            <path d="M85.439,293.523C84.537,292.954 83.079,292.65 84.433,291.102C85.736,289.613 85.341,287.504 83.897,287.788C79.428,288.666 80.821,285.446 80.411,283.43C80.643,282.926 81.067,282.61 81.488,283.059C83.822,285.545 86.631,287.579 88.544,290.464C88.458,291.148 88.08,291.662 87.593,292.115C86.945,292.688 86.284,293.247 85.439,293.523Z" style="fill:rgb(181,188,193);fill-rule:nonzero;"/>
            <path d="M93.646,304.302C94.759,304.39 96.11,304.892 96.39,303.165C96.603,301.853 97.757,300.854 97.541,299.43C100.339,303.215 97.577,305.77 95.537,308.485C94.517,308.799 93.708,309.736 92.505,309.51C92.022,307.585 93.594,306.11 93.646,304.302Z" style="fill:rgb(130,154,202);fill-rule:nonzero;"/>
            <path d="M107.395,315.551C104.698,318.256 104.924,316.738 105.566,314.617C106.168,313.291 107.137,312.007 107.291,310.631C108.455,306.799 99.4936,295.879 103.593,298.29C108.116,303.037 110.522,311.823 107.395,315.551Z" style="fill:rgb(196,195,193);fill-rule:nonzero;"/>
            <path d="M77.521,281.465C77.488,283.506 76.31,284.704 74.508,285.307C73.817,285.538 73.273,284.866 72.969,284.349C71.681,282.154 73.503,280.893 74.56,279.412C75.985,279.465 76.953,280.176 77.521,281.465Z" style="fill:rgb(111,222,234);fill-rule:nonzero;"/>
            <path d="M81.469,320.399C81.838,320.447 82.208,320.495 82.577,320.542C82.517,320.87 82.556,321.185 82.695,321.489C80.436,323.386 77.73,323.556 74.958,323.526C73.159,323.506 71.358,323.551 69.559,323.568C69.092,323.47 68.626,323.372 68.159,323.274C68.14,323.016 68.121,322.758 68.103,322.5C70.545,322.5 72.988,322.458 75.429,322.514C77.167,322.554 78.796,322.511 79.513,320.521C80.133,319.978 80.782,319.895 81.469,320.399Z" style="fill:rgb(225,179,120);fill-rule:nonzero;"/>
            <path d="M94.488,314.501C97.071,311.981 98.574,311.825 100.453,313.88C102.144,315.729 101.93,316.998 99.502,319.504C98.588,319.994 98.343,319.386 98.151,318.687C98.779,316.4 97.402,315.667 95.528,315.322C95.11,315.138 94.761,314.867 94.488,314.501Z" style="fill:rgb(178,177,176);fill-rule:nonzero;"/>
            <path d="M87.495,291.495C87.611,290.914 87.977,290.587 88.544,290.464C91.271,292.44 93.59,294.835 95.693,297.449C94.957,297.791 94.222,298.133 93.486,298.475C91.594,297.552 90.951,295.29 89.067,294.358C88.098,293.648 87.44,292.766 87.495,291.495Z" style="fill:rgb(161,167,171);fill-rule:nonzero;"/>
            <path d="M98.584,324.488C96.779,328.279 93.217,330.332 89.621,329.41C88.26,329.061 88.291,328.149 89.568,327.456C90.858,329.342 92.309,328.632 93.751,327.695C95.372,326.641 96.974,325.558 98.584,324.488Z" style="fill:rgb(186,174,158);fill-rule:nonzero;"/>
            <path d="M98.539,318.569C98.612,319.136 98.961,319.419 99.502,319.503C97.686,321.315 96.065,320.656 94.581,319.06C93.22,317.596 92.85,316.054 94.487,314.501C94.832,314.508 95.176,314.515 95.521,314.522C96.088,316.199 97.442,317.288 98.539,318.569Z" style="fill:rgb(199,198,198);fill-rule:nonzero;"/>
            <path d="M105.442,315.435C105.228,316.129 107.042,316.725 105.54,317.48C103.575,319.567 99.618,324.538 97.047,326.021C98.036,322.576 103.224,317.98 105.442,315.435Z" style="fill:rgb(180,172,160);fill-rule:nonzero;"/>
            <path d="M138.512,415.499C141.685,414.172 141.906,410.222 144.687,408.547C144.529,411.78 142.602,414.381 141.374,417.182C138.646,423.403 136.638,429.996 132.529,435.559C132.206,432.509 132.941,429.667 134.334,426.993C136.237,423.341 137.073,419.312 138.512,415.499Z" style="fill:rgb(70,16,28);fill-rule:nonzero;"/>
            <path d="M132.433,447.423C129.928,449.534 130.692,453.237 128.501,455.502C128.192,452.487 128.659,449.565 129.857,446.813C131.294,443.514 130.834,439.793 132.304,436.521C132.4,437.195 132.496,437.87 132.592,438.544C134.341,441.178 134.457,443.82 132.629,446.471C132.51,446.778 132.445,447.095 132.433,447.423Z" style="fill:rgb(70,16,28);fill-rule:nonzero;"/>
            <path d="M81.469,320.399C80.817,320.44 80.165,320.48 79.512,320.521C75.946,319.558 72.426,318.311 68.8,317.715C65.491,317.171 63.871,314.982 62.091,312.636C61.065,311.285 62.205,310.556 62.543,309.571C66.009,308.838 69.187,311.19 72.647,310.513C75.545,312.522 78.443,314.531 81.34,316.54C81.382,317.826 81.426,319.112 81.469,320.399Z" style="fill:rgb(254,242,201);fill-rule:nonzero;"/>
            <path d="M99.544,331.421C100.537,331.439 101.529,331.457 102.522,331.475C102.542,335.87 101.181,339.13 96.281,340.127C93.666,340.659 91.641,343.411 88.523,342.315C87.883,341.017 86.861,339.893 86.661,337.962C89.3,336.877 92.422,338.091 95.072,336.602C96.107,336.021 97.116,335.666 97.546,334.482C98.765,333.822 98.866,332.433 99.544,331.421Z" style="fill:rgb(241,207,146);fill-rule:nonzero;"/>
            <path d="M250.485,369.509C246.678,366.102 244.105,361.7 241.696,357.366C239.923,354.176 239.187,350.359 237.831,346.865C237.101,344.985 237.569,342.64 237.496,340.505C240.151,343.711 241.107,347.779 242.819,351.437C245.588,357.353 248.683,363.169 250.485,369.509Z" style="fill:rgb(49,14,44);fill-rule:nonzero;"/>
            <path d="M84.607,272.683C84.936,273.234 85.264,273.785 85.593,274.335C84.824,275.684 86.321,278.153 83.534,278.505C80.897,276.027 78.277,273.528 75.61,271.082C74.815,270.353 74.364,269.56 74.482,268.477C78.822,267.554 81.803,269.906 84.607,272.683Z" style="fill:rgb(251,240,201);fill-rule:nonzero;"/>
            <path d="M83.533,278.505C84.79,277.981 84.724,276.928 84.257,276.034C83.344,274.285 84.806,274.623 85.593,274.335C87.144,276.233 88.615,278.18 89.455,280.521C88.916,281.073 89.307,282.107 88.436,282.488C86.545,281.904 85.918,279.259 83.532,279.481C83.53,279.156 83.53,278.831 83.533,278.505Z" style="fill:rgb(231,200,152);fill-rule:nonzero;"/>
            <path d="M65.465,308.484C65.267,308.239 65.085,307.795 64.868,307.778C62.346,307.574 62.455,306.232 63.387,304.497C65.06,302.166 66.839,303.889 67.854,304.879C69.374,306.363 66.702,307.084 66.543,308.412C66.184,308.436 65.824,308.46 65.465,308.484Z" style="fill:rgb(233,234,223);fill-rule:nonzero;"/>
            <g>
                <path d="M175.571,219.523C175.836,218.68 176.196,217.632 177.599,216.738C182.875,210.941 189.126,210.767 196.092,215.036C202.384,218.774 205.319,226.048 202.936,232.546C201.584,236.232 199.61,239.381 195.027,239.8C189.619,240.294 185.229,239.027 182.36,233.976C180.046,229.902 180.5,226.059 182.738,222.209C183.403,221.065 184.578,220.356 185.355,219.285C183.016,220.001 180.9,221.289 178.581,221.853C177.125,222.206 174.567,222.857 175.571,219.523Z" style="fill:rgb(9,9,8);fill-rule:nonzero;"/>
            </g>
            <g>
                <path d="M175.571,219.523C175.541,220.418 175.658,221.113 175.957,221.48C176.342,221.952 177.027,221.882 178.089,220.999C181.238,218.38 184.946,217.936 189.277,217.763C185.524,220.448 182.462,223.047 182.064,227.709C181.683,232.161 185.296,237.869 189.629,238.48C193.317,239 197.228,239.842 199.927,235.839C203.007,231.271 203.346,226.509 200.832,221.752C196.942,214.392 188.444,211.461 180.905,215.218C180.019,215.66 178.499,216.324 177.599,216.737C177.481,215.772 176.123,215.002 176.77,214.041C177.77,212.556 178.892,211.093 180.783,210.518C183.916,209.566 187.245,209.754 190.394,208.761C191.305,208.474 192.774,208.988 193.62,209.623C197.597,212.613 202.252,214.998 203.885,220.268C204.03,220.735 204.209,221.265 204.543,221.59C208.301,225.248 207.605,229.657 206.421,233.971C205.677,236.681 203.694,238.973 201.62,240.66C197.886,243.697 193.011,244.616 188.62,243.243C185.559,242.286 182.112,240.042 180.797,236.785C179.436,233.414 177.64,230.281 176.246,226.947C175.726,225.705 174.973,224.788 176.406,223.494C177.78,222.253 175.948,222.709 175.563,222.431C174.193,221.44 173.937,220.489 175.571,219.523Z" style="fill:rgb(254,243,198);fill-rule:nonzero;"/>
            </g>
            <g>
                <path d="M106.533,218.517C106.37,218.547 104.851,221.676 103.391,220.834C101.535,219.764 102.724,217.84 103.515,216.467C104.859,214.134 106.559,212.105 109.48,211.657C111.118,211.405 112.744,211.047 114.389,210.878C125.216,209.762 130.468,219.572 128.406,228.113C127.46,232.029 122.838,234.937 118.355,234.601C114.555,234.317 110.726,229.77 110.253,225.661C110.028,223.709 110.961,217.669 112.307,216.362C110.249,216.982 108.552,218.185 106.533,218.517Z" style="fill:rgb(11,11,9);fill-rule:nonzero;"/>
            </g>
            <g>
                <path d="M138.998,246.225C142.317,244.553 143.648,239.378 148.21,240.652C150.765,241.366 154.243,241.007 155.538,244.982C150.012,246.532 144.346,244.052 138.998,246.225Z" style="fill:rgb(246,220,162);fill-rule:nonzero;"/>
            </g>
            <g>
                <path d="M132.331,260.248C132.995,259.893 139.711,263.218 144.555,263.089C145.333,263.069 157.27,261.578 156.606,261.933C156.245,262.126 159.635,262.886 156.375,263.741C153.632,264.461 144.574,265.323 140.569,265.219C136.205,263.741 131.667,260.603 132.331,260.248Z" style="fill:rgb(233,199,144);fill-rule:nonzero;"/>
            </g>
            <g>
                <path d="M106.533,218.517C108.828,215.986 111.457,214.212 115.629,214.574C112.359,216.66 110.808,218.343 110.679,220.889C109.297,220.098 107.915,219.308 106.533,218.517Z" style="fill:rgb(243,233,183);fill-rule:nonzero;"/>
            </g>
            <g>
                <path d="M151.711,263.743C154.929,262.039 159.962,260.965 162.448,259.099C163.297,258.462 164.399,258.095 165.051,259.033C165.802,260.112 164.72,260.892 163.894,261.279C160.811,262.72 155.762,264.716 151.711,263.743Z" style="fill:rgb(230,194,137);fill-rule:nonzero;"/>
            </g>
            <path d="M274.704,222.504C272.978,222.908 271.149,223.524 270.234,220.988C268.204,215.358 263.645,208.602 262.261,202.703C264.846,204.934 267.294,209.71 268.913,212.562C270.788,215.866 272.89,219.166 274.704,222.504Z" style="fill:rgb(236,200,136);fill-rule:nonzero;"/>
            <path d="M250.499,186.251C250.406,185.122 250.418,183.971 250.182,182.873C250.032,182.173 249.747,181.594 250.758,181.57C251.202,181.559 251.962,181.703 252.053,181.961C253.846,187.058 257.914,190.807 260.12,195.653C260.558,196.614 260.363,197.168 259.418,197.528C254.793,195.075 253.008,190.377 250.499,186.251Z" style="fill:rgb(17,14,11);fill-rule:nonzero;"/>
            <path d="M257.464,197.516C255.623,197.046 255.113,200.335 252.79,199.156C252.451,198.984 253.259,201.768 251.612,202.49C251.263,198.504 250.913,194.518 250.564,190.532C254.648,191.098 256.265,194.1 257.464,197.516Z" style="fill:rgb(252,237,181);fill-rule:nonzero;"/>
            <path d="M265.185,206.472C262.736,206.004 247.355,192.619 250.533,186.045C254.528,188.438 255.608,193.261 258.454,196.542C258.623,196.737 259.555,197.753 260.369,198.896C261.002,199.784 265.11,205.758 265.185,206.472Z" style="fill:rgb(233,199,137);fill-rule:nonzero;"/>
            <path d="M152.091,295.53C160.214,296.215 168.332,297.019 176.502,296.517C179.157,296.576 180.651,301.369 180.505,301.478C180.689,305.529 180.95,309.587 179.45,313.491C178.734,315.369 178.157,317.327 176.499,318.671C176.204,319.021 175.885,319.347 175.562,319.67C173.808,321.989 171.758,323.695 168.571,322.999C168.083,323.018 167.686,322.838 167.379,322.459C163.836,312.6 158.909,303.528 152.091,295.53Z" style="fill:rgb(48,13,38);fill-rule:nonzero;"/>
            <path d="M127.439,359.46C128.066,359.763 128.677,360.215 128.468,360.945C127.406,364.659 128.334,368.19 129.3,371.824C127.404,368.954 125.621,366.32 125.361,362.607C124.98,357.164 122.385,352.291 119.261,347.878C117.764,345.763 116.443,343.425 114.318,341.777C113.601,341.221 113.471,340.404 113.597,339.54C113.804,339.532 114.011,339.524 114.217,339.516C119.423,343.917 123.219,349.27 125.435,355.759C125.878,357.056 126.056,358.62 127.439,359.46Z" style="fill:rgb(33,13,30);fill-rule:nonzero;"/>
            <path d="M167.378,322.457C167.815,322.506 168.252,322.555 168.689,322.604C168.911,322.811 169.018,323.042 169.008,323.296C168.998,323.561 168.964,323.694 168.907,323.694C168.789,323.972 168.646,324.236 168.478,324.486C162.732,323.633 158.32,326.11 154.436,330.021C153.652,330.811 152.775,332.504 151.474,330.46C156.128,326.507 160.367,321.728 167.378,322.457Z" style="fill:rgb(55,31,48);fill-rule:nonzero;"/>
            <path d="M148.379,334.03C148.642,335.262 148.297,336.266 147.364,337.137C143.161,341.062 139.273,345.251 136.25,350.193C135.768,350.981 134.855,351.508 134.12,352.131C134.066,352.176 133.808,352.053 133.706,351.948C133.598,351.838 133.562,351.656 133.494,351.506C137.353,344.742 142.804,339.333 148.379,334.03Z" style="fill:rgb(41,20,38);fill-rule:nonzero;"/>
            <path d="M102.57,294.496C101.74,294.645 101.04,295.756 100.047,294.587C97.971,292.143 95.241,290.3 93.503,287.536C94.363,286.671 95.3,286.963 96.244,287.352C97.887,290.145 101.121,291.531 102.57,294.496Z" style="fill:rgb(239,204,150);fill-rule:nonzero;"/>
            <path d="M96.244,287.352C95.33,287.413 94.416,287.475 93.503,287.536C91.429,286.24 89.754,284.544 88.436,282.488C88.561,281.721 88.312,280.761 89.455,280.521C91.274,283.24 93.924,285.132 96.244,287.352Z" style="fill:rgb(177,142,105);fill-rule:nonzero;"/>
            <path d="M114.217,339.515C114.01,339.519 113.803,339.527 113.597,339.539C112.034,338.514 111.843,336.845 112.159,335.342C112.78,332.392 111.5,328.496 111.751,325.56C112.003,325.165 113.035,326.091 113.287,326.507C114.624,327.875 114.573,329.493 114.072,331.156C113.226,333.964 113.567,336.739 114.217,339.515Z" style="fill:rgb(41,20,37);fill-rule:nonzero;"/>
            <path d="M113.286,326.507C113.034,326.507 112.783,326.507 112.531,326.507C111.204,324.962 108.71,326.367 107.504,324.518C107.517,323.878 107.529,323.238 107.542,322.598C111.527,322.52 111.527,322.52 113.286,326.507Z" style="fill:rgb(47,24,41);fill-rule:nonzero;"/>
            <path d="M188.519,319.47C189.855,319.523 191.192,319.576 192.528,319.628C193.864,321.523 193.709,323.509 192.894,325.538C188.94,328.226 184.482,328.322 180.076,327.529C175.286,326.667 173.536,322.873 175.463,318.446L175.508,318.455C177.853,316.777 180.024,317.815 182.399,318.592C184.312,319.219 186.38,319.901 188.519,319.47Z" style="fill:rgb(253,160,5);fill-rule:nonzero;"/>
            <path d="M180.505,301.477C180.393,301.346 180.265,300.75 180.313,300.584C180.81,300.56 181.308,300.524 181.805,300.513C183.996,300.464 185.904,300.313 186.668,303.358C187.696,307.457 187.872,307.891 185.199,310.314C184.189,311.229 183.1,311.838 181.545,311.975C181.545,309.289 181.557,306.645 181.538,304.002C181.532,303.038 181.721,301.961 180.505,301.477Z" style="fill:rgb(251,234,187);fill-rule:nonzero;"/>
            <path d="M192.423,325.464C192.458,323.519 192.493,321.573 192.528,319.628C192.879,319.591 193.23,319.554 193.582,319.517C193.722,319.606 193.957,319.669 193.987,319.787C195.094,324.045 193.835,331.469 191.348,335.464C190.265,334.358 190.262,332.966 190.3,331.561C190.601,329.39 190.991,327.245 192.423,325.464Z" style="fill:rgb(63,17,21);fill-rule:nonzero;"/>
            <path d="M188.519,319.47C187.823,320.969 186.753,320.478 185.612,320.091C182.341,318.982 178.993,318.275 175.507,318.455C176.821,316.8 178.135,315.145 179.449,313.49C179.991,316.734 180.814,317.806 183.798,318.327C185.41,318.608 187.068,318.564 188.519,319.47Z" style="fill:rgb(226,130,19);fill-rule:nonzero;"/>
            <path d="M191.361,331.505C191.357,332.825 190.947,338.03 189.527,338.606C189.38,337.843 189.482,337.038 188.593,336.53C186.457,335.312 184.781,333.584 183.457,331.516C186.089,329.527 188.724,329.611 191.361,331.505Z" style="fill:rgb(233,88,1);fill-rule:nonzero;"/>
            <path d="M191.361,331.505C188.726,331.509 186.091,331.513 183.457,331.516C182.413,331.131 181.52,330.487 180.282,330.457C176.294,330.362 172.974,328.981 171.62,324.84C171.09,323.219 170.019,323.574 168.907,323.694C168.834,323.331 168.762,322.967 168.689,322.604C170.572,322.475 172.556,322.706 173.398,320.27C173.679,319.456 174.406,318.637 175.463,318.446C174.697,323.605 177.057,326.16 182.252,326.556C185.771,326.825 188.999,325.449 192.422,325.463C192.871,327.619 191.896,329.523 191.361,331.505Z" style="fill:rgb(229,85,1);fill-rule:nonzero;"/>
            <path d="M132.629,446.471C132.617,443.829 132.604,441.186 132.592,438.544C133.817,438.625 134.687,437.943 136.242,439.302C139.777,442.393 144.136,444.574 148.543,446.452C151.195,447.582 153.795,448.833 156.323,449.987C156.075,451.848 154.875,451.351 153.972,451.485C147.212,452.486 140.998,450.034 134.639,448.473C133.497,448.193 133.647,446.781 132.629,446.471Z" style="fill:rgb(253,161,5);fill-rule:nonzero;"/>
            <path d="M66.571,299.074C67.592,298.004 68.605,296.942 69.548,295.954C70.91,295.82 71.286,296.928 71.992,297.51C73.247,298.544 74.059,299.621 72.435,301.13C71.16,302.313 70.168,303.049 69.099,300.945C68.653,300.067 67.031,300.981 66.571,299.074Z" style="fill:rgb(228,232,235);fill-rule:nonzero;"/>
            <path d="M78.264,304.751C78.161,305.584 77.13,305.567 76.502,305.992C75.22,306.86 73.756,306.746 73.13,305.381C72.566,304.152 73.565,302.927 74.517,302.068C75.8,300.909 76.562,302.135 77.349,302.905C77.801,303.349 78.349,303.777 78.264,304.751Z" style="fill:rgb(224,160,226);fill-rule:nonzero;"/>
            <path d="M54.537,287.528C55.258,285.704 56.658,285.241 58.455,285.57C58.43,286.835 61.309,287.174 59.438,289.12C57.741,290.886 56.587,289.521 55.312,288.723C54.947,288.496 54.789,287.936 54.537,287.528Z" style="fill:rgb(230,232,235);fill-rule:nonzero;"/>
            <path d="M89.547,293.513C91.399,294.739 93.303,295.924 93.486,298.475C93.163,299.559 91.593,299.294 91.342,300.457C89.804,299.098 89.415,297.31 89.445,295.366C88.928,294.718 88.886,294.096 89.547,293.513Z" style="fill:rgb(154,204,225);fill-rule:nonzero;"/>
            <path d="M89.547,293.513C89.513,294.131 89.479,294.748 89.445,295.366C87.046,297.064 86.481,294.775 85.44,293.523C85.382,292.094 86.029,291.379 87.496,291.495C88.696,291.642 88.323,293.389 89.547,293.513Z" style="fill:rgb(144,151,154);fill-rule:nonzero;"/>
            <path d="M98.539,318.569C94.542,318.137 94.6656,317.86 95.9676,314.676C96.7746,314.659 97.171,314.327 97.935,314.499C100.751,315.131 100.86,315.992 98.539,318.569Z" style="fill:rgb(233,232,232);fill-rule:nonzero;"/>
        </g>
    </g>
</svg>
