<?xml version="1.0" encoding="utf-8"?>
<!-- Generator: Adobe Illustrator 17.0.0, SVG Export Plug-In . SVG Version: 6.00 Build 0)  -->
<!DOCTYPE svg PUBLIC "-//W3C//DTD SVG 1.1//EN" "http://www.w3.org/Graphics/SVG/1.1/DTD/svg11.dtd">
<svg version="1.1" xmlns="http://www.w3.org/2000/svg" xmlns:xlink="http://www.w3.org/1999/xlink" x="0px" y="0px" width="374px"
	 height="650px" viewBox="114.5 78.5 374 650" enable-background="new 114.5 78.5 374 650" xml:space="preserve">
<g id="Layer_2">
	<path fill="#FFFFFF" d="M477.245,246.517c-1.537-8.124-5.689-15.417-8.421-23.178c-1.915-5.44-3.879-10.925-6.507-16.037
		c-6.922-13.466-13.556-27.07-20.32-40.611c-2.717-5.44-5.32-11.001-9.207-15.914c-4.629-5.85-9.247-11.684-13.976-17.451
		c-6.579-8.022-13.762-15.212-21.549-21.953c-7.951-6.883-17.028-11.442-27.028-14.577c-5.374-1.685-10.873-2.808-16.248-4.446
		c-5.578-1.7-11.301-2.921-17.104-3.544c-14.368-1.542-27.949,1.81-40.597,8.158c-11.708,5.876-22.857,12.871-34.218,19.431
		c-2.001,1.156-3.988,2.328-5.841,3.777c-8.108,6.339-16.38,12.47-24.504,18.789c-8.835,6.871-16.063,15.358-23.287,23.807
		c-4.499,5.262-8.633,10.834-13.002,16.209c-0.682,0.839-1.53,2.459-2.67,1.826c-2.661-1.478-5.545-0.438-8.279-1.301
		c-6.712-2.119-13.64-3.575-20.297-5.839c-2.684-0.913-4.753-0.308-6.308,1.183c-1.78,1.707-2.433,4.09-1.004,6.753
		c2.172,4.046,3.986,8.211,7.43,11.512c3.021,2.896,6.288,5.68,8.558,9.471c-3.974,1.643-7.37,3.631-10.743,5.728
		c-9.537,5.931-18.265,13.427-29.992,15.19c-2.323,0.349-4.467,2.277-5.061,4.926c-0.938,4.186,1.743,7.356,6.318,7.558
		c4.466,0.197,8.82,1.274,13.231,1.679c6.347,0.583,12.638,2.512,19.174,0.611c2.4-0.698,5.213-1.12,8.15-0.05
		c-1.258,2.222-2.358,4.427-3.693,6.475c-7.784,11.953-12.302,25.346-16.996,38.644c-1.759,4.984,2.059,9.46,6.951,8.618
		c1.963-0.338,3.106-1.616,4.154-3.236c2.561-3.96,4.787-8.185,8.509-11.946c0.522,5.353-0.942,9.971-1.345,14.678
		c-0.466,5.446-1.564,10.842-1.497,16.331c0.04,3.299,1.929,5.606,4.732,6.165c2.95,0.589,5.429-0.621,6.965-3.557
		c0.694-1.326,1.16-2.771,1.796-4.324c2.162,3.267,1.323,6.763,1.919,9.993c1.318,7.14,2.217,14.358,3.361,21.532
		c0.204,1.28-0.538,1.786-1.334,2.381c-1.461,1.092-2.764,0.116-4.13-0.285c-5.02-1.475-9.902-1.271-13.928,2.357
		c-7.536,6.792-14.087,14.447-18.502,23.675c-2.038,4.26-3.249,8.871-0.534,13.27c2.41,3.904,5.123,7.654,9.474,9.802
		c1.444,0.713,3.142,1.64,3.099,3.534c-0.049,2.173,1.242,3.668,1.994,5.465c1.518,3.626,5.003,6.411,4.408,11.026
		c-0.14,1.086,1.402,2.565,2.44,3.589c2.104,2.075,4.259,4.154,7.184,4.948c0,0.494,0.098,0.853-0.014,1.125
		c-4.117,10.012,4.056,19.52,13.06,20.467c3.223,0.339,5.474,1.497,7.24,4.363c8.34,13.534,18.648,25.613,28.612,37.934
		c1.614,1.995,3.275,4.168,5.929,5.095c2.369,0.827,2.645,1.993,1.381,4.386c-4.384,8.299-8.289,16.852-12.671,25.152
		c-1.781,3.373-1.636,5.981,0.697,8.987c3.421,4.407,6.076,9.411,10.348,13.151c1.602,1.402,2.07,2.881,0.654,4.734
		c-5.657,7.404-8.732,15.892-10.91,24.878c-1.033,4.264-0.852,8.591-1.699,12.796c-3.34,16.589-0.849,33.234-0.326,49.82
		c0.19,6.009,1.829,12.18,3.343,18.129c3.485,13.696,6.667,27.532,13.719,40.027c1.225,2.17,2.245,4.46,3.303,6.72
		c4.141,8.842,11.314,12.33,21.035,10.469c2.66-0.509,5.261-1.717,7.885-1.556c0.526,2.01,0.89,3.611,1.366,5.178
		c1.049,3.454,2.907,5.638,6.627,7.185c3.794,1.578,7.61,2.011,11.451,2.845c8.713,1.891,17.219,0.91,25.641-1.629
		c1.302-0.393,2.45-1.012,3.44-1.951c3.387-3.211,6.872-6.353,9.648-10.116c3.075-4.169,6.339-8.744,6.308-13.871
		c-0.042-7.028,0.701-13.96,1.15-20.918c0.698-10.817-0.262-21.601-0.076-32.399c0.208-12.069-2.36-23.799-4.476-35.563
		c-1.232-6.847-2.958-13.596-5.051-20.285c-2.527-8.076-5.348-16.085-6.952-24.472c-0.869-4.545,0.245-7.74,2.764-11.485
		c3.897-5.794,8.635-9.417,15.333-11.667c8.096-2.719,13.703-8.928,17.584-16.59c1.909-3.77,3.045-7.798,4.308-11.794
		c1.21-3.83,4.499-6.58,5.101-10.887c0.409-2.928,1.778-6.153,3.739-8.321c2.363-2.613,3.858-5.563,5.156-8.601
		c2.787-6.526,4.986-13.579,3.06-20.491c-2.576-9.245-5.583-18.454-10.03-27.07c-3.536-6.85-6.536-13.919-9.145-21.19
		c-2.089-5.821-4.953-11.347-8.271-16.702c1.002-0.391,2.069-0.83,3.152-1.226c17.225-6.305,33.692-14.238,49.695-23.161
		c1.58-0.881,3.138-1.79,4.595-2.93c6.364-4.982,12.858-9.798,19.27-14.721c11.599-8.906,22.64-18.457,31.996-29.738
		c5.963-7.189,11.581-14.581,15.337-23.387c3.729-8.744,5.939-17.684,6.703-27.051C480.658,262.702,478.773,254.592,477.245,246.517
		z M257.377,409.987c-5.025,5.216-9.944,10.497-14.746,17.533c-1.004-4.95-3.868-7.402-6.575-9.917
		c-1.601-1.488-2.35-3.071-2.09-5.218c0.757-6.244-0.564-11.784-5.364-16.235c-1.027-0.953-1.089-2.536-0.508-3.718
		c0.842-1.713,0.54-3.647,1.214-5.269c1.29-3.105,0.146-5.799-1.67-7.798c-3.427-3.773-4.947-8.308-6.87-13.67
		c12.103,5.286,24.158,7.891,36.045,10.862c5.707,1.426,9.04,4.592,11.876,9.133c1.994,3.193,3.894,6.412,5.095,10.362
		C267.585,399.724,262.422,404.75,257.377,409.987z"/>
</g>
<g id="Layer_1">
	<g>
		<g>
			<path display="none" fill="#010101" d="M107,69c133.333,0,266.667,0,400,0c0,218.667,0,437.333,0,656c-133.333,0-266.667,0-400,0
				C107,506.333,107,287.667,107,69z"/>
			<path fill="#42133B" d="M317.996,96.037c6.144-1.602,12.338-2.422,18.663-1.197c4.843,0.938,9.83,1.191,14.477,3.056
				c2.785,2.18,6.141,3.104,9.406,4.18c19.406,6.391,34.433,19.037,48.02,33.685c6.332,6.827,11.849,14.352,17.778,21.525
				c4.389,5.31,6.691,11.785,9.133,18.145c0.003,6.516,3.364,12.103,5.008,18.162c2.708,9.983,4.991,20,3.215,30.462
				c-0.701,4.127-0.427,8.309-0.337,12.458c0.117,5.386-2.259,9.406-5.751,13.314c-6.735,7.537-15.282,10.08-24.946,11.882
				c-12.699,2.367-22.313-1.597-31.129-10.124c-4.281-4.14-9.193-7.631-12.998-12.292c-1.516-1.067-2.794-2.343-3.578-4.053
				c-0.485-1.24-0.905-2.58-1.805-3.542c-8.608-9.189-15.805-19.621-25.979-27.462c-6.616-5.099-12.791-10.365-20.978-13.024
				c-4.817-1.565-8.208-6.008-13.085-8.077c-18.223-7.734-37.047-11.371-56.887-10.303c-6.308,0.339-12.609,0.697-18.9,1.252
				c-3.4,0.3-6.201-0.834-8.599-3.168c-3.42-3.328-3.483-5.892-0.226-9.385c2.495-2.677,5.327-5.025,7.658-7.86
				c4.309-5.352,9.666-9.498,15.367-13.224c11.906-7.781,22.668-17.439,36.401-22.227c6.65-7.019,16.275-9.333,23.762-15.026
				C306.552,99.493,312.969,99.352,317.996,96.037z"/>
			<path fill="#3A68AF" d="M225.078,619.024c-0.377-8.435-1.349-16.898-0.95-25.296c0.342-7.182,1.479-14.422,3.606-21.409
				c1.248-4.101,2.172-8.304,3.503-12.375c2.065-6.316,4.999-12.191,9.685-17.042c5.765,3.6,11.828,6.624,18.06,9.32
				c2.003,1.551,3.944,3.206,6.461,3.924c1.37,0.644,2.526,1.549,3.427,2.772c0.796,1.684,0.949,3.39,0.152,5.122
				c1.263,9.151,0.846,18.359,0.796,27.542c-0.039,7.178,0.829,14.23,1.671,21.334c1.576,13.292,4.927,26.295,6.195,39.617
				c0.346,3.635,0.147,7.324,0.162,10.988c0.03,7.487,0.036,14.974,0.051,22.46c-3.662-1.941-2.066-5.346-2.309-8.241
				c0.211-3.468,0.04-6.936,0.141-10.976c-8.633,5.365-17.37,7.292-26.695,3.428c-8.091-3.353-13.897-8.754-16.115-17.608
				c-1.084-4.326-2.674-8.503-3.454-12.946c-0.729-4.156,0.299-7.46,3.07-10.497c4.184-4.586,4.074-4.877-1.897-7.026
				C228.612,621.388,226.48,620.867,225.078,619.024z"/>
			<path fill="#3A68AF" d="M283.908,667.101c-1.269-1.754-0.933-3.829-0.952-5.749c-0.086-8.599-1.701-17.017-2.639-25.518
				c-1.121-10.153-3.454-20.217-2.228-30.605c1.656-14.027,0.797-28.148,0.933-42.23c0.657-1.061-0.185-2.325,0.449-3.394
				c0.365-0.938,0.854-1.797,1.582-2.508c5.496-3.283,11.983-3.246,17.856-5.299c1.843-0.644,3.825-0.947,5.712-1.507
				c3.381,0.645,5.949-0.88,8.245-3.124c-0.344,8.119,2.729,15.598,4.537,23.291c1.471,6.26,3.991,12.272,5.497,18.525
				c1.78,7.39,3.112,14.893,4.052,22.459c0.48,3.866,1.375,7.681,2.082,11.52c-1.707,5.123-0.04,10.283,0.88,15.074
				c3.972,20.687-18.831,37.805-36.411,30.567c-1.991-0.82-4.392-1.118-5.869-2.594C285.31,663.69,284.873,665.859,283.908,667.101z
				"/>
			<path fill="#F4D596" d="M196.881,342.88c-0.954-3.175-3.952-5.897-2.042-9.72c0.36-0.721,0.067-1.587-0.765-2.124
				c-0.383-0.247-0.797-0.635-0.932-1.046c-0.63-1.924,1.066-4.047,0.282-5.569c-0.948-1.84-2.152-3.417-0.951-5.366
				c1.29-2.092-2.491-2.248-1.355-4.117c1.269-4.788-0.944-9.279-1.185-13.938l0.037,0.061c-0.301-5.011-1.653-9.869-2.165-14.845
				c0.092-1.525,0.582-2.975,1.476-4.164c6.55-8.71,12.409-17.97,21.729-24.297c9.048-6.142,17.614-12.97,26.151-19.819
				c15.804-9.94,32.666-17,51.348-19.389c7.485-0.957,14.868-1.937,22.038,1.376c1.642,0.681,3.334,1.233,5.025,1.785
				c10.272,4.884,18.163,12.321,25.034,21.41c10.504,13.894,17.018,29.553,22.507,45.807c0.479,1.42,0.863,2.869,0.595,4.401
				c-0.939,2.942-0.685,6.304-2.938,8.82c-2.216-0.784-2.453-2.736-2.962-4.438c-1.383-4.628-2.913-9.231-3.95-13.939
				c-4.209-19.11-15.661-33.431-29.966-45.915c-3.387-2.956-6.844-5.832-10.248-8.768c-2.127-1.834-4.492-2.96-7.297-2.62
				c-8.094,0.981-16.252,1.266-24.338,2.274c-3.299,0.411-6.559,1.138-9.62,2.573c-17.197,8.065-33.747,17.267-50.182,26.813
				c-12.554,7.292-15.915,17.737-14.634,30.597c0.892,8.956,0.348,17.961,1.661,26.889c0.474,3.223,1.565,5.952,2.916,8.853
				c5.378,11.557,16.2,16.704,26.071,23.109c7.069,4.587,14.641,7.385,22.75,9.74c19.227,5.584,38.757,5.724,58.426,5.348
				c3.996-0.076,7.995-0.003,11.989-0.035c1.701,0.114,3.254-0.356,4.777-1.1c10.126-4.943,19.859-10.654,30.074-15.421
				c3.56-1.661,5.476-5.862,9.826-6.253c1.354,3.194-1.574,4.981-2.434,7.452c-10.322,12.028-23.894,18.881-38.473,24.139
				c-3.477,1.421-7.176,1.961-10.809,2.788c-4.909,0.484-9.773,1.446-14.737,1.291c-6.12,0.014-12.237,0.1-18.352-0.109
				c-9.57,0.08-19.038-1.284-28.545-2.027c-7.611-0.884-14.788-3.527-22.126-5.511c-4.107-2.958-8.685-4.66-13.741-5.059
				c-1.882-0.109-3.709-0.365-4.989-1.977c-3.122-2.683-7.1-3-10.871-3.897c-1.383-0.362-2.592-1.023-3.582-2.063
				c-1.6-2.259-4.107-3.491-6.082-5.327C199.064,347.849,197.324,345.794,196.881,342.88z"/>
			<path fill="#111111" d="M237.216,239.105c-6.41,5.928-13.4,11.139-20.592,16.036c-7.85,5.346-14.904,11.408-20.286,19.308
				c-2.404,3.529-5.764,6.383-7.396,10.461c-0.833,0.956-0.692,2.526-2.006,3.179c-1.234,0.119-1.433,1.203-1.863,2.042
				c-1.969,3.839-3.913,7.69-5.872,11.534c-0.506,0.994-0.753,2.53-2.178,2.311c-1.65-0.253-0.817-1.85-1.031-2.877
				c-0.534-2.561,0.807-4.85,1.04-7.309c1.43-15.086,4.869-29.651,11.448-43.418c-1.217-1.14-1.708,0.221-2.217,0.856
				c-7.7,9.589-15.893,18.782-23.128,28.745c-0.479,0.66-1.027,1.283-1.619,1.842c-0.187,0.177-0.802,0.232-0.912,0.095
				c-0.277-0.344-0.651-0.987-0.508-1.237c3.138-5.495,3.871-11.894,6.763-17.512c5.678-11.031,11.39-22.033,18.642-33.58
				c-9.265,2.632-17.863,3.694-26.441,3.589c-8.6-0.105-17.117-1.898-26.283-3.476c1.625-0.667,2.609-1.274,3.668-1.472
				c6.834-1.276,12.677-4.604,18.326-8.463c8.068-5.511,16.31-10.751,25.277-14.727c0.785-0.348,1.455-0.769,1.91-1.443
				c-6.308-8.185-15.886-13.709-19.902-24.628c5.872,1.657,11.24,3.125,16.579,4.692c5.117,1.503,10.378,2.103,15.634,2.817
				c1.208,0.164,1.882-0.219,2.616-0.87c0.982-0.872,1.923-1.791,2.881-2.69c0.43-0.249,1.283-0.504,1.327-0.286
				c0.806,4.03,3.663,2.083,5.855,2.082c3.969-0.001,7.826-0.797,11.702-1.52c2.23-0.416,4.559-1.035,6.522,0.855
				c-0.114,1.739-1.523,2.012-2.772,2.319c-8.33,2.051-16.643,4.227-25.325,4c-7.781-0.785-15.576-1.549-23.963-4.843
				c5.019,4.263,9.23,7.741,14.175,10.324c2.409,1.258,5.903,2.005,4.667,6.342c-0.344,1.208,1.717,0.929,2.507,1.616
				c0.602,0.523,1.588,0.779,1.453,1.799c-0.13,0.983-1.057,1.207-1.832,1.433c-1.599,0.467-3.22,0.944-4.882,1.034
				c-6.608,0.36-12.831,1.932-18.422,5.833c5.08-0.449,10.124-0.047,15.124,0.906c1.427,0.272,3.348,0.19,3.369,2.207
				c0.021,1.925-1.908,2.033-3.275,2.489c-2.425,0.807-4.964,0.315-7.501,0.601c-0.211,0.165-0.078-0.005,0.393,0.047
				c2.262,0.248,6.285-1.371,6.155,1.878c-0.135,3.378-4.355,1.197-6.17,2.05c5.212,0.563,9.987-2.461,15.12-4.022
				c3.58-1.089,3.361-1.116,4.366,2.515c0.288,1.04,1.577,2.885,3.494,1.666c1.834-1.166,4.195-1.736,5.589-3.229
				c3.005-3.218,6.919-2.823,10.59-3.494c1.126-0.206,2.448-0.434,3.145,0.824c0.792,1.43-0.068,2.666-1.024,3.557
				c-3.426,3.195-6.358,6.801-9.257,10.459c-2.62,3.305-4.182,7.186-6.217,10.809c-0.486,0.865-0.811,1.861,0.242,3.066
				c4.004-1.595,7.013-4.707,10.098-7.606c2.808-2.638,5.685-5.135,9.003-7.093c1.424-0.84,3.251-2.144,4.512-0.602
				c1.498,1.832-0.806,2.798-1.871,3.859c-5.475,5.457-11.989,9.84-16.999,16.247c8.081-4.991,14.936-11.242,23.419-14.964
				c1.661-0.729,3.193-1.859,5.151-1.648C240.799,236.609,237.451,237.519,237.216,239.105z"/>
			<path fill="#290924" d="M312.866,547.169c-2.202,0.914,0.648,4.086-2.125,4.75c-1.876,0.45-3.373-1.254-5.229-0.91
				c-0.159,0.029-0.327,0.005-0.491,0.006c-3.47-0.101-6.068-2.042-8.626-4.068c-1.199-0.935-3.222-0.772-3.674-2.716
				c0.839-1.627,0.437-3.152-0.403-4.65c-3.374-9.759-1.82-19.814-1.469-29.716c0.205-5.801,0.663-11.614,0.714-17.434
				c-0.734-10.249,1.788-20.257,2.283-30.418c0.049-0.997,0.498-1.9,1.183-2.646c2.07-1.314,2.464-0.297,2.335,1.616
				c0.568-2.628-1.896-6.647,3.138-7.347c2.108,1.277,1.838,3.438,1.801,5.365c-0.075,3.857,0.633,7.618,1.031,11.419
				c0.364,3.475,2.275,5.436,5.587,6.103c2.118,0.426,4.236,0.906,6.402,1.034c5.81,0.344,9.56-2.264,11.176-7.81
				c0.555-1.905,0.703-3.952,2.049-5.567c1.775-1.023,2.366,0.294,3.011,1.516c1.656,5.728-1.351,10.179-4.09,14.676
				c-1.165,1.913-3.106,2.353-5.18,2.097c-4.831-0.596-9.064,0.353-12.168,4.433c-4.442,9.416-4.715,14.059-1.782,21.755
				c-3.22-6.748-2.027-14.356,1.854-21.803c4.084-5.013,9.257-5.394,14.958-3.548c0.098,1.226-0.799,1.918-1.674,2.209
				c-5.324,1.771-5.492,5.954-5.197,10.499c0.549,8.454,5.873,15.377,13.867,18.259c2.148,0.774,6.209,0.756,5.541,3.692
				c-0.79,3.469-4.502,1.49-6.944,1.221c-5.419-0.597-8.472-4.864-12.421-8.523c3.227,6.77,8.079,9.989,15.303,10.15
				c4.873,0.109,7.414-3.226,10.555-5.817c0.51-0.421,0.814-1.175,0.444-1.799c-0.48-0.809-1.403-0.813-2.237-0.743
				c-2.309,0.194-4.575,1.03-6.928,0.537c-1.656-0.347-3.547-0.807-3.726-2.754c-0.2-2.165,1.903-2.916,3.409-2.854
				c7.605,0.312,12.194-4.351,16.695-9.437c1.485-1.678,2.965-3.732,5.734-3.441c1.231,0.414,0.992,1.572,1.257,2.475
				c-1.782,4.611-3.94,9.081-5.236,13.875c-1.301,4.811-4.038,8.626-7.945,11.67c-2.364,1.842-4.707,3.713-7,5.642
				c-2.793,2.349-5.914,3.636-9.619,3.476c-3.491-0.151-6.083,1.31-7.694,4.494C319.207,540.341,316.196,543.882,312.866,547.169z"
				/>
			<path fill="#1A0615" d="M434.982,175.007c-2.718-3.163-4.091-7.097-5.749-10.794c-0.957-2.133-1.96-4.176-3.461-5.841
				c-4.411-4.894-8.226-10.255-12.395-15.33c-7.735-9.418-16.232-18.057-26.313-25.101c-4.844-3.385-9.342-7.271-14.727-9.821
				c-4.296-2.035-8.669-3.909-13.27-5.168c-3.17-0.868-5.81-2.741-8.57-4.393c-0.01-0.006,0.108-0.296,0.214-0.406
				c0.111-0.115,0.281-0.172,0.425-0.255c12.66,3.386,25.21,7.06,36.513,13.982c0.983,0.602,2.048,1.235,2.743,2.116
				c4.903,6.211,11.306,10.781,17.252,15.842c1.042,0.887,1.832,1.905,2.657,2.924c5.759,7.109,11.795,14.02,17.137,21.431
				c5.23,7.255,9.207,15.339,13.518,23.182c1.754,3.191,3.251,6.527,5.077,9.674c10.609,18.28,17.383,38.22,25.009,57.784
				c2.062,5.29,1.992,11.068,2.846,16.623c1.872,12.173-0.952,23.661-5.944,34.681c-5.853,12.921-14.895,23.412-25.053,33.17
				c-12.047,11.573-25.606,21.233-38.614,31.594c-0.779,0.62-1.598,1.211-2.464,1.698c-19.373,10.909-39.44,20.281-60.581,27.259
				c-0.619,0.204-1.317,0.167-1.978,0.243c-1.311,0.669-1.67,2.474-3.29,2.776c-3.063,0.504-6.261,0.493-8.781,2.839
				c-0.829,0.772-2.166,1.277-3.106,0.151c-1.132-1.355-0.087-2.465,0.848-3.413c1.514-1.534,3.57-2.269,5.638-3.349
				c-3.516-2.653-7.735-0.934-11.119-2.719c-1.354-2.322,0.52-2.852,2.008-3.36c1.556-0.532,3.214-0.366,4.824-0.051
				c6.701,3.878,13.179,1.596,20.027-0.066c13.626-3.307,25.5-10.473,38.2-15.813c14.571-6.127,26.497-15.829,38.578-25.49
				c8.271-5.213,14.568-12.57,21.196-19.571c5.252-4.119,9.095-9.351,12.069-15.275c2.361-3.63,4.765-7.222,7.26-10.759
				c4.243-6.017,3.411-13.377,5.084-20.079c3.483-13.956-2.061-26.518-5.453-39.485c-3.984-15.226-12.605-28.17-19.866-41.793
				C441.21,187.828,436.679,182.022,434.982,175.007z"/>
			<path fill="#0C266A" d="M325.006,698.012c-1.954,4.189-4.128,8.123-7.738,11.292c-3.322,2.916-7.055,4.345-11.244,4.621
				c-7.484,0.493-14.912-0.141-22.221-1.911c-6.75-1.634-9.253-7.613-5.748-13.704c0.165-0.287,0.26-0.646,0.491-0.861
				c4.546-4.235,5.559-9.629,5.151-15.507c-0.022-0.311,0.17-0.636,0.262-0.955c6.614-1.376,12.802-1.272,19.264,1.881
				c7.101,3.465,14.219,1.812,20.253-3.575c1.409-1.258,1.763-2.619,1.063-4.371c-1.281,0.542-1.407,1.856-2.091,2.744
				c-0.961,1.247-1.999,2.432-3.712,1.723c-1.676-0.693-2.24-2.402-2.71-3.974c-0.591-1.976,1.129-2.062,2.332-2.424
				c1.355-0.408,2.277-1.331,3.121-2.367c1.702-2.09,3.834-2.505,6.257-1.564c2.55,0.991,3.497,3.132,3.195,5.611
				C329.951,682.693,328.848,690.707,325.006,698.012z"/>
			<path fill="#240720" d="M225.038,184.018c-2.622-0.107-5.162,0.093-7.718,0.928c-5.302,1.73-11.019,0.385-17.114,2.455
				c0.553-1.551,1.026-2.481,1.202-3.465c0.258-1.446-1.075-0.695-1.64-1.025c7.492-10.387,15.313-20.489,24.981-29.001
				c0.76-0.444,1.507-0.527,2.227,0.084c-2.231,3.359-5.496,5.747-8.169,8.692c-2.589,2.853-2.407,3.736,0.028,6.739
				c3.62,4.463,8.337,3.715,13.012,3.146c4.105-0.5,8.083-1.34,12.347-0.74c3.52,0.495,7.103-1.083,10.85-0.446
				c6.94,1.18,14.168-0.137,20.998,1.721c5.028,1.368,10.391,1.748,15.024,4.45c1.745,1.018,3.713,1.24,5.585,1.822
				c5.907,1.837,11.791,3.953,16.354,8.296c2.423,2.307,5.272,3.355,8.237,4.247c5.337,1.604,9.766,4.425,13.149,8.862
				c0.524,0.687,1.382,0.91,1.992,1.409c4.707,3.85,10.132,7.18,13.762,11.885c3.479,4.509,7.381,8.669,10.773,13.245
				c1.838,2.481,4.828,4.155,5.077,7.682c-0.981,0.597-1.888,0.2-2.797-0.198c-0.426-0.236-0.814-0.529-1.166-0.865
				c-6.815-7.986-14.556-15.047-22.068-22.356c-5.768-5.613-12.609-9.562-19.019-14.19c-2.999-2.166-6.276-3.743-9.785-4.88
				c-6.074-5.135-13.492-7.564-20.81-10.044c-14.125-4.786-28.772-5.626-43.551-5.14c-1.838,0.06-3.422,0.177-4.892,1.758
				c-2.361,2.539-6.043,2.467-9.052,3.778c-1.819,0.895-3.757,1.414-5.737,1.802C226.334,184.743,225.618,184.596,225.038,184.018z"
				/>
			<path fill="#290924" d="M245.007,480.826c-0.34,0.033-0.68,0.066-1.021,0.099c-5.373,1.835-8.182-1.779-11.448-5.03
				c-5.6-5.575-9.596-12.534-15.614-17.716c-4.798-5.155-8.252-11.243-11.938-17.171c-0.349-2.629-3.251-4.883,0-8.239
				c-6.591,0.818-11.854-0.143-17.055-1.608c-5.598-4.638-5.602-9.659-0.01-13.923c0.647-0.493,1.301-0.978,1.951-1.467
				c0.444-0.196,0.864-0.153,1.263,0.127c-0.208,2.775,2.538,3.563,3.668,5.438c1.198,3.842,3.695,5.654,7.825,5.504
				c2.642-0.096,5.284,0.429,7.967,0.374c3.77-0.078,5.853,2.026,4.229,5.274c-4.094,8.187,1.585,12.574,6.085,17.134
				c5.02,5.088,11.041,9.023,17.402,12.426c3.163,1.692,5.522,1.302,8.12-0.946c6.185-5.354,10.361-12.046,13.866-19.335
				c0.954-1.985,0.79-5.846,4.945-4.862c1.288,2.031,0.149,3.795-0.601,5.608c-4.164,10.068-8.71,19.975-12.735,30.102
				C250.524,476.094,248.111,478.764,245.007,480.826z"/>
			<path fill="#183779" d="M325.006,698.012c1.543-5.667,3.503-11.211,4.587-17.019c0.436-2.339,0.4-4.621,0.339-6.909
				c-0.047-1.742-0.361-3.614-2.705-4.088c-2.173-0.439-4.319-0.836-5.163,1.898c-0.94,3.049-3.288,2.411-5.516,2.064
				c-0.112,1.677,1.273,2.025,1.81,2.937c1.567,2.658,1.688,2.685,3.039,0.243c0.716-1.294,1.377-2.603,1.756-4.076
				c0.416-1.617,1.905-1.152,2.916-0.888c1.062,0.277,0.804,1.221,0.337,1.994c-1.099,1.817,0.175,3.477,0.47,5.37
				c-2.992,0.976-5.546,2.333-7.891,4.609c-2.364,2.294-6.118,2.507-9.37,1.548c-1.647-0.486-3.208-0.679-4.851-0.682
				c-1.182-0.002-2.228-0.11-3.227-0.948c-3.502-2.935-7.468-3.852-11.882-2.376c-2.01,0.672-3.903,0.388-5.696-0.701
				c-0.017-4.629-0.033-9.257-0.05-13.886c0.082-1.485,0.165-2.969,0.265-4.773c5.92,4.419,12.48,6.435,19.622,6.69
				c1.847,0.066,3.566-0.25,5.311-0.919c6.434-2.464,11.767-6.299,16.085-11.724c2.658-3.339,2.968-7.364,3.509-11.142
				c0.672-4.698,0.778-9.562-0.226-14.346c-0.555-2.644-1.501-5.42,0.559-7.925c0.366,5.381,0.631,10.775,1.975,16.036
				c0.687,13.072,0.767,26.146,0.1,39.222c-0.522,5.756-2.104,11.264-3.92,16.715C326.779,696.17,326.445,697.493,325.006,698.012z"
				/>
			<path fill="#183779" d="M225.077,619.024c3.114,0.992,6.203,2.079,9.356,2.928c1.227,0.33,2.106,0.959,2.834,1.857
				c0.935,1.153,1.272,2.284-0.379,3.246c-0.846,0.493-1.574,1.206-2.313,1.866c-3.229,2.882-4.96,5.884-3.774,10.751
				c1.547,6.35,2.585,12.806,5.824,18.574c3.475,6.19,8.965,9.819,15.699,11.732c8.79,2.497,16.516,0.277,23.531-5.219
				c0.223-0.174,0.609-0.14,1.038-0.228c0,4.505,0,8.985,0,13.466c-2.811-0.959-2.097-2.87-1.289-4.834
				c-2.118,1.983-4.788,3.53-1.148,6.822c2.01,1.817-0.237,2.933-1.956,3.08c-3.149,0.269-6.266,1.097-9.401,1.039
				c-6.571-0.122-12.867,1.197-19.122,2.947c-4.329-5.196-6.546-11.48-8.597-17.729c-1.636-4.984-2.93-10.09-3.647-15.394
				c-0.582-4.306-2.391-8.474-3.345-12.841C226.791,633.778,225.314,626.512,225.077,619.024z"/>
			<path fill="#E9E9E9" d="M167.276,353.922c0.328-0.114,0.549-0.335,0.661-0.664c1.798-3.015,4.42-5.221,7.169-7.302
				c3.418-0.888,6.869-2.14,9.937,0.888c4.694,3.254,9.009,6.99,13.445,10.574c5.333,5.173,10.525,10.489,15.802,15.72
				c1.284,1.272,2.437,2.72,4.262,3.299c1.638,0.669,2.738,1.808,3.124,3.571c1.59,4.378,2.385,8.739-0.311,13.014
				c-0.195,0.422-0.432,0.823-0.684,1.212c-1.769,2.9-4.413,5.171-5.942,8.252c-0.368,0.626-0.841,1.157-1.394,1.623
				c-3.015,1.627-5.364,5.544-9.653,2.845c-1.02-1.401-1.625-3.188-3.499-3.819c-1.482-0.706-2.915-1.47-3.547-3.132
				c-0.044-0.476,0.075-0.91,0.349-1.302c5.345-2.625,9.757-6.206,12.114-11.88c1.086-2.551,3.687-4.68,2.174-7.935
				c-0.488-0.961-1.216-1.733-1.974-2.481c-2.29-2.341-4.614-4.646-6.967-6.925c-2.551-2.265-4.442-5.255-7.602-6.831
				c-1.25-0.399-2.254-1.182-3.194-2.064c-0.899-0.872-1.954-1.536-3.003-2.211c-1.218-0.92-2.255-2.041-3.435-3.005
				c-5.89-3.989-7.589-3.739-11.832,1.921c-2.876,3.837-5.253,8.004-7.775,12.074c-1.85,2.159-0.947,3.939,0.731,5.656
				c2.553,2.612,5.221,5.114,7.701,7.793c1.167,1.26,3,2.356,2.021,4.614c-1.412,1.313-3.037,1.753-4.905,1.21
				c-3.84-2.611-7.489-5.485-10.991-8.524c-4.225-3.667-4.848-7.339-2.373-12.359C160.196,362.67,163.535,358.156,167.276,353.922z"
				/>
			<path fill="#290924" d="M242.856,539.293c-1.138-1.02-1.584-2.502-3.037-3.449c-2.672-1.742-4.995-4.039-6.636-6.884
				c0.098-0.504,0.096-1.068-0.26-1.404c-5.492-5.187-4.379-10.552-0.797-16.288c5.886-9.428,10.395-19.574,14.893-29.713
				c0.599-1.349,1.164-2.82,3.057-2.792c1.587,0.865,2,2.411,1.434,3.838c-1.734,4.367-0.186,8,2.148,11.547
				c-0.159,3.843-1.652,7.308-3.187,10.73c-1.289,2.874-2.244,5.794-2.329,8.962c-0.052,0.517-0.161,1.022-0.296,1.521
				c-0.453,6.173-3.656,11.812-3.487,18.103c0.017,1.536,0.409,3.057,0.201,4.604C244.278,538.873,243.785,539.386,242.856,539.293z
				"/>
			<path fill="#0C266A" d="M243.979,687.052c0.061-1.041,0.227-1.874,1.582-2.054c5.744-0.764,11.303-2.414,17.27-2.181
				c3.811,0.149,7.739-1.016,11.714-0.874c-0.19-1.528-1.194-2.604-2.168-2.678c-1.992-0.15-1.403-1.116-1.669-2.417
				c-0.378-1.845,0.395-1.613,1.537-2.022c1.54-0.551,2.511-1.994,3.269-3.708c1.256,2.436-0.599,5.005,1.381,6.878
				c0.014,2.702-0.574,5.48,1.004,7.986c1.022,5.851-3.284,8.657-7.025,11.384c-3.756,2.738-8.2,4.177-13.043,3.403
				c-4.106-0.656-7.697-2.298-9.567-6.202C247.005,691.944,244.534,690.044,243.979,687.052z"/>
			<path fill="#1D0815" d="M226.976,153.993c-0.742-0.028-1.485-0.056-2.227-0.084c5.08-6.983,12.224-11.659,18.956-16.752
				c8.993-6.803,17.74-13.939,27.631-19.527c4.327-2.445,8.824-4.474,13.221-6.737c5.227-2.69,10.919-4.506,15.496-8.423
				c0.975-0.834,2.201-1.35,3.495-1.786c3.899-1.313,7.879-2.45,11.545-4.381c0.949-0.5,1.913-0.431,2.903-0.265
				c-1.716,2.477-4.358,3.33-7.089,3.964c-3.586,0.832-6.979,1.944-9.415,4.977c-0.61,0.759-1.415,1.648-2.284,1.865
				c-5.573,1.396-9.8,5.405-14.973,7.56c-0.968,0.403-1.93,0.835-2.367,2.251c-0.531,1.723-2.374,2.749-4.021,3.231
				c-6.582,1.925-12.28,5.324-17.77,9.371c-6.086,4.487-12.614,8.371-18.814,12.71C236.155,145.541,230.611,148.648,226.976,153.993
				z"/>
			<path fill="#190716" d="M250.004,479.002c-3.405,4.29-4.933,9.555-6.984,14.458c-2.872,6.862-6.958,12.974-10.591,19.357
				c-1.068,1.876-1.42,4.004-2.672,5.72c-0.834,1.143-0.596,1.962,0.248,3.048c1.299,1.67,2.306,3.566,3.465,5.347
				c0.513,0.788,0.705,1.478-0.287,2.028c-2.261-2.642-5.214-5.285-5.796-8.491c-0.553-3.043,2.252-6.003,3.688-8.939
				c4.565-9.334,9.289-18.591,13.836-27.934c0.339-0.696,2.087-1.814,0.096-2.77c0.032-0.33-0.067-0.786,0.113-0.972
				c7.575-7.813,9.455-18.474,13.926-27.833c1.628-3.408,3.089-6.896,4.653-10.335c0.682-1.499,1.6-2.921,1.298-4.688
				c-0.591-0.678-0.817-1.51-0.568-2.326c2.279-7.48,4.069-15.131,7.523-22.206c0.553-1.133,1.234-2.846,2.795-2.279
				c1.478,0.537,1.131,2.26,0.788,3.531c-1.777,6.594-3.411,13.24-5.789,19.648c-4.868,13.119-10.492,25.94-15.547,38.987
				C253.26,474.777,252.392,477.416,250.004,479.002z"/>
			<path fill="#F3D496" d="M185.95,413.09c-2.752,0.099-4.817-1.486-6.974-2.845c-4.829-4.494-4.801-4.697,1.024-7.334
				c-0.553-1.901-2.661-1.687-3.798-2.794c-2.444-2.365-5.811-4.085-5.742-8.21c1.151-2.932,3.359-4.245,6.449-4.206
				c1.438,5.02,5.022,7.294,9.948,8.294c2.621,0.532,5.691,0.513,7.424,3.261c-2.146,4.937-6.354,2.467-9.804,2.734
				c-0.12,0.009-0.304,0.123-0.327,0.22c-0.035,0.145,0.047,0.318,0.081,0.492c-1.133,2.966,0.953,3.743,3.05,4.434
				c2.367,0.781,4.846,0.478,7.278,0.639c1.702,0.113,3.694-0.373,4.715,1.713c-1.125,3.367-3.998,3.566-6.858,3.835
				C190.245,413.526,188.115,412.862,185.95,413.09z"/>
			<path fill="#290924" d="M369.161,453.68c1.208,1.206,1.062,2.91,1.602,4.362c0.346,10.206-3.488,19.274-7.711,28.231
				c-0.406,0.861-0.703,1.892-1.841,2.16c-2.805-0.561-2.317-2.878-2.424-4.764c-0.157-2.758,0.867-5.268,2.25-7.565
				c1.904-3.161,1.531-4.881-2.54-4.972c-1.527-0.034-3.137-0.568-3.479-2.304c-0.312-1.582,1.196-2.25,2.247-2.984
				c3.513-2.451,5.204-5.889,5.955-10.015c0.376-2.063,0.114-4.411,1.932-6.037C368.681,448.818,367.01,453.223,369.161,453.68z"/>
			<path fill="#3B66AC" d="M242.856,539.293c0.38-0.338,0.76-0.676,1.14-1.014c3.047-1.472,6.034-0.065,8.626,0.904
				c11.776,4.402,23.96,4.641,36.248,4.38c1.41-0.03,2.991-0.85,4.121,0.741c1.058,1.281,3.243-0.2,4.064,1.66
				c-0.109,3.359-2.766,3.311-4.96,3.429c-5.085,0.274-10.184,0.212-15.273,0.013c-0.865-0.001-1.734-0.009-2.597-0.035
				c-9.259-1.553-18.894-0.845-27.805-4.596c-1.826-0.769-3.801-1.204-5.215-2.738C241.178,540.775,242.591,540.379,242.856,539.293
				z"/>
			<path fill="#F1D092" d="M185.95,413.09c1.798-2.27,4.254-0.837,6.38-1.019c2.681-0.23,5.199-0.401,6.669-3.08
				c1.224-2.166,0.676-4.836,1.984-6.979c1.672,0.811,3.099,1.814,3.086,3.944c0.725,2.995,2.964,1.578,4.163,0.98
				c1.824-0.909,3.807-1.941,4.852-3.948c0.508-0.101,0.813-0.398,0.89-0.917c2.165-1.932,2.952-5.39,6.465-5.833
				c1.502,3.033,0.639,5.807-1.115,8.353c-1.399,2.032-2.907,3.989-4.179,6.111c-0.842,1.406-1.773,2.722-3.374,3.366
				c-5.949,2.085-11.834,3.568-18.065,0.612c-1.604-0.761-3.823-0.733-5.799-0.616C187.091,414.07,186.28,414.063,185.95,413.09z"/>
			<path fill="#193879" d="M241.206,542.037c1.925-0.442,3.625,0.589,5.188,1.246c6.231,2.619,12.753,3.516,19.384,3.63
				c2.845,0.049,5.418,1.435,8.253,1.16c-0.504,5.129-6.266,8.447-11.556,6.711c-1.266-0.416-2.082-1.688-3.514-1.722
				c-5.206-1.092-9.519-4.241-14.311-6.291c-1.617-0.692-2.94-2.136-3.727-3.867C240.947,542.591,241.042,542.303,241.206,542.037z"
				/>
			<path fill="#230C1B" d="M369.161,453.68c-0.265,0.485-0.385,1.292-1.163,0.401c-1.037-1.188-0.429-3.17-2.006-4.081
				c-0.979-0.391-1.636-1.108-2.077-2.045c-3.87-9.734-8.54-19.117-12.722-28.716c-1.376-3.339-2.493-6.781-3.596-10.209
				c-1.769-5.502-4.712-10.049-9.311-13.571c-1.097-0.84-2.627-1.568-2.315-3.435c1.276-0.332,1.324-2.763,3.285-1.924
				c-0.139,0.478-0.497,1.314-0.386,1.381c6.545,3.993,9.511,10.695,11.922,17.289c4.327,11.834,10.03,23.034,14.787,34.653
				C366.944,446.758,368.742,449.994,369.161,453.68z"/>
			<path fill="#A6A6A5" d="M167.276,353.922c-1.203,3.304-3.46,5.976-5.524,8.71c-1.417,1.876-2.551,3.859-3.552,5.93
				c-1.981,4.097-1.057,7.799,2.599,10.876c3.394,2.856,6.812,5.681,10.22,8.52c0.26,0.937-0.09,1.268-1.018,1.028
				c-2.928-2.145-5.842-4.308-8.788-6.427c-2.342-1.685-4.019-3.944-5.496-6.352c-1.221-1.991-1.096-4.278-0.17-6.201
				c2.723-5.66,5.469-11.358,10.394-15.561C166.284,354.151,166.827,354.091,167.276,353.922z"/>
			<path fill="#1E0D1C" d="M216.924,458.178c0.522-1.456,1.19-0.607,1.69-0.043c2.73,3.076,5.64,6.025,8.073,9.324
				c3.038,4.118,6.816,7.48,10.312,11.137c1.58,1.653,3.035,2.96,5.45,1.464c0.55-0.341,1.246,0.166,1.537,0.865
				c-0.313,0.076-0.653,0.098-0.936,0.236c-3.859,1.883-6.277,1.794-8.9-1.262C228.132,472.887,222.025,465.926,216.924,458.178z"/>
			<path fill="#24101F" d="M360.979,488.004c2.424-2.186,2.649-5.455,3.889-8.202c1.653-3.661,2.751-7.584,3.948-11.437
				c0.77-2.478,1.585-4.973,1.212-7.669c-0.127-0.917-0.348-2.006,0.733-2.655c1.38,5.708,0.587,11.366-1.547,16.598
				c-3.097,7.596-6.891,14.909-10.388,22.342c-0.94-0.39-0.809-1.228-0.835-2C357.517,492.027,358.607,489.741,360.979,488.004z"/>
			<path fill="#200E1D" d="M187.932,431.16c0.341-0.938,0.888-1.237,1.881-0.802c5.333,2.34,10.791,2.236,17.008,0.312
				c-0.788,1.602-1.406,2.591-1.775,3.667c-0.556,1.624-1.661,3.302,0.454,4.811c0.838,0.597,0.454,1.45-0.513,1.86
				c-2.219-1.802-2.499-5.345-4.63-6.615c-2.2-1.312-5.457-0.359-8.193-1.157C190.605,432.781,189.043,432.47,187.932,431.16z"/>
			<path fill="#D69E66" d="M187.908,414.064c2.286-2.051,5.491-1.784,7.317-0.618c3.984,2.543,7.645,1.525,11.588,0.733
				c1.759-0.353,3.316-1.583,5.233-1.199c0.111,3.293-2.673,3.51-4.677,3.771c-2.911,0.38-4.375,1.548-4.366,4.481
				c-1.284,0.68-2.367,0.157-3.423-0.549c-2.094-2.961-5.76-3.043-8.584-4.667c-0.374-0.082-0.748-0.164-1.122-0.246
				C189.218,415.202,188.563,414.633,187.908,414.064z"/>
			<path fill="#324E88" d="M331.109,678.222c-0.043-9.637-0.06-19.274-0.145-28.91c-0.022-2.455,0.291-4.932-0.806-7.334
				c-0.417-0.913-0.649-2.34,0.852-2.978c1.316,2.977,0.71,6.173,0.964,9.257c0.774,9.388,0.018,18.786-0.191,28.179
				C331.768,677.036,331.343,677.627,331.109,678.222z"/>
			<path fill="#DDB17D" d="M196.881,342.88c1.734,2.01,3.026,4.397,5.164,6.064c-0.332,0.836-0.973,1.418-1.628,1.995
				c-0.549,0.428-1.166,0.638-1.866,0.588c-2.899-1.621-5.644-3.591-9.079-4c-0.159-0.164-0.317-0.33-0.474-0.497
				c2.164-2.026,4.56-2.757,7.24-1.041C196.858,344.832,195.29,343.556,196.881,342.88z"/>
			<path fill="#0F285F" d="M280.07,560.062c-0.265,1.009,0.488,2.382-1.048,2.938c-0.972-0.792-0.497-2.776-2.141-2.902
				c-1.927-0.147-3.88-0.068-5.813,0.053c-0.709,0.045-0.877,0.801-0.98,1.47c-0.137,0.892,0.201,2.017-1.065,2.42
				c0.038-1.753,0.121-3.516-1.05-5.016C271.15,555.251,277.204,555.77,280.07,560.062z"/>
			<path fill="#AFACA8" d="M197.962,358.038c-1.647-0.718-3.138-1.647-4.38-2.978c-2.45-2.625-5.254-4.799-8.403-6.541
				c-0.703-0.389-1.396-1.014-0.136-1.675c1.256,1.381,2.642,0.008,3.955,0.186l-0.017-0.052c3.154,2.991,6.286,6.005,9.315,9.128
				c0.164,0.449,0.195,0.909,0.098,1.377C198.251,357.668,198.106,357.853,197.962,358.038z"/>
			<path fill="#BDA07F" d="M170.001,388.986c0.572-0.112,0.906-0.461,1.018-1.028c1.793,0.476,3.165-0.836,4.778-1.125
				c1.108-1.05,2.518-1.076,3.913-1.171c0.565-0.053,1.128-0.045,1.692-0.001c2.253,0.556,5.47-0.312,5.441,3.648
				c-3.522,1.611-6.716,0.614-9.801-1.238c-2.915-0.109-4.372,2.075-6.079,3.866c-0.447-0.181-0.772-0.487-0.957-0.936
				C170.004,390.329,170.003,389.657,170.001,388.986z"/>
			<path fill="#AF8A64" d="M170.006,391c0.52,0.107,0.858,0.399,0.957,0.936c-0.081,1.493,0.799,2.498,1.814,3.377
				c1.538,1.331,2.468,3.072,3.425,4.804c-4.792-0.255-5.928-3.985-7.13-7.592C168.861,391.892,169.299,391.27,170.006,391z"/>
			<path fill="#CDAA80" d="M186.936,288.088c0.137-1.395,0.758-2.485,2.006-3.179c-0.398,5.431,1.618,10.708,1.028,16.152
				c-1.702-0.994-0.846-2.66-0.956-4.009C188.76,293.948,187.555,291.091,186.936,288.088z"/>
			<path fill="#CBA678" d="M189.933,301c1.973,4.135,2.512,10.473,1.185,13.938C191.06,310.264,189.528,305.715,189.933,301z"/>
			<path fill="#BC9970" d="M180,402.911c-0.711,1.669-2.871,1.435-3.804,2.928c0.04,1.987,2.643,2.44,2.779,4.406
				c-2.312-0.704-4.443-1.945-4.003-4.608C175.39,403.114,177.911,403.096,180,402.911z"/>
			<path fill="#AFAFAF" d="M175.106,345.956c-1.948,2.867-4.457,5.184-7.169,7.302c-0.124-0.111-0.37-0.297-0.354-0.324
				C169.423,349.891,171.389,346.976,175.106,345.956z"/>
			<path fill="#240720" d="M456.999,307.999c-2.948,5.842-6.685,11.052-12.005,14.996c-1.905-0.583-2.726,1.053-3.48,2.079
				c-3.146,4.279-7.613,6.923-11.889,9.724c-2.808,1.839-4.832,3.954-5.623,7.206c-3.429,4.051-7.929,6.817-12.076,9.997
				c-4.301,3.298-8.788,6.356-13.056,9.694c-2.147,1.679-4.72,2.298-7.102,3.297c-8.84,3.707-17.294,8.194-25.761,12.622
				c-4.742,2.48-9.876,3.541-14.831,5.161c-4.634,1.515-9.451,2.539-14.103,4.1c-1.445,0.485-2.991,1.198-4.409-0.503
				c-1.413-1.695-4.185-0.564-5.668-2.365c0.732-6.325,3.697-9.825,9.505-10.929c6.517-1.239,11.592-5.435,17.337-8.249
				c0.417-0.19,0.855-0.329,1.297-0.443c3.407-0.12,4.419-3.317,6.524-5.109c4.682-3.361,8.579-7.419,11.225-12.594
				c0.468-2.545,2.88-4.074,3.437-6.572c-0.027-3.061,1.921-5.344,3.572-7.462c7.404-9.501,8.145-20.659,8.513-31.968
				c0.408-3.721,0.094-7.454,0.194-11.177c-0.08-8.456-2.476-16.33-5.703-24.071c-3.348-8.028-7.137-15.74-12.722-22.498
				c-1.07-1.295-2.554-2.85-1.193-4.901c4.492,4.775,9.982,8.615,14.331,13.332c5.561,6.031,12.627,7.884,19.599,10.526
				c1.405,0.532,2.462-0.747,3.786-0.918c6.268-0.811,12.578-1.438,18.645-3.364c1.879-0.596,4.08-1.124,5.116-2.726
				c1.946-3.01,5.061-4.656,7.386-7.184c2.684-2.918,4.508-6.121,4.153-10.227c-0.675-7.812,1.268-15.521,0.935-23.3
				c-0.14-3.26-0.051-6.655-1.68-9.7c-0.078-0.146-0.195-0.306-0.192-0.457c0.204-9.027-4.791-16.601-6.966-24.962
				c-0.388-1.491-0.753-2.993,0.887-4.047c3.803,5.951,7.142,12.121,9.019,18.987c4.834,8.861,8.423,18.322,13.588,27.063
				c2.792,4.725,4.703,10.256,4.863,16.014c0.071,2.573,0.542,4.999,1.99,7.089c4.061,5.858,3.531,11.927,0.79,17.983
				c-1.163,2.569-1.722,4.518,1.149,6.309c1.838,1.147,1.985,3.208,2.106,5.303c0.651,11.285-2.89,21.152-9.572,30.117
				C458.074,304.998,455.925,305.862,456.999,307.999z"/>
			<path fill="#10050E" d="M368.98,238.033c-0.309,1.949,1.278,3.216,2.232,4.249c7.341,7.947,11.122,17.875,14.931,27.592
				c2.335,5.958,4.213,12.424,3.851,19.125c-2.528,0.092-2.732-2.083-3.308-3.646c-1.603-4.346-3.292-8.68-4.595-13.115
				c-3.642-12.399-10.052-23.343-17.231-33.92c-0.892-1.314-2.454-2.36-1.859-4.322c1.191-0.24,1.992,0.683,2.994,1.006
				C366.621,236.376,367.655,237.348,368.98,238.033z"/>
			<path fill="#18387A" d="M280.07,560.062c-3.848-2.498-7.86-3.077-12.097-1.036c-1.003-0.707-2.005-1.415-3.008-2.122
				c-0.997-1.883,0.194-2.542,1.661-2.323c4.326,0.647,7.054-1.015,8.425-5.124c0.141-0.423,0.735-0.62,1.212-0.771
				c0.485,0.1,1.132,0.354,1.135,0.744c0.025,3.378,1.596,6.071,3.615,8.59C281.03,558.854,281.062,559.695,280.07,560.062z"/>
			<path fill="#0F285F" d="M276.004,549.001c-1.189,1.102-0.582,3.031-2.098,4.183c-0.541,0.411,1.148,2.229,0.243,3.953
				c-2.121-2.06-4.731-2.369-7.505-2.147c-1.299,0.104-1.606,0.849-1.679,1.913c-2.663-0.247-4.618-1.602-6.005-3.843
				c0.033-0.329-0.009-0.69,0.118-0.978c0.153-0.348,0.313-1.08,0.879-0.265c2.233,3.215,5.598,1.938,8.585,2.145
				c0.786,0.055,1.485-0.577,1.245-1.136c-0.818-1.898,0.312-1.797,1.568-1.851c1.802-0.079,2.628-1.156,2.675-2.903
				c0.648-0.004,1.296-0.008,1.944-0.012c0.358,0.198,0.482,0.403,0.372,0.616C276.234,548.893,276.121,549.001,276.004,549.001z"/>
			<path fill="#19387A" d="M276.004,549.001c0.002-0.314-0.008-0.628-0.031-0.941c5.547-0.014,11.093-0.039,16.639-0.036
				c1.816,0.001,3.674,0.166,4.443-2.06c2.073,2.602,5.642,2.845,7.965,5.052c-3.856,2.636-8.633,2.249-12.816,3.907
				c-3.59,1.423-7.724,1.086-11.192,3.098c-0.186-0.256-0.323-0.67-0.565-0.745c-4.037-1.25-4.016-1.238-3.478-5.794
				C277.081,550.549,277.259,549.461,276.004,549.001z"/>
			<path fill="#FFF6D0" d="M332,364c-14.161,0.002-28.324-0.135-42.482,0.067c-6.555,0.094-12.56-2.347-18.876-3.309
				c-5.806-0.884-11.384-2.928-17.216-3.871c-3.071-0.497-5.925-1.919-8.606-3.603c-7.669-4.816-15.33-9.647-23.094-14.305
				c-1.628-0.977-2.863-2.135-3.877-3.645c-2.756-4.103-5.538-8.189-8.243-12.326c-0.804-1.229-1.619-2.492-1.62-4.089
				c-0.002-3.464-0.562-6.904-0.79-10.322c-0.473-7.085-0.25-14.21-1.143-21.3c-0.864-6.864,1.341-13.349,2.951-19.893
				c0.264-1.074,0.95-1.629,1.698-2.308c4.296-3.903,9.193-6.972,14.096-9.983c13.49-8.285,27.361-15.844,41.758-22.5
				c7.009-3.24,13.99-5.119,21.693-5.914c5.359-0.553,10.83-0.015,16.188-1.511c3.93-1.097,7.523,0.268,10.823,3.353
				c4.799,4.485,9.696,8.959,15.2,12.637c2.716,1.815,4.202,4.682,6.106,7.139c4.436,5.723,8.557,11.691,12.762,17.591
				c2.749,3.857,3.332,8.535,4.624,12.919c2.214,7.513,4.173,15.1,6.53,23.723c0.886-3.917,0.697-7.018,2.448-9.547
				c1.465,0.585,1.765,1.661,1.395,3.068c0.532-2.093-1.376-4.879,1.632-6.32c2.814,0.181,1.499,3.447,3.337,4.44
				c1.914-0.304,1.685-2.177,2.365-3.366c1.595-2.79,3.241-3.006,5.327-0.634c8.915,10.136,11.007,24.004,3.922,35.509
				c-3.769,6.121-8.481,11.803-12.687,17.742c-0.387,0.546-0.957,1.078-1.58,1.165c-6.366,0.891-10.883,5.508-16.416,8.065
				c-1.525,0.705-3.049,1.452-3.965,2.906c-1.435,2.277-3.533,3.488-6.086,3.858C336.835,359.922,334.806,362.632,332,364z"/>
			<path fill="#222222" d="M226.991,183.97c1.208-1.822,3.675-0.446,5.002-1.969c4.401-0.781,8.606-2.084,12.775-3.781
				c5.875-2.392,12.196-1.213,18.308-1.116c14.887,0.237,28.586,5.295,42.15,10.866c2.443,1.003,4.129,2.669,5.911,4.366
				c6.335,2.658,11.527,6.645,16.425,11.618c3.694,3.751,9.122,5.877,13.366,9.367c7.722,6.35,15.517,12.609,20.799,21.331
				c1.982,3.459,4.339,6.691,6.204,10.222c0.639,1.21,1.322,2.58,0.254,3.702c-1.26,1.325-2.443-0.01-3.49-0.659
				c-5.371-3.332-8.779-8.517-12.468-13.419c-1.787-2.374-3.164-5.05-5.489-7.505c1.049,1.976,1.987,3.594,2.62,5.351
				c0.602,1.671,0.741,3.368-0.939,4.472c-1.536,1.009-2.986,0.19-3.986-0.964c-4.776-5.515-10.753-9.928-14.763-16.138
				c1.21,2.356,3.092,4.3,4.134,6.748c0.378,0.888,0.833,1.925-0.205,2.7c-0.752,0.561-1.597,0.266-2.355-0.088
				c-1.665-0.778-3.161-1.841-4.603-2.962c-3.425-2.664-7.221-3.967-11.585-3.343c-1.401-0.534-3.073-0.403-4.162-1.7
				c-6.126-4.861-13.239-3.206-20.002-2.665c-9.412,0.752-18.556,3.349-27.617,5.826c-5.675,1.551-10.459,5.64-16.076,7.71
				c-2.738,1.009-4.988,3.321-8.2,3.064c-6.964,2.278-13.036,6.16-18.933,10.4c-4.069,2.926-8.271,5.668-12.786,8.044
				c5.011-9.42,14.162-14.741,21.115-22.275c-9.699,3.267-15.051,12.606-23.879,17.362c-2.432-0.846-2.702-2.519-1.555-4.844
				c3.709-7.519,7.831-14.735,14.197-20.405c1.116-0.994,2.136-2.1,3.172-3.181c0.339-0.354,0.627-0.782,0.255-1.803
				c-2.159,0.415-4.415,1-6.707,1.239c-1.717,0.179-2.784,0.577-4.308,1.852c-2.636,2.206-6.382,3.146-9.257,5.403
				c-0.551,0.432-1.662,0.457-2.037-0.599c-0.374-1.054,1.107-1.006,1.195-1.837c-1.756-1.374-3.301,1.74-5.109,0.206
				c0.74-1.986,3.58-1.805,4.251-4.248c-2.834-0.912-4.809,1.434-7.094,2.086c-2.652,0.756-5.337,1.649-8.017,2.217
				c-2.515,0.534-5.233,0.114-7.907,0.114c2.547-2.576,6.328-0.969,10.057-2.747c-3.755-1.756-6.934-0.443-10.142-1.227
				c2.118-1.477,4.255-1.981,6.582-1.751c2.399,0.236,4.26-1.641,6.703-1.67c-6.94-2.537-14.104-2.492-21.529-2.285
				c8.235-7.565,18.414-7.893,29.194-9.337c-2.977-1.015-5.076-1.804-6.931-3.115c0.35-1.12,1.934-0.202,2.233-1.31
				c0.262-0.969-0.509-1.504-1.074-2.079c-1.553-1.584-3.686-2.186-5.59-3.139c-5.679-2.845-9.827-7.589-14.737-11.632
				c8.592,1.832,16.994,4.028,25.682,4.586c3.908,1.248,8.114,1.544,11.629,4.049c2.966,2.114,5.505,4.44,5.606,8.347
				c0.225,8.714,6.123,13.721,12.271,18.317c2.741,2.049,5.436,3.685,5.219,7.605c2.471-0.527,4.104-1.709,6.179-2.667
				c-12.763-2.93-16.951-13.379-20.519-23.664c-2.121-6.114,2.089-12.342,8.235-15.331
				C225.529,185.261,226.598,185.055,226.991,183.97z"/>
			<path fill="#111111" d="M315.058,222.766c3.889-2.947,7.631-0.941,10.683,1.125c2.397,1.623,5.01,3.032,7.271,5.465
				c0.697-3.259-1.744-4.651-2.854-6.499c-1.196-1.992-2.144-4.028-3.136-6.011c1.27-1.254,2.12-0.441,2.547,0.406
				c3.761,7.45,11.222,11.68,15.916,18.32c0.427,0.604,1.534,1.487,2.563,0.755c1.088-0.774,1.193-1.889,0.584-3.101
				c-1.46-2.9-2.884-5.818-4.717-9.526c3.177,1.283,4.791,3.132,5.988,5.158c2.608,4.412,5.931,8.286,8.942,12.388
				c2.271,3.094,5.576,5.118,8.69,7.347c0.947-1.17,0.124-1.985-0.412-3.017c-1.882-3.621-4.871-6.598-6.125-10.574
				c0.375-0.921,0.938-1.467,2.005-1.004l-0.002-0.001c8.068,9.674,13.862,20.691,18.557,32.272
				c2.505,6.179,4.321,12.639,6.383,18.994c0.455,1.401,0.702,2.854,2.053,3.737c0.002,3.273-0.004,6.546,0.013,9.819
				c0.004,0.823,0.076,1.642-0.803,2.117c-0.229-0.031-0.458-0.061-0.688-0.089c-3.139-2.386-4.316-6.049-6.025-9.352
				c-1.431-2.765-3.055-5.389-4.989-7.824c-0.835-1.069-1.508-2.242-2.175-3.419c-0.72-1.4-1.735-2.669-1.951-4.299
				c-0.729-5.411-5.478-8.611-7.318-13.974c-0.114,1.354-0.048,2.128-0.171,2.892c-0.342,1.726,0.293,3.373,0.42,5.065
				c0.553,3.814,1.233,7.609,1.175,11.483c-0.197,2.917,0.692,6.031-1.553,8.571c-1.826,2.248-0.317,5.055-1.297,7.477
				c-0.569-1.49-1.136-2.977-1.703-4.463c-2.195-8.877-6.226-17.094-9.217-25.682c-2.615-7.508-7.494-13.608-11.847-20.043
				c-1.956-2.891-4.234-5.562-6.248-8.417C330.373,231.425,322.889,226.881,315.058,222.766z"/>
			<path display="none" fill="#FFFFFF" d="M199.107,351.183c0.51-0.212,0.835-0.57,0.895-1.137c3.514-0.191,5.485,2.52,7.98,4.245
				c0.962,0.575,1.923,1.151,2.885,1.726c3.706,1.333,7.806,1.624,11.053,4.173c1.553,1.04,3.256,1.641,5.129,1.739
				c4.51,1.173,9.252,1.749,12.943,5.031c5.235,0.088,9.877,2.708,14.942,3.505c2.372,0.373,4.526,1.705,7.009,1.555
				c1.72,0.912,3.85,0.414,5.497,1.588c6.288,6.55,10.633,14.286,13.799,22.728c0.569,1.516,1.511,2.993,0.956,4.75
				c-5.851,1.348-10.826,4.313-15.231,8.312c-1.424,1.172-2.306,2.796-3.461,4.193c-5.368,5.282-10.731,10.568-14.755,17.018
				c-2.376,2.543-3.512,6.222-7.047,7.706c-1.923-0.489-2.487-2.164-2.921-3.72c-1.86-6.671-6.859-11.197-10.963-16.343
				c-1.234-2.453-1.27-5.045-0.754-7.652c0.321-1.625,0.671-3.203-0.182-4.759c-0.492-3.169-3.876-3.299-5.528-5.25
				c-0.566-2.036-0.303-4.122-0.398-6.186c0.043-1.004,0.116-2.065,0.635-2.898c2.497-4.007,1.276-7.78-0.571-11.544
				c-0.607-1.347-1.639-2.282-2.899-2.998c-1.263-0.751-1.251-2.25-1.971-3.32c-1.738-2.544-4.279-4.371-6.104-6.833
				c-2.326-2.335-5.14-4.202-6.871-7.111c-1.034-2.137-2.422-4.062-3.676-6.07C199.093,352.86,198.591,352.1,199.107,351.183z"/>
			<path fill="#FFF4C9" d="M365.93,289.99c0.061-3,0.121-6,0.182-9c0.156-3.662,1.904-5.662,5.736-5.489
				c1.897,1.038,2.774,3.057,4.289,4.462c0.922,0.758,1.518,1.739,1.945,2.836c2.298,4.344,4.56,8.706,6.401,13.269
				c0.882,2.186,2.078,4.076,4.387,5l0.334-0.134c0.94,1.52,0.778,3.149,0.537,4.812c-0.57,3.929-1.271,7.851-1.578,11.803
				c-0.225,2.895-0.961,5.603-2.428,7.984c-3.033,4.922-5.777,10.041-9.414,14.575c-0.166,0.009-0.398-0.05-0.489,0.037
				c-8.361,8.022-19.172,11.825-29.133,17.124c-3.34,1.777-6.697,3.566-10.022,5.391c-1.437,0.789-2.897,1.666-4.675,1.337
				c0.988-1.986,2.853-3.187,4.299-4.762c0.425-0.463,1.169-1.148,1.573-1.035c4.416,1.227,6.191-1.577,8.305-4.686
				c1.645-2.419,5.185-2.427,7.601-4.278c1.877-1.439,4.161-2.595,6.241-3.893c1.154-0.72,2.124-1.55,3.566-1.344
				c2.484,0.356,3.821-0.761,5.011-2.983c2.003-3.741,4.499-7.219,6.807-10.794c0.266-0.412,0.591-0.929,1.005-1.081
				c3.237-1.184,3.539-4.411,4.979-6.876c1.663-2.846,2.637-5.721,1.74-9.016c-0.229-0.843,0.126-1.569,0.393-2.366
				c1.388-4.143-0.068-7.891-2.416-11.091c-1.683-2.294-3.293-4.548-4.042-7.252c-0.502-1.812-1.627-2.696-3.376-3.755
				c-0.632,1.805-1.552,3.283-1.58,4.777c-0.042,2.242-1.479,3.166-3.023,3.16c-2.27-0.009-2.029-2.105-2.097-3.761
				C366.941,291.886,367.468,290.556,365.93,289.99z"/>
			<path fill="#F4D496" d="M290.904,374.044c6.362-0.015,12.724-0.031,19.087-0.046c3.57,1.558,7.464-0.548,11.036,0.971
				c1.24,2.475-1.291,3.431-2.093,5.068c-1.524,3.106-3.554,5.939-5.022,9.081c-1.621,3.319-2.926,6.835-5.779,9.405
				c-0.467,0.258-0.96,0.43-1.48,0.538c-1.355,0.23-2.704,0.177-4.054-0.046c-4.086-1.244-9.564-0.602-9.767-7.151
				c0.838-3.67,0.392-7.508,1.402-11.154c1.548-2.004,2.114-0.433,2.621,0.799c0.816,1.982-0.119,4.253,0.87,6.266
				c4.22-3.314,3.458-5.88-2.379-8.249c-2.567-0.217-3.117-2.626-4.504-4.132C290.625,374.933,290.659,374.483,290.904,374.044z"/>
			<path fill="#110F0C" d="M239,235c3.681-2.459,7.695-4.27,11.732-6.039c1.207-0.529,2.523-0.926,3.566-1.689
				c8.056-5.896,17.818-6.164,27.017-8.246c6.766-1.531,13.622-2.108,20.594-2.185c3.94-0.043,6.733,1.528,9.606,3.585
				c0.029,0.021-0.077,0.308-0.18,0.413c-0.11,0.112-0.291,0.154-0.441,0.227c-11.264-3.911-22.325-1.712-33.484,0.79
				c-12.376,2.775-23.463,8.595-34.842,13.786c-1.985,0.905-3.149,2.969-5.353,3.462c-0.655-0.209-1.124-0.509-0.548-1.249
				C237.424,236.887,238.626,236.281,239,235z"/>
			<path fill="#240D17" d="M372.883,346.682c0.878,2.787-1.54,4.028-2.695,5.897c-2.03,3.283-4.641,5.848-8.186,7.421
				c-2.438,1.522-4.095,4.138-7.004,5l0.002-0.001c-6.232,2.333-11.878,6.136-18.537,7.411c-1.148-0.33-1.729-1.025-1.447-2.267
				c5.346-2.138,10.717-4.112,15.897-6.765C359.304,359.08,366.288,353.202,372.883,346.682z"/>
			<path fill="#240B17" d="M335.016,370.142c0.328,0.617,0.656,1.235,0.984,1.852c-2.238,1.698-4.709,2.935-7.321,3.978
				c-5.701,2.277-9.549,6.316-11.171,12.334c-0.717,1.136-1.609,2.156-2.879,2.58c-1.926,0.644-2.441-0.161-1.672-1.951
				c2.032-4.714,4.116-9.395,8.043-12.93c0.492-2.131,2.533-2.194,4.014-3.003C328.348,372.049,331.682,371.096,335.016,370.142z"/>
			<path fill="#AB825A" d="M290.904,374.044c0.066,0.321,0.099,0.645,0.098,0.973c-8.268,2.901-16.385,2.074-24.411-0.987
				c-1.598-0.558-3.347-0.765-4.648-2.009c6.329,0.762,12.72,0.754,19.04,1.789C284.216,374.339,287.592,373.994,290.904,374.044z"
				/>
			<path fill="#DEAC6E" d="M325.014,373.003c-1.338,1.001-2.676,2.002-4.014,3.003c-1.542-1.951-3.688-0.58-5.508-1.002
				c-1.819-0.422-3.967,0.958-5.502-1.007C315.065,374.666,319.967,372.74,325.014,373.003z"/>
			<path fill="#BB956B" d="M239.991,366.96c-4.314-1.677-8.629-3.354-12.943-5.031c3.076-0.686,11.249,2.174,12.948,4.547
				C240.071,366.583,239.996,366.797,239.991,366.96z"/>
			<path fill="#B69166" d="M221.919,360.19c-3.652-1.477-7.659-2.013-11.053-4.173c4.239-0.327,7.797,1.855,11.593,3.159
				c0.067,0.023,0.137,0.294,0.088,0.359C222.365,359.774,222.133,359.975,221.919,360.19z"/>
			<path fill="#B79063" d="M207.982,354.291c-3.04-0.701-5.084-3.274-7.98-4.245c0.255-1.157,1.195-1.044,2.043-1.103
				C203.936,350.825,207.19,351.191,207.982,354.291z"/>
			<path fill="#474747" d="M226.991,183.97c0.331,0.031,0.689-0.007,0.985,0.11c0.424,0.168,0.958,0.462,0.179,0.875
				c-1.311,0.694-2.678,1.283-3.973,2.002c-6.264,3.478-8.652,11.045-5.42,17.426c2.006,3.96,3.711,8.204,6.414,11.641
				c2.763,3.513,6.355,6.59,11.297,6.967c1.173,0.09,2.34,0.021,3.298,1.556c-3.449,1.743-6.843,3.459-10.156,5.134
				c-0.859-0.878-0.068-1.392-0.039-1.97c0.144-2.865-0.658-4.891-3.623-6.368c-4.916-2.448-8.539-6.623-11.758-11.008
				c-1.8-2.452-1.907-5.708-1.997-8.487c-0.131-4.024-2.361-6.123-5.206-7.76c-2.368-1.363-4.703-3.033-7.692-3.189
				c-1.196-0.062-2.551-0.587-3.253-1.872c8.086,0.393,15.859-1.574,23.585-3.482c1.766-0.436,4.055,0.437,5.409-1.526
				C225.689,184.002,226.34,183.986,226.991,183.97z"/>
			<path fill="#411339" d="M312.957,388.936c0.302,0.593-0.392,2.449,1.411,1.144c0.905-0.655,1.454-1.763,2.628-2.085
				c0.574-1.315,1.862-1.542,3.012-1.979c3.432-0.072,6.819-0.016,10.204,0.9c1.625,0.44,2.498,1.357,3.773,2.714
				c-3.515,0.715-6.394,2.067-8.978,3.989c-0.633,0.471-1.324,1.244-0.43,2.016c0.564,0.486,1.32,0.098,1.675-0.468
				c2.371-3.785,6.115-3.225,9.716-3.144c8.95,5.401,12.709,14.107,15.047,23.7c0.272,1.115,1.207,2.025,0.978,3.281
				c2.336,10.561,7.08,20.044,12.99,29.005c0.335,0.663,0.671,1.327,1.006,1.99c-2.033,2.056-1.259,4.935-1.725,7.321
				c-0.939,4.802-3.311,7.985-7.372,10.258c-0.538,0.301-1.037,0.671-1.54,1.001c0.964,1.756,2.554,1.393,4.008,1.417
				c0.991,0.016,1.996-0.097,2.971,0.03c2.463,0.322,2.929,1.389,1.56,3.577c-2.467,3.942-4.629,7.954-3.915,12.868
				c0.105,0.719,0.346,1.23,1.001,1.532c-0.996,2.326-1.991,4.652-2.987,6.978c-3.784,0.755-5.539,4.09-7.85,6.535
				c-3.806,4.027-7.447,7.735-13.712,6.581c-1.392-0.256-2.599,1.301-4.791,0.974c2.308,3.551,5.177,3.312,7.739,2.612
				c1.646-0.45,3.214-0.679,4.859-0.663c0.935,0.009,2.138-0.341,2.561,0.903c0.381,1.122,0.553,2.604-0.571,3.211
				c-3.467,1.872-5.22,6.21-9.433,6.82c-5.444,0.788-10.792-0.128-14.926-3.821c-2.988-2.669-5.205-6.248-5.227-10.976
				c2.278,2.272,4.663,4.449,6.81,6.839c3.5,3.894,8.232,4.245,12.919,4.771c0.339,0.038,0.75-0.564,1.575-1.228
				c-3.149-1.055-5.922-2.112-8.769-2.901c-2.504-0.694-4.458-2.053-6.055-4.025c-5.164-6.377-6.945-13.7-6.126-21.769
				c0.093-0.911,0.37-1.511,1.25-1.907c2.243-1.009,4.207-2.649,6.758-2.956c3.417-5.21,6.12-10.743,7.816-16.765
				c0.453-1.61,0.688-3.169,0.378-4.807c2.305-11.927-4.014-21.534-9.042-32.627c1.332,10.287,1.261,19.702,4.584,28.628
				c0.619,1.663,1.689,3.35,0.415,5.19c-0.031,2.638-1.007,5.115-1.449,7.681c-0.704,4.088-5.976,7.844-10.287,7.663
				c-4.8-0.201-9.765,0.146-13.806-3.545c-1.101-1.006-1.535-1.787-1.653-3.202c-0.463-5.553-1.365-11.076-0.971-16.68
				c0.052-0.735-0.335-1.23-1-1.517c-2.652-1.397-2.147-3.731-1.863-6.057c0.755-6.171,2.73-12.208,2.062-18.533
				c-0.538-4.406,1.778-8.145,2.845-12.18c0.549-1.427,1.126-2.845,1.975-4.129c2.549-4.719,2.169-10.034,3.074-15.087
				C309.707,394.99,311.332,391.963,312.957,388.936z"/>
			<path fill="#FFA405" d="M304.027,417.106c-0.231,3.013-1.364,5.788-2.469,8.532c-0.462,1.148-0.569,2.203-0.523,3.355
				c-1.47,10.041-2.036,20.236-5.08,30.011c-0.499,0.85-1.14,1.66-0.958,2.737c0.854,5.062-0.643,9.977-1.26,14.892
				c-0.644,5.125-0.263,10.253-0.91,15.339c-1.507,9.835-7.863,15.844-16.21,20.077c-4.414,2.239-9.606,0.829-12.419-3.245
				c-3.306-4.787-5.103-10.188-4.281-16.046c0.511-3.643,0.718-7.274,0.863-10.928c1.161-5.377,3.225-10.479,5.055-15.632
				c5.707-16.066,8.292-32.833,11.486-49.464c0.916-4.77,2.252-9.363,4.482-13.681c0.221-0.486,0.529-0.916,0.907-1.292
				c1.281-0.754,2.953-0.861,3.576,0.328c2.569,4.909,7.779,5.069,11.964,7.065C300.068,411.88,304.652,412.606,304.027,417.106z"/>
			<path fill="#EA5801" d="M262.035,481.992c-0.128,3.607-0.204,7.161-0.876,10.787c-1.063,5.728,1.223,11.038,4.218,15.842
				c1.885,3.024,7.287,4.068,10.646,2.373c7.82-3.945,13.394-9.902,16.139-18.34c0.088-0.271,0.437-0.457,0.665-0.683
				c0.583,11.46-1.077,22.867-0.765,34.332c0.136,4.99,0.127,9.914,1.998,14.629c-0.044,2.688-2.467,2.758-3.939,2.798
				c-12.228,0.333-24.55,1.211-36.275-3.569c-8.581-3.498-8.832-3.965-8.049-13.249c0.097-0.513,0.289-1.004,0.553-1.456
				c1.651-1.644,3.093-0.023,4.502,0.44c5.205,1.709,10.351,3.595,17.05,2.525c-8.012-3.144-14.55-7.242-21.11-11.305
				c-0.314-0.702-0.312-1.4,0.014-2.096c0.133-0.307,0.208-0.628,0.225-0.963c3.108-9.307,7.771-17.972,11.185-27.153
				C259.501,485.28,259.005,482.258,262.035,481.992z"/>
			<path fill="#FEFEFE" d="M329.155,463.603c-3.547-8.863-4.986-18.15-5.735-27.606c-0.25-3.152-0.403-6.272-0.39-9.439
				c1.469,0.177,1.639,1.035,2.042,2.028c2.467,6.086,5.671,11.832,8.067,17.977c2.143,5.498,2.621,10.863,1.07,16.483
				c-0.321,3.904-0.772,4.316-3.239,2.963C330.653,464.989,329.973,464.244,329.155,463.603z"/>
			<path fill="#B53A04" d="M246.933,525.923c0.02,1.331-0.132,2.694,0.106,3.984c0.271,1.473-1.826,2.674-0.383,4.171
				c1.612,1.673,2.963,3.758,5.08,4.741c5.711,2.652,11.831,3.9,18.089,4.121c6.153,0.217,12.319,0.037,18.48,0.058
				c2.182,0.008,4.319-0.031,5.756-2.065c1.769,1.797,1.19,2.85-1.069,3.371c-11.228,1.269-22.414,0.811-33.451-1.477
				c-5.269-1.092-10.368-3.006-15.544-4.547c-0.473-1.393-1.351-2.692-0.995-4.277C244.559,531.429,242.799,527.241,246.933,525.923
				z"/>
			<path fill="#390D0D" d="M295.955,459.004c0.179-6.471,1.63-12.773,2.576-19.141c0.546-3.68,0.209-7.586,2.504-10.87
				c1.617,0.822,1.075,2.373,0.909,3.52c-0.764,5.292-1.642,10.571-2.665,15.819c-0.398,2.043-0.362,3.883,0.709,5.67
				c-1.145,0.438-1.277,1.201-1.556,2.429c-0.462,2.032-0.094,4.119-0.677,6.144C296.206,461.767,297.903,459.501,295.955,459.004z"
				/>
			<path fill="#1C0819" d="M330.969,466.009c0.811,0.312,1.763,1.888,2.272-0.319c0.209-0.908,0.638-1.765,0.967-2.645
				c0.882,0.5,0.968,1.338,0.661,2.121c-2.368,6.043-4.836,12.043-7.846,17.807c-0.478,0.915-1.19,0.99-2.019,1.01
				c-4.261-1.429-8.459-2.357-12.034,1.546c-0.802,0.876-1.657,1.636-2.972,1.47l0.002,0.002c0.652-0.931,1.518-1.781,1.911-2.811
				c0.734-1.922,2.121-2.264,3.909-2.208c2.136,0.068,4.277,0.024,6.415,0.016c0.974-0.004,1.943,0.085,2.807-0.607
				c2.161-1.729,2.832-4.344,4.017-6.645c1.164-2.26,3.071-4.42,1.173-7.235C329.804,466.875,330.272,466.294,330.969,466.009z"/>
			<path fill="#140311" d="M309.998,487c0.785,3.641-1.635,6.632-2.366,9.94c-0.867,3.924,0.151,7.059,1.148,10.442
				c0.588,1.995,1.454,3.908,2.44,6.501c-1.683-0.613-2.547-1.367-2.905-2.337c-2.558-6.942-3.364-14.016-0.95-21.166
				c0.446-1.322,0.903-2.926,2.634-3.378L309.998,487z"/>
			<path fill="#190514" d="M318.972,521.96c2.762,1.468,4.176,4.76,7.328,5.686c2.912,0.855,5.93,0.032,8.924,0.455
				c-2.283,1.897-2.283,1.901-5.695,1.897c-2.132-0.003-4.234,0.27-5.888-1.776c-1.626-2.01-3.621-3.722-5.454-5.564
				C318.449,522.425,318.71,522.193,318.972,521.96z"/>
			<path fill="#2E0C29" d="M456.999,307.999c-1.79-0.027-2.936-1.583-1.546-2.363c5.094-2.857,5.809-8.392,8.502-12.669
				c3.229-5.13,3.184-10.947,3.251-16.849c0.053-4.732-0.283-8.444-6.269-8.798c2.735-4.406,4.841-8.207,5.118-12.821
				c0.217-3.624-0.399-6.795-2.717-9.685c-1.913-2.384-2.863-5.17-2.097-8.287c0.462-1.882-0.379-3.433-1.052-5.067
				c-0.996-2.419-2.227-4.771-2.215-7.506c0.003-0.624-0.12-1.442-0.516-1.844c-6.838-6.941-7.929-16.827-12.776-24.773
				c-0.662-1.085-0.684-2.183-0.679-3.343c1.298,1.247,2.262,2.738,3.09,4.316c4.593,8.748,9.185,17.496,13.749,26.259
				c2.059,3.954,2.83,8.379,3.942,12.601c1.246,4.733,2.709,9.393,4.249,14.008c2.417,7.243,2.381,14.396,1.179,21.854
				c-0.829,5.144-1.341,10.364-2.211,15.521c-0.552,3.268-1.602,6.211-3.801,8.897C461.51,300.73,459.373,304.462,456.999,307.999z"
				/>
			<path fill="#2F0D25" d="M320.009,386.017c-0.623,1.24-2.006,1.323-3.012,1.979c0.397-6.323,4.551-10.186,9.613-12.554
				c2.924-1.368,5.855-3.46,9.391-3.448c6.275-2.492,12.2-5.932,19-6.996c-4.961,3.828-10.438,6.693-16.246,9.024
				c-1.786,0.717-3.65-0.445-5.462,1.018c-2.395,1.934-4.064,4.218-5.187,6.97c-0.298,0.731-0.116,1.665-1.109,1.994
				c-1.777-0.001-3.554-0.02-5.331,0.004c-1.001,0.014-1.852,0.352-2.238,1.38c-0.038,0.103,0.063,0.301,0.158,0.399
				C319.692,385.898,319.865,385.943,320.009,386.017z"/>
			<path fill="#2C0B27" d="M424.002,342.003c-0.802-2.831-0.038-5.272,2.462-6.736c5.802-3.398,11.294-7.168,15.917-12.111
				c0.721-0.771,1.63-2.028,2.613-0.161c-2.919,1.278-3.87,4.362-5.903,6.463C434.509,334.191,429.787,338.728,424.002,342.003z"/>
			<path fill="#10050E" d="M363.003,233.997c-0.668,0.335-1.337,0.67-2.005,1.004c-5.2-7.775-11.966-14.147-19.38-19.594
				c-4.397-3.23-8.087-7.773-13.823-9.12c-1.275-0.3-3.07-0.721-2.009-3.028c0.42-0.912-0.846-1.203-1.529-1.59
				c-4.114-2.331-7.383-5.943-11.809-7.811c-0.229-0.097-0.304-0.561-0.45-0.854c-0.346-0.222-0.46-0.444-0.345-0.666
				c0.115-0.221,0.231-0.331,0.347-0.331c2.699-0.346,5.012,1.048,6.777,2.54c3.358,2.84,8.309,3.524,10.535,7.869
				c0.202,0.394,1.169,0.543,1.784,0.551c2.223,0.03,4.029,1.626,4.936,2.917c1.962,2.793,4.678,4.538,7.035,6.78
				c5.892,5.602,11.53,11.472,17.314,17.189C361.595,231.055,362.3,232.509,363.003,233.997z"/>
			<path fill="#120510" d="M312.001,192.008c0,0.332-0.001,0.665-0.003,0.997c-0.962-0.08-2.228,0.353-2.766-0.634
				c-2.144-3.933-5.987-4.439-9.785-5.5c-3.911-1.093-7.844-2.425-11.539-4.056c-12.19-5.379-25.019-4.933-37.823-4.737
				c-3.75,0.057-7.09,2.31-10.791,3.113c-2.458,0.533-4.841,0.772-7.301,0.81c2.933-1.791,6.458-1.883,9.536-3.421
				c-0.31-0.617-0.658-1.312-0.981-1.954c-0.06-0.422,0.136-0.608,0.579-0.609c6.825-0.005,13.653-0.131,20.476,0.011
				c12.95,0.271,25.317,3.491,37.303,8.123c3.161,1.222,6.15,2.955,9.419,4.023C310.172,188.777,310.539,190.949,312.001,192.008z"
				/>
			<path fill="#411339" d="M262.035,481.992c-1.641,1.295-1.064,3.84-2.848,5.055c-2.192,2.198-1.643,6.833-6.175,6.952
				c-4.651-2.878-4.46-7.061-2.731-11.355c0.6-1.49,0.363-2.469-0.277-3.641c2.673-6.689,5.333-13.383,8.023-20.065
				c4.16-10.33,8.913-20.428,12.086-31.143c1.576-5.32,3.229-10.616,4.802-15.936c0.122-0.414-0.11-0.933-0.259-1.97
				c-4.788,8.862-6.664,18.189-9.658,27.11c-0.823,0.07-1.568,0.109-1.944,1.128c-3.127,8.469-7.503,16.163-14.116,22.444
				c-0.12,0.114-0.225,0.247-0.355,0.35c-1.927,1.537-3.756,4.104-5.814,4.303c-1.898,0.184-4.232-1.871-6.351-2.884
				c-3.752-1.795-7.427-3.95-10.334-6.585c-2.768-2.509-6.682-4.02-8.219-7.965c-0.825-2.118-3.464-2.689-4.677-4.875
				c-1.536-2.767-1.918-5.52-0.429-7.889c1.426-2.269,1.189-4.294,1.062-6.91c-4.29,1.035-8.336,0.037-12.414-0.088
				c-5.272-0.161-6.548-1.283-7.406-7.03c1.422-3.609,4.018-0.837,6.053-1.114c0.97,0.372,1.748,1.355,2.968,0.933
				c1.685-1.404,3.848-1.859,5.82-2.408c4.556-1.27,6.911-4.045,7.258-8.675c1.399-2.885,2.548-5.978,5.935-7.239
				c2.162,0.088,4.075,0.684,5.323,2.624c1.206,2.407,0.151,4.856,0.096,7.282c-0.041,1.804-0.385,3.612,0.664,5.261
				c2.101,4.336,6.425,6.938,8.52,11.414c2.706,5.779,4.706,11.685,5.3,16.915c-0.979-1.924-0.706-4.966,0.001-8.028
				c2.018-2.651,4.037-5.302,6.055-7.953c4.897-5.881,10.309-11.324,14.885-17.477c1.031-1.189,2.063-2.379,3.094-3.568
				c3.178-0.816,5.06-3.582,7.748-5.162c3.024-1.778,5.978-2.703,9.256-0.813c-5.708,14.357-6.734,29.777-10.192,44.644
				c-1.115,4.792-2.726,9.473-4.211,14.173C266.443,468.548,264.22,475.264,262.035,481.992z"/>
			<path fill="#401530" d="M200.055,419.882c-0.814,1.732-1.989,1.147-3.214,0.536c-1.068-0.533-2.149-0.863-2.839,0.578
				c-0.565-0.289-1.107-0.639-1.698-0.857c-3.197-1.178-3.201-1.167-1.309-4.122C194.794,415.478,198.065,416.179,200.055,419.882z"
				/>
			<path fill="#0D2769" d="M260.952,679.671c2.138-0.966-0.901-3.56,1.612-3.529c1.485,0.018,2.737-1.893,4.112-0.538
				c1.649,1.625-1.694,2.065-1.036,3.607c0.415,0.972,0.341,1.568-1.023,1.102C263.703,680.001,262.696,679.962,260.952,679.671z"/>
			<path fill="#ACD5E6" d="M187.146,389.012c-1.569-2.053-3.827-2.104-6.103-2.1c-0.397-1.77-0.199-4.199-3.296-2.961
				c-0.797,0.242-2.044,0.783-2.368,0.243c-2.725-4.549-8.949-6.205-9.992-12.11c0.812-2.168,1.248-4.512,2.899-6.294
				c1.588-0.404,4.954,2.844,4.323-2.114c3.442-9.148,5.992-10.761,13.717-8.685c1.076,0.818,2.098,1.687,2.734,2.918
				c0.245,1.121-0.916,2.542,0.071,3.289c1.195,0.906,1.801-1.037,2.89-1.235c0.963,0.655,1.927,1.31,2.89,1.965
				c1.285,0.797,1.314,2.677,2.947,3.24c3.079,1.061,3.53,3.483,3.043,6.307c0.705,1.483,2.277,1.808,3.482,2.62
				c0.992,1.463,1.391,3.244,2.509,4.642c0.895,1.381,1.764,2.771,1.959,4.458c0.048,1.695-0.48,3.274-0.978,4.859
				c-1.428,2.912-3.86,4.493-7.002,4.733c-1.986,0.151-3.38,1.073-4.687,2.373C192.112,394.671,189.132,392.571,187.146,389.012z"/>
			<path fill="#FEF2C8" d="M200.983,402.012c0.001,0.473-0.162,1.029,0.029,1.405c1.329,2.608,0.648,4.435-2.013,5.574
				c-2.964,0-5.93,0.047-8.893-0.013c-3.784-0.077-6.952-1.372-8.97-4.644c0.202-1.995,2.576-0.725,2.922-2.266
				c4.369-0.756,8.884-0.587,13.136-2.078C198.489,400.603,199.213,402.288,200.983,402.012z"/>
			<path fill="#77A0B3" d="M169.037,366.028c-0.933,0.311-1.05,1.046-1.073,1.902c-0.044,1.631-0.455,3.12-1.946,4.074
				c-1.07-0.761-1.683-1.685-1.081-3.041c2.583-5.881,5.978-11.231,10.536-15.781c2.724-2.719,3.12-2.765,6.444-1.201
				c1.616,0.761,3.419,1.308,4.41,3.01c-2.209-0.006-4.366,0.554-6.558,0.749c-2.174,0.193-4.922,0.735-4.402,4.45
				c0.194,1.384-1.078,2.899-2.412,3.879C171.877,365.18,170.557,365.805,169.037,366.028z"/>
			<path fill="#91A4B5" d="M195.839,395.039c0.758-1.947,0.428-4.563,4.335-3.286c2.548,0.833,5.002-1.604,6.831-3.743
				c0.854-0.804,1.652-1.775,3.032-1.025c0.205,1.376-0.11,2.543-1.146,3.562c-2.33,2.293-4.662,4.591-6.87,6.999
				c-1.409,1.537-3.135,1.537-4.944,1.496c-0.53,0.34-1.012,0.282-1.448-0.174C194.882,397.547,194.805,396.262,195.839,395.039z"/>
			<path fill="#AAB9B3" d="M164.937,368.964c0.389,1.003,1.287,1.826,1.081,3.041c-0.123,2.823,3.387,3.277,3.763,5.775
				c4.066-1.885,3.763,1.881,4.087,3.648c0.596,3.252,2.546,1.468,4.019,1.569c0.724,1.312,2.385,2.137,2.078,3.987
				c-1.389-0.051-2.778-0.101-4.167-0.152c-3.133-4.261-7.21-7.629-10.9-11.354c-1.577-1.592-2.131-3.223-1.823-5.298
				C163.234,369.104,164.135,369.094,164.937,368.964z"/>
			<path fill="#B2ABA0" d="M217.07,372.996c1.697,0.966,0.48,2.704,1.051,3.968c-0.325,0.881-0.835,0.853-1.41,0.257
				c-6.213-6.43-12.841-12.454-18.749-19.183l0.07-0.057c2.68-1.368,3.747,1.001,5.287,2.275c1.676,1.843,3.45,3.591,5.268,5.294
				C211.417,368.03,213.383,371.492,217.07,372.996z"/>
			<path fill="#AA8A6A" d="M222.005,403.018c-2.417,1.778-3.62,4.425-4.983,6.957c-1.008,0.806-2.002,0.903-2.978-0.054
				c1.358-1.837,2.644-3.733,4.091-5.497c2.071-2.524,2.032-5.459,1.905-8.444c-0.123-0.677-0.673-1.334-0.098-2.045
				c0.053-0.271,0.095-0.544,0.124-0.818c1.134-0.716,1.381,0.306,1.829,0.934c0.049,2.349,0.099,4.698,0.148,7.047
				C222.608,401.749,222.525,402.388,222.005,403.018z"/>
			<path fill="#E0757D" d="M208.146,382.802c-0.768-1.282-1.536-2.564-2.304-3.846c-0.277-1.475,0.927-1.954,1.784-2.673
				c0.807-0.474,1.618-0.95,2.567-0.335c0.616,0.66,1.232,1.321,1.847,1.981C212.053,380.602,213.343,384.295,208.146,382.802z"/>
			<path fill="#B5BCC1" d="M199.939,372.023c-0.902-0.569-2.36-0.873-1.006-2.421c1.303-1.489,0.908-3.598-0.536-3.314
				c-4.469,0.878-3.076-2.342-3.486-4.358c0.232-0.504,0.656-0.82,1.077-0.371c2.334,2.486,5.143,4.52,7.056,7.405
				c-0.086,0.684-0.464,1.198-0.951,1.651C201.445,371.188,200.784,371.747,199.939,372.023z"/>
			<path fill="#829ACA" d="M208.146,382.802c1.113,0.088,2.464,0.59,2.744-1.137c0.213-1.312,1.367-2.311,1.151-3.735
				c2.798,3.785,0.036,6.34-2.004,9.055c-1.02,0.314-1.829,1.251-3.032,1.025C206.522,386.085,208.094,384.61,208.146,382.802z"/>
			<path fill="#C4C3C1" d="M221.895,394.051c-0.61-0.311-1.219-0.623-1.829-0.934c0.602-1.326,1.571-2.61,1.725-3.986
				c0.262-2.339,1.035-4.882-1.052-6.951c-0.759-0.753-1.161-1.651,0.281-2.218c3.418,3.396,4.086,7.081,1.38,11.275
				C221.923,391.976,222.048,393.103,221.895,394.051z"/>
			<path fill="#6FDEEA" d="M192.021,359.965c-0.033,2.041-1.211,3.239-3.013,3.842c-0.691,0.231-1.235-0.441-1.539-0.958
				c-1.288-2.195,0.534-3.456,1.591-4.937C190.485,357.965,191.453,358.676,192.021,359.965z"/>
			<path fill="#E1B378" d="M195.969,398.899c0.369,0.048,0.739,0.096,1.108,0.143c-0.06,0.328-0.021,0.643,0.118,0.947
				c-2.259,1.897-4.965,2.067-7.737,2.037c-1.799-0.02-3.6,0.025-5.399,0.042c-0.467-0.098-0.933-0.196-1.4-0.294
				c-0.019-0.258-0.038-0.516-0.056-0.774c2.442,0,4.885-0.042,7.326,0.014c1.738,0.04,3.367-0.003,4.084-1.993
				C194.633,398.478,195.282,398.395,195.969,398.899z"/>
			<path fill="#B2B1B0" d="M208.988,393.001c2.583-2.52,4.086-2.676,5.965-0.621c1.691,1.849,1.477,3.118-0.951,5.624
				c-0.914,0.49-1.159-0.118-1.351-0.817c0.628-2.287-0.749-3.02-2.623-3.365C209.61,393.638,209.261,393.367,208.988,393.001z"/>
			<path fill="#A1A7AB" d="M201.995,369.995c0.116-0.581,0.482-0.908,1.049-1.031c2.727,1.976,5.046,4.371,7.149,6.985
				c-0.736,0.342-1.471,0.684-2.207,1.026c-1.892-0.923-2.535-3.185-4.419-4.117C202.598,372.148,201.94,371.266,201.995,369.995z"
				/>
			<path fill="#BAAE9E" d="M213.084,402.988c-1.805,3.791-5.367,5.844-8.963,4.922c-1.361-0.349-1.33-1.261-0.053-1.954
				c1.29,1.886,2.741,1.176,4.183,0.239C209.872,405.141,211.474,404.058,213.084,402.988z"/>
			<path fill="#C7C6C6" d="M213.039,397.069c0.073,0.567,0.422,0.85,0.963,0.934c-1.816,1.812-3.437,1.153-4.921-0.443
				c-1.361-1.464-1.731-3.006-0.094-4.559c0.345,0.007,0.689,0.014,1.034,0.021C210.588,394.699,211.942,395.788,213.039,397.069z"
				/>
			<path fill="#B4ACA0" d="M219.942,393.935c-0.214,0.694,1.6,1.29,0.098,2.045c-1.965,2.087-3.495,4.607-6.066,6.09
				C214.963,398.625,217.724,396.48,219.942,393.935z"/>
			<path fill="#46101C" d="M253.012,493.999c3.173-1.327,3.394-5.277,6.175-6.952c-0.158,3.233-2.085,5.834-3.313,8.635
				c-2.728,6.221-4.736,12.814-8.845,18.377c-0.323-3.05,0.412-5.892,1.805-8.566C250.737,501.841,251.573,497.812,253.012,493.999z
				"/>
			<path fill="#46101C" d="M246.933,525.923c-2.505,2.111-1.741,5.814-3.932,8.079c-0.309-3.015,0.158-5.937,1.356-8.689
				c1.437-3.299,0.977-7.02,2.447-10.292c0.096,0.674,0.192,1.349,0.288,2.023c1.749,2.634,1.865,5.276,0.037,7.927
				C247.01,525.278,246.945,525.595,246.933,525.923z"/>
			<path fill="#FEF2C9" d="M195.969,398.899c-0.652,0.041-1.304,0.081-1.957,0.122c-3.566-0.963-7.086-2.21-10.712-2.806
				c-3.309-0.544-4.929-2.733-6.709-5.079c-1.026-1.351,0.114-2.08,0.452-3.065c3.466-0.733,6.644,1.619,10.104,0.942
				c2.898,2.009,5.796,4.018,8.693,6.027C195.882,396.326,195.926,397.612,195.969,398.899z"/>
			<path fill="#F1CF92" d="M214.044,409.921c0.993,0.018,1.985,0.036,2.978,0.054c0.02,4.395-1.341,7.655-6.241,8.652
				c-2.615,0.532-4.64,3.284-7.758,2.188c-0.64-1.298-1.662-2.422-1.862-4.353c2.639-1.085,5.761,0.129,8.411-1.36
				c1.035-0.581,2.044-0.936,2.474-2.12C213.265,412.322,213.366,410.933,214.044,409.921z"/>
			<path fill="#310E2C" d="M364.985,448.009c-3.807-3.407-6.38-7.809-8.789-12.143c-1.773-3.19-2.509-7.007-3.865-10.501
				c-0.73-1.88-0.262-4.225-0.335-6.36c2.655,3.206,3.611,7.274,5.323,10.932C360.088,435.853,363.183,441.669,364.985,448.009z"/>
			<path fill="#FBF0C9" d="M199.107,351.183c0.329,0.551,0.657,1.102,0.986,1.652c-0.769,1.349,0.728,3.818-2.059,4.17
				c-2.637-2.478-5.257-4.977-7.924-7.423c-0.795-0.729-1.246-1.522-1.128-2.605C193.322,346.054,196.303,348.406,199.107,351.183z"
				/>
			<path fill="#E7C898" d="M198.033,357.005c1.257-0.524,1.191-1.577,0.724-2.471c-0.913-1.749,0.549-1.411,1.336-1.699
				c1.551,1.898,3.022,3.845,3.862,6.186c-0.539,0.552-0.148,1.586-1.019,1.967c-1.891-0.584-2.518-3.229-4.904-3.007
				C198.03,357.656,198.03,357.331,198.033,357.005z"/>
			<path fill="#E9EADF" d="M179.965,386.984c-0.198-0.245-0.38-0.689-0.597-0.706c-2.522-0.204-2.413-1.546-1.481-3.281
				c1.673-2.331,3.452-0.608,4.467,0.382c1.52,1.484-1.152,2.205-1.311,3.533C180.684,386.936,180.324,386.96,179.965,386.984z"/>
			<path fill="#2F0D25" d="M354.998,364.999c1.563-2.747,4.184-4.014,7.004-5c-0.785,1.239-1.475,2.553-2.379,3.698
				C358.444,365.19,356.977,366.128,354.998,364.999z"/>
			<path fill="#090908" d="M285.071,298.023c0.954-0.726,1.511-1.741,2.028-2.785c4.998-5.276,11.475-5.873,18.493-1.702
				c6.292,3.738,9.227,11.012,6.844,17.51c-1.352,3.686-3.326,6.835-7.909,7.254c-5.408,0.494-9.798-0.773-12.667-5.824
				c-2.314-4.074-1.86-7.917,0.378-11.767c0.665-1.144,1.84-1.853,2.617-2.924c-2.339,0.716-4.455,2.004-6.774,2.568
				C286.625,300.706,284.067,301.357,285.071,298.023z"/>
			<path fill="#FEF3C6" d="M285.071,298.023c-0.068,2.045,0.63,3.046,2.518,1.476c3.149-2.619,6.857-3.063,11.188-3.236
				c-3.753,2.685-6.815,5.284-7.213,9.946c-0.381,4.452,3.232,10.16,7.565,10.771c3.688,0.52,7.599,1.362,10.298-2.641
				c3.08-4.568,3.419-9.33,0.905-14.087c-3.89-7.36-12.995-10.016-20.534-6.259c-0.886,0.442-1.799,0.831-2.699,1.244
				c-0.118-0.965-1.476-1.735-0.829-2.696c1-1.485,2.122-2.948,4.013-3.523c3.133-0.952,6.462-0.764,9.611-1.757
				c0.911-0.287,2.38,0.227,3.226,0.862c3.977,2.99,8.632,5.375,10.265,10.645c0.145,0.467,0.324,0.997,0.658,1.322
				c3.758,3.658,3.062,8.067,1.878,12.381c-0.744,2.71-2.727,5.002-4.801,6.689c-3.734,3.037-8.609,3.956-13,2.583
				c-3.061-0.957-6.508-3.201-7.823-6.458c-1.361-3.371-3.157-6.504-4.551-9.838c-0.52-1.242-1.273-2.159,0.16-3.453
				c1.374-1.241-0.458-0.785-0.843-1.063C283.693,299.94,283.437,298.989,285.071,298.023z"/>
			<path fill="#0B0B09" d="M216.033,297.017c-0.163,0.03-0.36,0.012-0.485,0.098c-0.988,0.685-1.197,3.061-2.657,2.219
				c-1.856-1.07-0.667-2.994,0.124-4.367c1.344-2.333,3.044-4.362,5.965-4.81c1.638-0.252,3.264-0.61,4.909-0.779
				c10.827-1.116,16.079,8.694,14.017,17.235c-0.946,3.916-5.568,6.824-10.051,6.488c-3.8-0.284-7.346-3.655-7.819-7.764
				c-0.225-1.952,0.079-3.964,0.143-5.949c0.218-1.584,0.282-3.219,1.628-4.526C219.749,295.482,218.052,296.685,216.033,297.017z"
				/>
			<path fill="#F6DCA2" d="M248.498,324.725c3.319-1.672,4.65-6.847,9.212-5.573c2.555,0.714,6.033,0.355,7.328,4.33
				C259.512,325.032,253.846,322.552,248.498,324.725z"/>
			<path fill="#E9C790" d="M241.831,338.748c5.754,2.611,11.075,3.752,17.352,3.229c-3.075,3.315-6.489,2.309-9.114,1.742
				C247.351,343.132,243.38,343.621,241.831,338.748z"/>
			<path fill="#F3E9B7" d="M216.033,297.017c2.295-2.531,4.924-4.305,9.096-3.943c-1.988,2.222-4.052,3.85-4.95,6.315
				C218.797,298.598,217.415,297.808,216.033,297.017z"/>
			<path fill="#E6C289" d="M263.139,341.675c3.218-1.704,6.323-2.21,8.809-4.076c0.849-0.637,1.951-1.004,2.603-0.066
				c0.751,1.079-0.331,1.859-1.157,2.246C270.311,341.22,267.19,342.648,263.139,341.675z"/>
			<path fill="#ECC888" d="M388.87,301.069c-1.726,0.404-3.221,0.955-4.136-1.581c-2.03-5.63-5.268-10.789-6.652-16.688
				c2.585,2.231,3.712,5.41,5.331,8.262C385.288,294.366,387.056,297.731,388.87,301.069z"/>
			<path fill="#110E0B" d="M364.999,264.751c-0.093-1.129-0.081-2.28-0.317-3.378c-0.15-0.7-0.435-1.279,0.576-1.303
				c0.444-0.011,1.204,0.133,1.295,0.391c1.793,5.097,5.861,8.846,8.067,13.692c0.438,0.961,0.243,1.515-0.702,1.875
				C369.293,273.575,367.508,268.877,364.999,264.751z"/>
			<path fill="#FCEDB5" d="M371.964,276.016c-1.841-0.47-2.351,2.819-4.674,1.64c-0.339-0.172,0.469,2.612-1.178,3.334
				c-0.349-3.986-0.699-7.972-1.048-11.958C369.148,269.598,370.765,272.6,371.964,276.016z"/>
			<path fill="#E9C789" d="M371.964,276.016c-1.854-2.769-4.246-5.006-6.9-6.985c0.289-1.432-2.438-2.818-0.065-4.281
				c3.995,2.393,5.109,7.011,7.955,10.292c0.301,0.347,0.643,0.657,0.965,0.985c0.6,1.391,2.047,2.304,2.219,3.936
				C374.218,279.207,373.07,277.633,371.964,276.016z"/>
			<path fill="#300D26" d="M266.591,374.03c8.123,0.685,16.241,1.489,24.411,0.987c2.655,0.059,2.315,2.924,3.811,4.068
				c0.711,0.158,0.776,0.456,0.192,0.893c0.184,4.051,0.445,8.109-1.055,12.013c-0.716,1.878-1.293,3.836-2.951,5.18
				c-0.295,0.35-0.614,0.676-0.937,0.999c-1.754,2.319-3.804,4.025-6.991,3.329c-0.488,0.019-0.885-0.161-1.192-0.54
				C278.336,391.1,273.409,382.028,266.591,374.03z"/>
			<path fill="#210D1E" d="M241.939,437.96c0.627,0.303,1.238,0.755,1.029,1.485c-1.062,3.714-0.134,7.245,0.832,10.879
				c-1.896-2.87-3.679-5.504-3.939-9.217c-0.381-5.443-2.976-10.316-6.1-14.729c-1.497-2.115-2.818-4.453-4.943-6.101
				c-0.717-0.556-0.847-1.373-0.721-2.237c0.207-0.008,0.414-0.016,0.62-0.024c5.206,4.401,9.002,9.754,11.218,16.243
				C240.378,435.556,240.556,437.12,241.939,437.96z"/>
			<path fill="#371F30" d="M281.878,400.957c0.437,0.049,0.874,0.098,1.311,0.147c0.222,0.207,0.329,0.438,0.319,0.692
				c-0.01,0.265-0.044,0.398-0.101,0.398c-0.118,0.278-0.261,0.542-0.429,0.792c-5.746-0.853-10.158,1.624-14.042,5.535
				c-0.784,0.79-1.661,2.483-2.962,0.439C270.628,405.007,274.867,400.228,281.878,400.957z"/>
			<path fill="#291426" d="M262.879,412.53c0.263,1.232-0.082,2.236-1.015,3.107c-4.203,3.925-8.091,8.114-11.114,13.056
				c-0.482,0.788-1.395,1.315-2.13,1.938c-0.054,0.045-0.312-0.078-0.414-0.183c-0.108-0.11-0.144-0.292-0.212-0.442
				C251.853,423.242,257.304,417.833,262.879,412.53z"/>
			<path fill="#EFCC96" d="M217.07,372.996c-0.83,0.149-1.53,1.26-2.523,0.091c-2.076-2.444-4.806-4.287-6.544-7.051
				c0.86-0.865,1.797-0.573,2.741-0.184C212.387,368.645,215.621,370.031,217.07,372.996z"/>
			<path fill="#B18E69" d="M210.744,365.852c-0.914,0.061-1.828,0.123-2.741,0.184c-2.074-1.296-3.749-2.992-5.067-5.048
				c0.125-0.767-0.124-1.727,1.019-1.967C205.774,361.74,208.424,363.632,210.744,365.852z"/>
			<path fill="#291425" d="M228.717,418.015c-0.207,0.004-0.414,0.012-0.62,0.024c-1.563-1.025-1.754-2.694-1.438-4.197
				c0.621-2.95,0.122-5.899,0.373-8.835c0.252-0.395,0.503-0.416,0.755,0c1.337,1.368,1.286,2.986,0.785,4.649
				C227.726,412.464,228.067,415.239,228.717,418.015z"/>
			<path fill="#2F1829" d="M227.786,405.007c-0.252,0-0.503,0-0.755,0c-1.327-1.545-3.821-0.14-5.027-1.989
				c0.013-0.64,0.025-1.28,0.038-1.92C226.027,401.02,226.027,401.02,227.786,405.007z"/>
			<path fill="#FDA005" d="M303.019,397.97c1.336,0.053,2.673,0.106,4.009,0.158c1.336,1.895,1.181,3.881,0.366,5.91
				c-3.954,2.688-8.412,2.784-12.818,1.991c-4.79-0.862-6.54-4.656-4.613-9.083l0.045,0.009c2.345-1.678,4.516-0.64,6.891,0.137
				C298.812,397.719,300.88,398.401,303.019,397.97z"/>
			<path fill="#FBEABB" d="M295.005,379.977c-0.224-0.263-0.288-0.561-0.192-0.893c0.497-0.024,0.995-0.06,1.492-0.071
				c2.191-0.049,4.099-0.2,4.863,2.845c1.028,4.099,1.204,4.533-1.469,6.956c-1.01,0.915-2.099,1.524-3.654,1.661
				c0-2.686,0.012-5.33-0.007-7.973C296.032,381.538,296.221,380.461,295.005,379.977z"/>
			<path fill="#3F1115" d="M306.923,403.964c0.035-1.945,0.07-3.891,0.105-5.836c0.351-0.037,0.702-0.074,1.054-0.111
				c0.14,0.089,0.375,0.152,0.405,0.27c1.107,4.258-0.152,11.682-2.639,15.677c-1.083-1.106-1.086-2.498-1.048-3.903
				C305.101,407.89,305.491,405.745,306.923,403.964z"/>
			<path fill="#E28213" d="M303.019,397.97c-0.696,1.499-1.766,1.008-2.907,0.621c-3.271-1.109-6.619-1.816-10.105-1.636
				c1.314-1.655,2.628-3.31,3.942-4.965c0.542,3.244,1.365,4.316,4.349,4.837C299.91,397.108,301.568,397.064,303.019,397.97z"/>
			<path fill="#E95801" d="M305.861,410.005c-0.004,1.32-0.009,2.639-0.013,3.959c-1.383,0.598-0.401,2.566-1.821,3.142
				c-0.147-0.763-0.045-1.568-0.934-2.076c-2.136-1.218-3.812-2.946-5.136-5.014C300.589,408.027,303.224,408.111,305.861,410.005z"
				/>
			<path fill="#E55501" d="M305.861,410.005c-2.635,0.004-5.27,0.008-7.904,0.011c-1.044-0.385-1.937-1.029-3.175-1.059
				c-3.988-0.095-7.308-1.476-8.662-5.617c-0.53-1.621-1.601-1.266-2.713-1.146c-0.073-0.363-0.145-0.727-0.218-1.09
				c1.883-0.129,3.867,0.102,4.709-2.334c0.281-0.814,1.008-1.633,2.065-1.824c-0.766,5.159,1.594,7.714,6.789,8.11
				c3.519,0.269,6.747-1.107,10.17-1.093C307.371,406.119,306.396,408.023,305.861,410.005z"/>
			<path fill="#FDA105" d="M247.129,524.971c-0.012-2.642-0.025-5.285-0.037-7.927c1.225,0.081,2.095-0.601,3.65,0.758
				c3.535,3.091,7.894,5.272,12.301,7.15c2.652,1.13,5.252,2.381,7.78,3.535c-0.248,1.861-1.448,1.364-2.351,1.498
				c-6.76,1.001-12.974-1.451-19.333-3.012C247.997,526.693,248.147,525.281,247.129,524.971z"/>
			<path fill="#E4E8EB" d="M181.071,377.574c1.021-1.07,2.034-2.132,2.977-3.12c1.362-0.134,1.738,0.974,2.444,1.556
				c1.255,1.034,2.067,2.111,0.443,3.62c-1.275,1.183-2.267,1.919-3.336-0.185C183.153,378.567,181.531,379.481,181.071,377.574z"/>
			<path fill="#E0A0E2" d="M192.764,383.251c-0.103,0.833-1.134,0.816-1.762,1.241c-1.282,0.868-2.746,0.754-3.372-0.611
				c-0.564-1.229,0.435-2.454,1.387-3.313c1.283-1.159,2.045,0.067,2.832,0.837C192.301,381.849,192.849,382.277,192.764,383.251z"
				/>
			<path fill="#E6E8EB" d="M169.037,366.028c0.721-1.824,2.121-2.287,3.918-1.958c-0.025,1.265,2.854,1.604,0.983,3.55
				c-1.697,1.766-2.851,0.401-4.126-0.397C169.447,366.996,169.289,366.436,169.037,366.028z"/>
			<path fill="#9ACCE1" d="M204.047,372.013c1.852,1.226,3.756,2.411,3.939,4.962c-0.323,1.084-1.893,0.819-2.144,1.982
				c-1.538-1.359-1.927-3.147-1.897-5.091C203.428,373.218,203.386,372.596,204.047,372.013z"/>
			<path fill="#90979A" d="M204.047,372.013c-0.034,0.618-0.068,1.235-0.102,1.853c-2.399,1.698-2.964-0.591-4.005-1.843
				c-0.058-1.429,0.589-2.144,2.056-2.028C203.196,370.142,202.823,371.889,204.047,372.013z"/>
			<path fill="#E9E8E8" d="M213.039,397.069c-3.997-0.432-4.319-0.863-3.017-4.047c0.807-0.017,1.649-0.195,2.413-0.023
				C215.251,393.631,215.36,394.492,213.039,397.069z"/>
		</g>
	</g>
</g>
</svg>
